%TF.GenerationSoftware,KiCad,Pcbnew,8.0.2*%
%TF.CreationDate,2024-05-26T21:52:28+02:00*%
%TF.ProjectId,Plant_Thing,506c616e-745f-4546-9869-6e672e6b6963,rev?*%
%TF.SameCoordinates,Original*%
%TF.FileFunction,Copper,L3,Inr*%
%TF.FilePolarity,Positive*%
%FSLAX46Y46*%
G04 Gerber Fmt 4.6, Leading zero omitted, Abs format (unit mm)*
G04 Created by KiCad (PCBNEW 8.0.2) date 2024-05-26 21:52:28*
%MOMM*%
%LPD*%
G01*
G04 APERTURE LIST*
G04 Aperture macros list*
%AMRoundRect*
0 Rectangle with rounded corners*
0 $1 Rounding radius*
0 $2 $3 $4 $5 $6 $7 $8 $9 X,Y pos of 4 corners*
0 Add a 4 corners polygon primitive as box body*
4,1,4,$2,$3,$4,$5,$6,$7,$8,$9,$2,$3,0*
0 Add four circle primitives for the rounded corners*
1,1,$1+$1,$2,$3*
1,1,$1+$1,$4,$5*
1,1,$1+$1,$6,$7*
1,1,$1+$1,$8,$9*
0 Add four rect primitives between the rounded corners*
20,1,$1+$1,$2,$3,$4,$5,0*
20,1,$1+$1,$4,$5,$6,$7,0*
20,1,$1+$1,$6,$7,$8,$9,0*
20,1,$1+$1,$8,$9,$2,$3,0*%
G04 Aperture macros list end*
%TA.AperFunction,HeatsinkPad*%
%ADD10C,0.600000*%
%TD*%
%TA.AperFunction,ComponentPad*%
%ADD11C,0.500000*%
%TD*%
%TA.AperFunction,ComponentPad*%
%ADD12R,1.700000X1.700000*%
%TD*%
%TA.AperFunction,ComponentPad*%
%ADD13O,1.700000X1.700000*%
%TD*%
%TA.AperFunction,ComponentPad*%
%ADD14R,0.500000X0.900000*%
%TD*%
%TA.AperFunction,ComponentPad*%
%ADD15O,1.100000X2.000000*%
%TD*%
%TA.AperFunction,ComponentPad*%
%ADD16O,1.200000X1.800000*%
%TD*%
%TA.AperFunction,ComponentPad*%
%ADD17RoundRect,0.250000X-0.350000X-0.625000X0.350000X-0.625000X0.350000X0.625000X-0.350000X0.625000X0*%
%TD*%
%TA.AperFunction,ComponentPad*%
%ADD18O,1.200000X1.750000*%
%TD*%
%TA.AperFunction,ViaPad*%
%ADD19C,0.500000*%
%TD*%
%TA.AperFunction,ViaPad*%
%ADD20C,0.889000*%
%TD*%
%TA.AperFunction,ViaPad*%
%ADD21C,0.685800*%
%TD*%
G04 APERTURE END LIST*
D10*
%TO.N,GND*%
%TO.C,U3*%
X149440000Y-98565000D03*
X148160000Y-98565000D03*
X149440000Y-99535000D03*
X148160000Y-99535000D03*
%TD*%
D11*
%TO.N,GND*%
%TO.C,U5*%
X172500000Y-90556776D03*
X173056776Y-90000000D03*
X171943224Y-90000000D03*
X172500000Y-89443224D03*
%TD*%
D12*
%TO.N,GND*%
%TO.C,J8*%
X165525000Y-117800000D03*
D13*
%TO.N,VDD*%
X168065000Y-117800000D03*
%TD*%
D12*
%TO.N,Net-(J7-Pin_1)*%
%TO.C,J7*%
X143825000Y-88000000D03*
D13*
%TO.N,/VDDH*%
X146365000Y-88000000D03*
%TD*%
D12*
%TO.N,VDDA*%
%TO.C,J6*%
X158825000Y-65900000D03*
D13*
%TO.N,Net-(J3-Pin_6)*%
X161365000Y-65900000D03*
%TD*%
D12*
%TO.N,GND*%
%TO.C,J3*%
X148650000Y-62000000D03*
D13*
%TO.N,P0.03_TDT_MEASURE*%
X151190000Y-62000000D03*
%TO.N,P0.04_AIN2*%
X153730000Y-62000000D03*
%TO.N,P0.05_AIN3*%
X156270000Y-62000000D03*
%TO.N,GND*%
X158810000Y-62000000D03*
%TO.N,Net-(J3-Pin_6)*%
X161350000Y-62000000D03*
%TD*%
D12*
%TO.N,Net-(D1-A)*%
%TO.C,J2*%
X171500000Y-84175000D03*
D13*
%TO.N,+3.3V*%
X171500000Y-81635000D03*
%TD*%
D14*
%TO.N,GND*%
%TO.C,AE1*%
X136000000Y-68500000D03*
%TD*%
D11*
%TO.N,GND*%
%TO.C,U6*%
X164575000Y-101800000D03*
X164000000Y-102750000D03*
X164000000Y-100850000D03*
X163425000Y-101800000D03*
%TD*%
D15*
%TO.N,GND*%
%TO.C,USB1*%
X150680000Y-113087500D03*
D16*
X150680000Y-117297500D03*
D15*
X159320000Y-113087500D03*
D16*
X159320000Y-117297500D03*
%TD*%
D17*
%TO.N,+BATT*%
%TO.C,BT1*%
X133100000Y-110450000D03*
D18*
%TO.N,-BATT*%
X135100000Y-110450000D03*
%TD*%
D19*
%TO.N,GND*%
X156750000Y-117400000D03*
X169250000Y-113750000D03*
X159150000Y-108850000D03*
X176550000Y-67100000D03*
X173950000Y-113650000D03*
X132000000Y-113450000D03*
D20*
X134800000Y-101800000D03*
X136800000Y-102900000D03*
D19*
X165900000Y-83050000D03*
X136150000Y-61400000D03*
X173400000Y-97650000D03*
X136100000Y-86600000D03*
X137050000Y-99750000D03*
X142350000Y-97650000D03*
X157100000Y-88800000D03*
X170200000Y-71800000D03*
X138300000Y-96800000D03*
X142450000Y-118500000D03*
X138900000Y-87950000D03*
X169400000Y-107050000D03*
X163550000Y-113150000D03*
X146400000Y-106400000D03*
X136200000Y-74050000D03*
X161800000Y-89250000D03*
X151100000Y-90900000D03*
X142250000Y-99850000D03*
X163150000Y-70450000D03*
X154150000Y-76200000D03*
X157300000Y-64200000D03*
X147200000Y-92300000D03*
X144350000Y-69650000D03*
X149600000Y-86600000D03*
X146900000Y-64250000D03*
X162250000Y-104300000D03*
X153200000Y-117650000D03*
X136200000Y-69600000D03*
X152200000Y-84100000D03*
X136100000Y-66700000D03*
X138350000Y-71700000D03*
X161800000Y-117000000D03*
X146200000Y-69650000D03*
D21*
X164000000Y-104400000D03*
D19*
X136200000Y-82000000D03*
X136650000Y-116150000D03*
D21*
X134800000Y-104600000D03*
D19*
X152800000Y-104050000D03*
X166650000Y-73000000D03*
X157850000Y-70400000D03*
X159961500Y-100150000D03*
X152800000Y-79400000D03*
X174400000Y-71900000D03*
X133150000Y-95650000D03*
X136200000Y-79250000D03*
X140100000Y-69650000D03*
X166050000Y-75800000D03*
X139100000Y-83700000D03*
X173350000Y-77800000D03*
X146400000Y-71600000D03*
X152900000Y-83300000D03*
X136100000Y-64250000D03*
X136150000Y-76600000D03*
X140100000Y-71700000D03*
X142600000Y-79450000D03*
X151932699Y-73565431D03*
X142150000Y-71650000D03*
X145100000Y-89800000D03*
X136850000Y-91550000D03*
X133350000Y-90850000D03*
X155000000Y-75350000D03*
X175250000Y-110350000D03*
X173250000Y-103050000D03*
X148550000Y-71600000D03*
X166900000Y-68950000D03*
X142100000Y-69650000D03*
X173350000Y-107050000D03*
X142150000Y-94950000D03*
X165100000Y-91050000D03*
X174150000Y-81400000D03*
X152750000Y-71800000D03*
X167850000Y-79100000D03*
X139700000Y-65050000D03*
X170700000Y-68700000D03*
X163650000Y-96900000D03*
X137850000Y-108050000D03*
X138700000Y-100650000D03*
X146950000Y-78350000D03*
X162100000Y-82050000D03*
X138400000Y-69650000D03*
X151100000Y-108300000D03*
X131750000Y-97750000D03*
X160750000Y-92950000D03*
X138800000Y-113950000D03*
D21*
X164350000Y-99300000D03*
D19*
X168000000Y-87150000D03*
X141500000Y-110350000D03*
X170800000Y-101800000D03*
X172650000Y-61700000D03*
X144300000Y-71650000D03*
X136200000Y-84450000D03*
X136250000Y-71650000D03*
X173200000Y-117800000D03*
X145800000Y-62400000D03*
X178550000Y-113100000D03*
X155000000Y-111200000D03*
X148500000Y-69650000D03*
X151100000Y-70150000D03*
D20*
%TO.N,+BATT*%
X151600000Y-101200000D03*
D19*
X146700000Y-99100000D03*
X143200000Y-103600000D03*
X134700000Y-99300000D03*
%TO.N,VDD*%
X163650000Y-77800000D03*
X155900000Y-80600000D03*
X149950000Y-77350000D03*
D20*
X148300000Y-90900000D03*
D19*
X144700000Y-68500000D03*
X157950000Y-71600000D03*
D20*
X149200000Y-85100000D03*
D21*
%TO.N,VBUS*%
X158800000Y-110500000D03*
X151200000Y-110500000D03*
X156400000Y-105300000D03*
X163800000Y-75200000D03*
D20*
X157200000Y-93000000D03*
D19*
%TO.N,DEC4*%
X152850000Y-80200000D03*
X150950000Y-73450000D03*
D20*
%TO.N,VCC*%
X145300000Y-86300000D03*
D19*
X159100000Y-100300000D03*
D20*
X144300000Y-113200000D03*
X145700000Y-113000000D03*
X165300000Y-95900000D03*
D19*
%TO.N,/Power/VINA*%
X160150000Y-103750000D03*
X162100000Y-98700000D03*
D20*
%TO.N,+3.3V*%
X167100000Y-108500000D03*
X165700000Y-107900000D03*
D21*
%TO.N,VDDA*%
X173200000Y-66600000D03*
X172400000Y-66100000D03*
D19*
X165400000Y-62400000D03*
D21*
%TO.N,Net-(D1-A)*%
X178900000Y-84000000D03*
X178900000Y-90000000D03*
X178900000Y-102000000D03*
X168900000Y-91700000D03*
X178900000Y-72000000D03*
X178900000Y-96000000D03*
X178900000Y-108100000D03*
X178900000Y-78000000D03*
D19*
%TO.N,P0.06_EN_BATT_MEASURE*%
X158450000Y-80200000D03*
X149950000Y-80900000D03*
%TO.N,P0.18_RESET*%
X148400000Y-81500000D03*
X152500000Y-65800000D03*
%TO.N,SWDIO*%
X141300000Y-64200000D03*
X140500000Y-60900000D03*
%TO.N,SWDCLK*%
X141800000Y-60900000D03*
X141950000Y-65000000D03*
%TO.N,P0.03_TDT_MEASURE*%
X147800000Y-79900000D03*
%TO.N,P0.04_AIN2*%
X164900000Y-71950000D03*
X158050000Y-81100000D03*
X164800000Y-70200000D03*
D21*
%TO.N,/VDDH*%
X159200000Y-76700000D03*
D19*
%TO.N,P0.05_AIN3*%
X164800000Y-69400000D03*
X158200000Y-79400000D03*
X164050000Y-71950000D03*
%TO.N,P0.14_SCL*%
X167000000Y-62300000D03*
X167500000Y-64000000D03*
%TO.N,P0.29_SCLK*%
X151050000Y-77550000D03*
X154300000Y-91300000D03*
%TO.N,P0.30_SIN*%
X153960067Y-90560067D03*
X151050000Y-78400000D03*
%TO.N,P0.28_LAT*%
X153500000Y-91600000D03*
X151000000Y-79350000D03*
%TO.N,P0.20_BLANK*%
X169300000Y-88600000D03*
X159300000Y-70808578D03*
%TO.N,USB_DP*%
X159800000Y-73300000D03*
X155850000Y-113800000D03*
X154650000Y-113800000D03*
X152900000Y-107850000D03*
%TO.N,P0.16_CHG*%
X150000000Y-83100000D03*
X154200000Y-72100000D03*
%TO.N,P0.17_PG*%
X153600000Y-71500000D03*
X149300000Y-83700000D03*
%TO.N,USB_DN*%
X159350000Y-74200000D03*
X155900000Y-106400000D03*
%TO.N,P0.08_EN_DCDC*%
X151100000Y-76750000D03*
X157050000Y-96600000D03*
%TD*%
%TA.AperFunction,Conductor*%
%TO.N,GND*%
G36*
X139833012Y-60320185D02*
G01*
X139878767Y-60372989D01*
X139888711Y-60442147D01*
X139870966Y-60490473D01*
X139819545Y-60572306D01*
X139763685Y-60731943D01*
X139744751Y-60899997D01*
X139744751Y-60900002D01*
X139763685Y-61068056D01*
X139819545Y-61227694D01*
X139819547Y-61227697D01*
X139909518Y-61370884D01*
X139909523Y-61370890D01*
X140029109Y-61490476D01*
X140029115Y-61490481D01*
X140172302Y-61580452D01*
X140172305Y-61580454D01*
X140172309Y-61580455D01*
X140172310Y-61580456D01*
X140227881Y-61599901D01*
X140331943Y-61636314D01*
X140499997Y-61655249D01*
X140500000Y-61655249D01*
X140500003Y-61655249D01*
X140668056Y-61636314D01*
X140668059Y-61636313D01*
X140827690Y-61580456D01*
X140827692Y-61580454D01*
X140827694Y-61580454D01*
X140827697Y-61580452D01*
X140970884Y-61490481D01*
X140970885Y-61490480D01*
X140970890Y-61490477D01*
X141062319Y-61399048D01*
X141123642Y-61365563D01*
X141193334Y-61370547D01*
X141237681Y-61399048D01*
X141329109Y-61490476D01*
X141329115Y-61490481D01*
X141472302Y-61580452D01*
X141472305Y-61580454D01*
X141472309Y-61580455D01*
X141472310Y-61580456D01*
X141527881Y-61599901D01*
X141631943Y-61636314D01*
X141799997Y-61655249D01*
X141800000Y-61655249D01*
X141800003Y-61655249D01*
X141968056Y-61636314D01*
X141968059Y-61636313D01*
X142127690Y-61580456D01*
X142127692Y-61580454D01*
X142127694Y-61580454D01*
X142127697Y-61580452D01*
X142270884Y-61490481D01*
X142270885Y-61490480D01*
X142270890Y-61490477D01*
X142390477Y-61370890D01*
X142393919Y-61365412D01*
X142450390Y-61275540D01*
X143564200Y-61275540D01*
X143564200Y-61422459D01*
X143592858Y-61566534D01*
X143592861Y-61566544D01*
X143649078Y-61702266D01*
X143649083Y-61702275D01*
X143730698Y-61824419D01*
X143730701Y-61824423D01*
X143834576Y-61928298D01*
X143834580Y-61928301D01*
X143956724Y-62009916D01*
X143956730Y-62009919D01*
X143956731Y-62009920D01*
X144092458Y-62066140D01*
X144235937Y-62094679D01*
X144236540Y-62094799D01*
X144236544Y-62094800D01*
X144236545Y-62094800D01*
X144383456Y-62094800D01*
X144383457Y-62094799D01*
X144527542Y-62066140D01*
X144663269Y-62009920D01*
X144785420Y-61928301D01*
X144889301Y-61824420D01*
X144970920Y-61702269D01*
X145027140Y-61566542D01*
X145055800Y-61422455D01*
X145055800Y-61275545D01*
X145027140Y-61131458D01*
X145015002Y-61102155D01*
X147300000Y-61102155D01*
X147300000Y-61750000D01*
X148216988Y-61750000D01*
X148184075Y-61807007D01*
X148150000Y-61934174D01*
X148150000Y-62065826D01*
X148184075Y-62192993D01*
X148216988Y-62250000D01*
X147300000Y-62250000D01*
X147300000Y-62897844D01*
X147306401Y-62957372D01*
X147306403Y-62957379D01*
X147356645Y-63092086D01*
X147356649Y-63092093D01*
X147442809Y-63207187D01*
X147442812Y-63207190D01*
X147557906Y-63293350D01*
X147557913Y-63293354D01*
X147692620Y-63343596D01*
X147692627Y-63343598D01*
X147752155Y-63349999D01*
X147752172Y-63350000D01*
X148400000Y-63350000D01*
X148400000Y-62433012D01*
X148457007Y-62465925D01*
X148584174Y-62500000D01*
X148715826Y-62500000D01*
X148842993Y-62465925D01*
X148900000Y-62433012D01*
X148900000Y-63350000D01*
X149547828Y-63350000D01*
X149547844Y-63349999D01*
X149607372Y-63343598D01*
X149607379Y-63343596D01*
X149742086Y-63293354D01*
X149742093Y-63293350D01*
X149857187Y-63207190D01*
X149857190Y-63207187D01*
X149943350Y-63092093D01*
X149943354Y-63092086D01*
X149992422Y-62960529D01*
X150034293Y-62904595D01*
X150099757Y-62880178D01*
X150168030Y-62895030D01*
X150196285Y-62916181D01*
X150318599Y-63038495D01*
X150380932Y-63082141D01*
X150512165Y-63174032D01*
X150512167Y-63174033D01*
X150512170Y-63174035D01*
X150726337Y-63273903D01*
X150954592Y-63335063D01*
X151125319Y-63350000D01*
X151189999Y-63355659D01*
X151190000Y-63355659D01*
X151190001Y-63355659D01*
X151254681Y-63350000D01*
X151425408Y-63335063D01*
X151653663Y-63273903D01*
X151867830Y-63174035D01*
X152061401Y-63038495D01*
X152228495Y-62871401D01*
X152358425Y-62685842D01*
X152413002Y-62642217D01*
X152482500Y-62635023D01*
X152544855Y-62666546D01*
X152561575Y-62685842D01*
X152691500Y-62871395D01*
X152691505Y-62871401D01*
X152858599Y-63038495D01*
X152920932Y-63082141D01*
X153052165Y-63174032D01*
X153052167Y-63174033D01*
X153052170Y-63174035D01*
X153266337Y-63273903D01*
X153494592Y-63335063D01*
X153665319Y-63350000D01*
X153729999Y-63355659D01*
X153730000Y-63355659D01*
X153730001Y-63355659D01*
X153794681Y-63350000D01*
X153965408Y-63335063D01*
X154193663Y-63273903D01*
X154407830Y-63174035D01*
X154601401Y-63038495D01*
X154768495Y-62871401D01*
X154898425Y-62685842D01*
X154953002Y-62642217D01*
X155022500Y-62635023D01*
X155084855Y-62666546D01*
X155101575Y-62685842D01*
X155231500Y-62871395D01*
X155231505Y-62871401D01*
X155398599Y-63038495D01*
X155460932Y-63082141D01*
X155592165Y-63174032D01*
X155592167Y-63174033D01*
X155592170Y-63174035D01*
X155806337Y-63273903D01*
X156034592Y-63335063D01*
X156205319Y-63350000D01*
X156269999Y-63355659D01*
X156270000Y-63355659D01*
X156270001Y-63355659D01*
X156334681Y-63350000D01*
X156505408Y-63335063D01*
X156733663Y-63273903D01*
X156947830Y-63174035D01*
X157141401Y-63038495D01*
X157308495Y-62871401D01*
X157438730Y-62685405D01*
X157493307Y-62641781D01*
X157562805Y-62634587D01*
X157625160Y-62666110D01*
X157641879Y-62685405D01*
X157771890Y-62871078D01*
X157938917Y-63038105D01*
X158132421Y-63173600D01*
X158346507Y-63273429D01*
X158346516Y-63273433D01*
X158560000Y-63330634D01*
X158560000Y-62433012D01*
X158617007Y-62465925D01*
X158744174Y-62500000D01*
X158875826Y-62500000D01*
X159002993Y-62465925D01*
X159060000Y-62433012D01*
X159060000Y-63330633D01*
X159273483Y-63273433D01*
X159273492Y-63273429D01*
X159487578Y-63173600D01*
X159681082Y-63038105D01*
X159848105Y-62871082D01*
X159978119Y-62685405D01*
X160032696Y-62641781D01*
X160102195Y-62634588D01*
X160164549Y-62666110D01*
X160181269Y-62685405D01*
X160311505Y-62871401D01*
X160478599Y-63038495D01*
X160540932Y-63082141D01*
X160672165Y-63174032D01*
X160672167Y-63174033D01*
X160672170Y-63174035D01*
X160886337Y-63273903D01*
X161114592Y-63335063D01*
X161285319Y-63350000D01*
X161349999Y-63355659D01*
X161350000Y-63355659D01*
X161350001Y-63355659D01*
X161414681Y-63350000D01*
X161585408Y-63335063D01*
X161813663Y-63273903D01*
X162027830Y-63174035D01*
X162221401Y-63038495D01*
X162388495Y-62871401D01*
X162524035Y-62677830D01*
X162623903Y-62463663D01*
X162640962Y-62399997D01*
X164644751Y-62399997D01*
X164644751Y-62400002D01*
X164663685Y-62568056D01*
X164719545Y-62727694D01*
X164719547Y-62727697D01*
X164809518Y-62870884D01*
X164809523Y-62870890D01*
X164929109Y-62990476D01*
X164929115Y-62990481D01*
X165072302Y-63080452D01*
X165072305Y-63080454D01*
X165072309Y-63080455D01*
X165072310Y-63080456D01*
X165105547Y-63092086D01*
X165231943Y-63136314D01*
X165399997Y-63155249D01*
X165400000Y-63155249D01*
X165400003Y-63155249D01*
X165568056Y-63136314D01*
X165599778Y-63125214D01*
X165727690Y-63080456D01*
X165727692Y-63080454D01*
X165727694Y-63080454D01*
X165727697Y-63080452D01*
X165870884Y-62990481D01*
X165870885Y-62990480D01*
X165870890Y-62990477D01*
X165990477Y-62870890D01*
X166009623Y-62840420D01*
X166080452Y-62727697D01*
X166080456Y-62727689D01*
X166103407Y-62662096D01*
X166144128Y-62605321D01*
X166209080Y-62579573D01*
X166277642Y-62593029D01*
X166325442Y-62637078D01*
X166409521Y-62770888D01*
X166529109Y-62890476D01*
X166529115Y-62890481D01*
X166672302Y-62980452D01*
X166672305Y-62980454D01*
X166672309Y-62980455D01*
X166672310Y-62980456D01*
X166700946Y-62990476D01*
X166831943Y-63036314D01*
X166999997Y-63055249D01*
X167000000Y-63055249D01*
X167000003Y-63055249D01*
X167168056Y-63036314D01*
X167192605Y-63027724D01*
X167327690Y-62980456D01*
X167327692Y-62980454D01*
X167327694Y-62980454D01*
X167327697Y-62980452D01*
X167470884Y-62890481D01*
X167470885Y-62890480D01*
X167470890Y-62890477D01*
X167590477Y-62770890D01*
X167617622Y-62727689D01*
X167680452Y-62627697D01*
X167680454Y-62627694D01*
X167680454Y-62627692D01*
X167680456Y-62627690D01*
X167736313Y-62468059D01*
X167736313Y-62468058D01*
X167736314Y-62468056D01*
X167755249Y-62300002D01*
X167755249Y-62299997D01*
X167736314Y-62131943D01*
X167694247Y-62011724D01*
X167680456Y-61972310D01*
X167680455Y-61972309D01*
X167680454Y-61972305D01*
X167680452Y-61972302D01*
X167590481Y-61829115D01*
X167590476Y-61829109D01*
X167470890Y-61709523D01*
X167470884Y-61709518D01*
X167327697Y-61619547D01*
X167327694Y-61619545D01*
X167168056Y-61563685D01*
X167000003Y-61544751D01*
X166999997Y-61544751D01*
X166831943Y-61563685D01*
X166672305Y-61619545D01*
X166672302Y-61619547D01*
X166529115Y-61709518D01*
X166529109Y-61709523D01*
X166409523Y-61829109D01*
X166409518Y-61829115D01*
X166319547Y-61972302D01*
X166319542Y-61972313D01*
X166296591Y-62037903D01*
X166255869Y-62094679D01*
X166190917Y-62120426D01*
X166122355Y-62106970D01*
X166074557Y-62062920D01*
X165990481Y-61929115D01*
X165990476Y-61929109D01*
X165870890Y-61809523D01*
X165870884Y-61809518D01*
X165727697Y-61719547D01*
X165727694Y-61719545D01*
X165568056Y-61663685D01*
X165400003Y-61644751D01*
X165399997Y-61644751D01*
X165231943Y-61663685D01*
X165072305Y-61719545D01*
X165072302Y-61719547D01*
X164929115Y-61809518D01*
X164929109Y-61809523D01*
X164809523Y-61929109D01*
X164809518Y-61929115D01*
X164719547Y-62072302D01*
X164719545Y-62072305D01*
X164663685Y-62231943D01*
X164644751Y-62399997D01*
X162640962Y-62399997D01*
X162685063Y-62235408D01*
X162705659Y-62000000D01*
X162685063Y-61764592D01*
X162631231Y-61563685D01*
X162623905Y-61536344D01*
X162623904Y-61536343D01*
X162623903Y-61536337D01*
X162524035Y-61322171D01*
X162518731Y-61314595D01*
X162388494Y-61128597D01*
X162221402Y-60961506D01*
X162221395Y-60961501D01*
X162027834Y-60825967D01*
X162027830Y-60825965D01*
X161956727Y-60792809D01*
X161813663Y-60726097D01*
X161813659Y-60726096D01*
X161813655Y-60726094D01*
X161585413Y-60664938D01*
X161585403Y-60664936D01*
X161350001Y-60644341D01*
X161349999Y-60644341D01*
X161114596Y-60664936D01*
X161114586Y-60664938D01*
X160886344Y-60726094D01*
X160886335Y-60726098D01*
X160672171Y-60825964D01*
X160672169Y-60825965D01*
X160478597Y-60961505D01*
X160311508Y-61128594D01*
X160181269Y-61314595D01*
X160126692Y-61358219D01*
X160057193Y-61365412D01*
X159994839Y-61333890D01*
X159978119Y-61314594D01*
X159848113Y-61128926D01*
X159848108Y-61128920D01*
X159681082Y-60961894D01*
X159487578Y-60826399D01*
X159273492Y-60726570D01*
X159273486Y-60726567D01*
X159060000Y-60669364D01*
X159060000Y-61566988D01*
X159002993Y-61534075D01*
X158875826Y-61500000D01*
X158744174Y-61500000D01*
X158617007Y-61534075D01*
X158560000Y-61566988D01*
X158560000Y-60669364D01*
X158559999Y-60669364D01*
X158346513Y-60726567D01*
X158346507Y-60726570D01*
X158132422Y-60826399D01*
X158132420Y-60826400D01*
X157938926Y-60961886D01*
X157938920Y-60961891D01*
X157771891Y-61128920D01*
X157771890Y-61128922D01*
X157641880Y-61314595D01*
X157587303Y-61358219D01*
X157517804Y-61365412D01*
X157455450Y-61333890D01*
X157438730Y-61314594D01*
X157308494Y-61128597D01*
X157141402Y-60961506D01*
X157141395Y-60961501D01*
X156947834Y-60825967D01*
X156947830Y-60825965D01*
X156876727Y-60792809D01*
X156733663Y-60726097D01*
X156733659Y-60726096D01*
X156733655Y-60726094D01*
X156505413Y-60664938D01*
X156505403Y-60664936D01*
X156270001Y-60644341D01*
X156269999Y-60644341D01*
X156034596Y-60664936D01*
X156034586Y-60664938D01*
X155806344Y-60726094D01*
X155806335Y-60726098D01*
X155592171Y-60825964D01*
X155592169Y-60825965D01*
X155398597Y-60961505D01*
X155231505Y-61128597D01*
X155101575Y-61314158D01*
X155046998Y-61357783D01*
X154977500Y-61364977D01*
X154915145Y-61333454D01*
X154898425Y-61314158D01*
X154768494Y-61128597D01*
X154601402Y-60961506D01*
X154601395Y-60961501D01*
X154407834Y-60825967D01*
X154407830Y-60825965D01*
X154336727Y-60792809D01*
X154193663Y-60726097D01*
X154193659Y-60726096D01*
X154193655Y-60726094D01*
X153965413Y-60664938D01*
X153965403Y-60664936D01*
X153730001Y-60644341D01*
X153729999Y-60644341D01*
X153494596Y-60664936D01*
X153494586Y-60664938D01*
X153266344Y-60726094D01*
X153266335Y-60726098D01*
X153052171Y-60825964D01*
X153052169Y-60825965D01*
X152858597Y-60961505D01*
X152691505Y-61128597D01*
X152561575Y-61314158D01*
X152506998Y-61357783D01*
X152437500Y-61364977D01*
X152375145Y-61333454D01*
X152358425Y-61314158D01*
X152228494Y-61128597D01*
X152061402Y-60961506D01*
X152061395Y-60961501D01*
X151867834Y-60825967D01*
X151867830Y-60825965D01*
X151796727Y-60792809D01*
X151653663Y-60726097D01*
X151653659Y-60726096D01*
X151653655Y-60726094D01*
X151425413Y-60664938D01*
X151425403Y-60664936D01*
X151190001Y-60644341D01*
X151189999Y-60644341D01*
X150954596Y-60664936D01*
X150954586Y-60664938D01*
X150726344Y-60726094D01*
X150726335Y-60726098D01*
X150512171Y-60825964D01*
X150512169Y-60825965D01*
X150318600Y-60961503D01*
X150196284Y-61083819D01*
X150134961Y-61117303D01*
X150065269Y-61112319D01*
X150009336Y-61070447D01*
X149992421Y-61039470D01*
X149943354Y-60907913D01*
X149943350Y-60907906D01*
X149857190Y-60792812D01*
X149857187Y-60792809D01*
X149742093Y-60706649D01*
X149742086Y-60706645D01*
X149607379Y-60656403D01*
X149607372Y-60656401D01*
X149547844Y-60650000D01*
X148900000Y-60650000D01*
X148900000Y-61566988D01*
X148842993Y-61534075D01*
X148715826Y-61500000D01*
X148584174Y-61500000D01*
X148457007Y-61534075D01*
X148400000Y-61566988D01*
X148400000Y-60650000D01*
X147752155Y-60650000D01*
X147692627Y-60656401D01*
X147692620Y-60656403D01*
X147557913Y-60706645D01*
X147557906Y-60706649D01*
X147442812Y-60792809D01*
X147442809Y-60792812D01*
X147356649Y-60907906D01*
X147356645Y-60907913D01*
X147306403Y-61042620D01*
X147306401Y-61042627D01*
X147300000Y-61102155D01*
X145015002Y-61102155D01*
X144970920Y-60995731D01*
X144970919Y-60995730D01*
X144970916Y-60995724D01*
X144889301Y-60873580D01*
X144889298Y-60873576D01*
X144785423Y-60769701D01*
X144785419Y-60769698D01*
X144663275Y-60688083D01*
X144663266Y-60688078D01*
X144527544Y-60631861D01*
X144527545Y-60631861D01*
X144527542Y-60631860D01*
X144527538Y-60631859D01*
X144527534Y-60631858D01*
X144383459Y-60603200D01*
X144383455Y-60603200D01*
X144236545Y-60603200D01*
X144236540Y-60603200D01*
X144092465Y-60631858D01*
X144092455Y-60631861D01*
X143956733Y-60688078D01*
X143956724Y-60688083D01*
X143834580Y-60769698D01*
X143834576Y-60769701D01*
X143730701Y-60873576D01*
X143730698Y-60873580D01*
X143649083Y-60995724D01*
X143649078Y-60995733D01*
X143592861Y-61131455D01*
X143592858Y-61131465D01*
X143564200Y-61275540D01*
X142450390Y-61275540D01*
X142480452Y-61227697D01*
X142480454Y-61227694D01*
X142480454Y-61227692D01*
X142480456Y-61227690D01*
X142536313Y-61068059D01*
X142536313Y-61068058D01*
X142536314Y-61068056D01*
X142555249Y-60900002D01*
X142555249Y-60899997D01*
X142536314Y-60731943D01*
X142509881Y-60656403D01*
X142480456Y-60572310D01*
X142480454Y-60572307D01*
X142480454Y-60572306D01*
X142429034Y-60490473D01*
X142410033Y-60423236D01*
X142430400Y-60356401D01*
X142483668Y-60311187D01*
X142534027Y-60300500D01*
X175952405Y-60300500D01*
X175996949Y-60300500D01*
X176003032Y-60300648D01*
X176356532Y-60318015D01*
X176368640Y-60319208D01*
X176477576Y-60335367D01*
X176715717Y-60370692D01*
X176727635Y-60373062D01*
X177068008Y-60458321D01*
X177079646Y-60461852D01*
X177409996Y-60580054D01*
X177421237Y-60584710D01*
X177639793Y-60688078D01*
X177738433Y-60734731D01*
X177749150Y-60740459D01*
X178050102Y-60920843D01*
X178060217Y-60927601D01*
X178331231Y-61128599D01*
X178342049Y-61136622D01*
X178351455Y-61144342D01*
X178611436Y-61379974D01*
X178620025Y-61388563D01*
X178761585Y-61544751D01*
X178855657Y-61648544D01*
X178863377Y-61657950D01*
X179072396Y-61939779D01*
X179079156Y-61949897D01*
X179224862Y-62192993D01*
X179259533Y-62250837D01*
X179265270Y-62261570D01*
X179415289Y-62578762D01*
X179419945Y-62590003D01*
X179538147Y-62920353D01*
X179541680Y-62931998D01*
X179626934Y-63272351D01*
X179629308Y-63284287D01*
X179680791Y-63631359D01*
X179681984Y-63643468D01*
X179699351Y-63996966D01*
X179699500Y-64003051D01*
X179699500Y-71304460D01*
X179679815Y-71371499D01*
X179627011Y-71417254D01*
X179557853Y-71427198D01*
X179494297Y-71398173D01*
X179483350Y-71387433D01*
X179467453Y-71369778D01*
X179356594Y-71289235D01*
X179324023Y-71265571D01*
X179324021Y-71265570D01*
X179324022Y-71265570D01*
X179162066Y-71193461D01*
X179162058Y-71193459D01*
X178988645Y-71156600D01*
X178811355Y-71156600D01*
X178637941Y-71193459D01*
X178637933Y-71193461D01*
X178475978Y-71265570D01*
X178332543Y-71369780D01*
X178213915Y-71501532D01*
X178125272Y-71655065D01*
X178125271Y-71655066D01*
X178070487Y-71823677D01*
X178070486Y-71823679D01*
X178051954Y-72000000D01*
X178070486Y-72176320D01*
X178070487Y-72176322D01*
X178125271Y-72344933D01*
X178125272Y-72344934D01*
X178169122Y-72420884D01*
X178213916Y-72498469D01*
X178261414Y-72551221D01*
X178332543Y-72630219D01*
X178332869Y-72630456D01*
X178475977Y-72734429D01*
X178637933Y-72806538D01*
X178637936Y-72806538D01*
X178637939Y-72806540D01*
X178811355Y-72843400D01*
X178988645Y-72843400D01*
X179162061Y-72806540D01*
X179162064Y-72806538D01*
X179162066Y-72806538D01*
X179220650Y-72780454D01*
X179324023Y-72734429D01*
X179467454Y-72630221D01*
X179483349Y-72612568D01*
X179542835Y-72575919D01*
X179612692Y-72577248D01*
X179670741Y-72616134D01*
X179698551Y-72680230D01*
X179699500Y-72695539D01*
X179699500Y-77304460D01*
X179679815Y-77371499D01*
X179627011Y-77417254D01*
X179557853Y-77427198D01*
X179494297Y-77398173D01*
X179483350Y-77387433D01*
X179467453Y-77369778D01*
X179377549Y-77304460D01*
X179324023Y-77265571D01*
X179324021Y-77265570D01*
X179324022Y-77265570D01*
X179162066Y-77193461D01*
X179162058Y-77193459D01*
X178988645Y-77156600D01*
X178811355Y-77156600D01*
X178637941Y-77193459D01*
X178637933Y-77193461D01*
X178475978Y-77265570D01*
X178332543Y-77369780D01*
X178213915Y-77501532D01*
X178125272Y-77655065D01*
X178125271Y-77655066D01*
X178070487Y-77823677D01*
X178070486Y-77823679D01*
X178051954Y-78000000D01*
X178070486Y-78176320D01*
X178070487Y-78176322D01*
X178125271Y-78344933D01*
X178125272Y-78344934D01*
X178151569Y-78390481D01*
X178213916Y-78498469D01*
X178247991Y-78536313D01*
X178332543Y-78630219D01*
X178332546Y-78630221D01*
X178475977Y-78734429D01*
X178637933Y-78806538D01*
X178637936Y-78806538D01*
X178637939Y-78806540D01*
X178811355Y-78843400D01*
X178988645Y-78843400D01*
X179162061Y-78806540D01*
X179162064Y-78806538D01*
X179162066Y-78806538D01*
X179194869Y-78791932D01*
X179324023Y-78734429D01*
X179467454Y-78630221D01*
X179483349Y-78612568D01*
X179542835Y-78575919D01*
X179612692Y-78577248D01*
X179670741Y-78616134D01*
X179698551Y-78680230D01*
X179699500Y-78695539D01*
X179699500Y-83304460D01*
X179679815Y-83371499D01*
X179627011Y-83417254D01*
X179557853Y-83427198D01*
X179494297Y-83398173D01*
X179483350Y-83387433D01*
X179467453Y-83369778D01*
X179377549Y-83304460D01*
X179324023Y-83265571D01*
X179324021Y-83265570D01*
X179324022Y-83265570D01*
X179162066Y-83193461D01*
X179162058Y-83193459D01*
X178988645Y-83156600D01*
X178811355Y-83156600D01*
X178637941Y-83193459D01*
X178637933Y-83193461D01*
X178475978Y-83265570D01*
X178332543Y-83369780D01*
X178213915Y-83501532D01*
X178125272Y-83655065D01*
X178125271Y-83655066D01*
X178070487Y-83823677D01*
X178070486Y-83823679D01*
X178051954Y-84000000D01*
X178070486Y-84176320D01*
X178070487Y-84176322D01*
X178125271Y-84344933D01*
X178125272Y-84344934D01*
X178173548Y-84428550D01*
X178213916Y-84498469D01*
X178261414Y-84551221D01*
X178332543Y-84630219D01*
X178332546Y-84630221D01*
X178475977Y-84734429D01*
X178637933Y-84806538D01*
X178637936Y-84806538D01*
X178637939Y-84806540D01*
X178811355Y-84843400D01*
X178988645Y-84843400D01*
X179162061Y-84806540D01*
X179162064Y-84806538D01*
X179162066Y-84806538D01*
X179194869Y-84791932D01*
X179324023Y-84734429D01*
X179467454Y-84630221D01*
X179483349Y-84612568D01*
X179542835Y-84575919D01*
X179612692Y-84577248D01*
X179670741Y-84616134D01*
X179698551Y-84680230D01*
X179699500Y-84695539D01*
X179699500Y-89304460D01*
X179679815Y-89371499D01*
X179627011Y-89417254D01*
X179557853Y-89427198D01*
X179494297Y-89398173D01*
X179483350Y-89387433D01*
X179467453Y-89369778D01*
X179362873Y-89293797D01*
X179324023Y-89265571D01*
X179324021Y-89265570D01*
X179324022Y-89265570D01*
X179162066Y-89193461D01*
X179162058Y-89193459D01*
X178988645Y-89156600D01*
X178811355Y-89156600D01*
X178637941Y-89193459D01*
X178637933Y-89193461D01*
X178475978Y-89265570D01*
X178332543Y-89369780D01*
X178213915Y-89501532D01*
X178125272Y-89655065D01*
X178125271Y-89655066D01*
X178070487Y-89823677D01*
X178070486Y-89823679D01*
X178051954Y-90000000D01*
X178070486Y-90176320D01*
X178070487Y-90176322D01*
X178125271Y-90344933D01*
X178125272Y-90344934D01*
X178152452Y-90392010D01*
X178213916Y-90498469D01*
X178248263Y-90536615D01*
X178332543Y-90630219D01*
X178332546Y-90630221D01*
X178475977Y-90734429D01*
X178637933Y-90806538D01*
X178637936Y-90806538D01*
X178637939Y-90806540D01*
X178811355Y-90843400D01*
X178988645Y-90843400D01*
X179162061Y-90806540D01*
X179162064Y-90806538D01*
X179162066Y-90806538D01*
X179194869Y-90791932D01*
X179324023Y-90734429D01*
X179467454Y-90630221D01*
X179483349Y-90612568D01*
X179542835Y-90575919D01*
X179612692Y-90577248D01*
X179670741Y-90616134D01*
X179698551Y-90680230D01*
X179699500Y-90695539D01*
X179699500Y-95304460D01*
X179679815Y-95371499D01*
X179627011Y-95417254D01*
X179557853Y-95427198D01*
X179494297Y-95398173D01*
X179483350Y-95387433D01*
X179467453Y-95369778D01*
X179377549Y-95304460D01*
X179324023Y-95265571D01*
X179324021Y-95265570D01*
X179324022Y-95265570D01*
X179162066Y-95193461D01*
X179162058Y-95193459D01*
X178988645Y-95156600D01*
X178811355Y-95156600D01*
X178637941Y-95193459D01*
X178637933Y-95193461D01*
X178475978Y-95265570D01*
X178332543Y-95369780D01*
X178213915Y-95501532D01*
X178125272Y-95655065D01*
X178125271Y-95655066D01*
X178070487Y-95823677D01*
X178070486Y-95823679D01*
X178051954Y-96000000D01*
X178070486Y-96176320D01*
X178070487Y-96176322D01*
X178125271Y-96344933D01*
X178125272Y-96344934D01*
X178172972Y-96427552D01*
X178213916Y-96498469D01*
X178261414Y-96551221D01*
X178332543Y-96630219D01*
X178332546Y-96630221D01*
X178475977Y-96734429D01*
X178637933Y-96806538D01*
X178637936Y-96806538D01*
X178637939Y-96806540D01*
X178811355Y-96843400D01*
X178988645Y-96843400D01*
X179162061Y-96806540D01*
X179162064Y-96806538D01*
X179162066Y-96806538D01*
X179194869Y-96791932D01*
X179324023Y-96734429D01*
X179467454Y-96630221D01*
X179483349Y-96612568D01*
X179542835Y-96575919D01*
X179612692Y-96577248D01*
X179670741Y-96616134D01*
X179698551Y-96680230D01*
X179699500Y-96695539D01*
X179699500Y-101304460D01*
X179679815Y-101371499D01*
X179627011Y-101417254D01*
X179557853Y-101427198D01*
X179494297Y-101398173D01*
X179483350Y-101387433D01*
X179467453Y-101369778D01*
X179377549Y-101304460D01*
X179324023Y-101265571D01*
X179324021Y-101265570D01*
X179324022Y-101265570D01*
X179162066Y-101193461D01*
X179162058Y-101193459D01*
X178988645Y-101156600D01*
X178811355Y-101156600D01*
X178637941Y-101193459D01*
X178637933Y-101193461D01*
X178475978Y-101265570D01*
X178332543Y-101369780D01*
X178213915Y-101501532D01*
X178125272Y-101655065D01*
X178125271Y-101655066D01*
X178070487Y-101823677D01*
X178070486Y-101823679D01*
X178051954Y-102000000D01*
X178070486Y-102176320D01*
X178070487Y-102176322D01*
X178125271Y-102344933D01*
X178125272Y-102344934D01*
X178186304Y-102450643D01*
X178213916Y-102498469D01*
X178258546Y-102548036D01*
X178332543Y-102630219D01*
X178359770Y-102650000D01*
X178475977Y-102734429D01*
X178637933Y-102806538D01*
X178637936Y-102806538D01*
X178637939Y-102806540D01*
X178811355Y-102843400D01*
X178988645Y-102843400D01*
X179162061Y-102806540D01*
X179162064Y-102806538D01*
X179162066Y-102806538D01*
X179194869Y-102791932D01*
X179324023Y-102734429D01*
X179467454Y-102630221D01*
X179483349Y-102612568D01*
X179542835Y-102575919D01*
X179612692Y-102577248D01*
X179670741Y-102616134D01*
X179698551Y-102680230D01*
X179699500Y-102695539D01*
X179699500Y-107404460D01*
X179679815Y-107471499D01*
X179627011Y-107517254D01*
X179557853Y-107527198D01*
X179494297Y-107498173D01*
X179483350Y-107487433D01*
X179467453Y-107469778D01*
X179377549Y-107404460D01*
X179324023Y-107365571D01*
X179324021Y-107365570D01*
X179324022Y-107365570D01*
X179162066Y-107293461D01*
X179162058Y-107293459D01*
X178988645Y-107256600D01*
X178811355Y-107256600D01*
X178637941Y-107293459D01*
X178637933Y-107293461D01*
X178475978Y-107365570D01*
X178332543Y-107469780D01*
X178213915Y-107601532D01*
X178125272Y-107755065D01*
X178125271Y-107755066D01*
X178070487Y-107923677D01*
X178070486Y-107923679D01*
X178051954Y-108100000D01*
X178070486Y-108276320D01*
X178070487Y-108276322D01*
X178125271Y-108444933D01*
X178125272Y-108444934D01*
X178174649Y-108530456D01*
X178213916Y-108598469D01*
X178220021Y-108605249D01*
X178332543Y-108730219D01*
X178332546Y-108730221D01*
X178475977Y-108834429D01*
X178637933Y-108906538D01*
X178637936Y-108906538D01*
X178637939Y-108906540D01*
X178811355Y-108943400D01*
X178988645Y-108943400D01*
X179162061Y-108906540D01*
X179162064Y-108906538D01*
X179162066Y-108906538D01*
X179194869Y-108891932D01*
X179324023Y-108834429D01*
X179467454Y-108730221D01*
X179483349Y-108712568D01*
X179542835Y-108675919D01*
X179612692Y-108677248D01*
X179670741Y-108716134D01*
X179698551Y-108780230D01*
X179699500Y-108795539D01*
X179699500Y-115996948D01*
X179699351Y-116003033D01*
X179681984Y-116356531D01*
X179680791Y-116368640D01*
X179629308Y-116715712D01*
X179626934Y-116727648D01*
X179541680Y-117068001D01*
X179538147Y-117079646D01*
X179419945Y-117409996D01*
X179415289Y-117421237D01*
X179265270Y-117738429D01*
X179259533Y-117749162D01*
X179079156Y-118050102D01*
X179072396Y-118060220D01*
X178863377Y-118342049D01*
X178855657Y-118351455D01*
X178620033Y-118611428D01*
X178611428Y-118620033D01*
X178351455Y-118855657D01*
X178342049Y-118863377D01*
X178060220Y-119072396D01*
X178050102Y-119079156D01*
X177749162Y-119259533D01*
X177738429Y-119265270D01*
X177421237Y-119415289D01*
X177409996Y-119419945D01*
X177079646Y-119538147D01*
X177068001Y-119541680D01*
X176727648Y-119626934D01*
X176715712Y-119629308D01*
X176368640Y-119680791D01*
X176356531Y-119681984D01*
X176023016Y-119698369D01*
X176003031Y-119699351D01*
X175996949Y-119699500D01*
X134003051Y-119699500D01*
X133996968Y-119699351D01*
X133975811Y-119698311D01*
X133643468Y-119681984D01*
X133631359Y-119680791D01*
X133284287Y-119629308D01*
X133272351Y-119626934D01*
X132931998Y-119541680D01*
X132920353Y-119538147D01*
X132590003Y-119419945D01*
X132578762Y-119415289D01*
X132261570Y-119265270D01*
X132250842Y-119259535D01*
X131949897Y-119079156D01*
X131939779Y-119072396D01*
X131657950Y-118863377D01*
X131648544Y-118855657D01*
X131540110Y-118757379D01*
X131388563Y-118620025D01*
X131379974Y-118611436D01*
X131144342Y-118351455D01*
X131136622Y-118342049D01*
X131105436Y-118300000D01*
X130927601Y-118060217D01*
X130920843Y-118050102D01*
X130880767Y-117983239D01*
X130740459Y-117749150D01*
X130734729Y-117738429D01*
X130726388Y-117720794D01*
X130652508Y-117564586D01*
X130584710Y-117421237D01*
X130580054Y-117409996D01*
X130461852Y-117079646D01*
X130458319Y-117068001D01*
X130453184Y-117047500D01*
X130373062Y-116727635D01*
X130370691Y-116715712D01*
X130357378Y-116625965D01*
X130320009Y-116374038D01*
X131899500Y-116374038D01*
X131899500Y-116625962D01*
X131920968Y-116761503D01*
X131938910Y-116874785D01*
X132016760Y-117114383D01*
X132065715Y-117210461D01*
X132129852Y-117336337D01*
X132131132Y-117338848D01*
X132279201Y-117542649D01*
X132279205Y-117542654D01*
X132457345Y-117720794D01*
X132457350Y-117720798D01*
X132541181Y-117781704D01*
X132661155Y-117868870D01*
X132804184Y-117941747D01*
X132885616Y-117983239D01*
X132885618Y-117983239D01*
X132885621Y-117983241D01*
X133125215Y-118061090D01*
X133374038Y-118100500D01*
X133374039Y-118100500D01*
X133625961Y-118100500D01*
X133625962Y-118100500D01*
X133874785Y-118061090D01*
X134114379Y-117983241D01*
X134225675Y-117926533D01*
X140324499Y-117926533D01*
X140350458Y-118057030D01*
X140350461Y-118057040D01*
X140401376Y-118179961D01*
X140401386Y-118179979D01*
X140475301Y-118290601D01*
X140475307Y-118290609D01*
X140569390Y-118384692D01*
X140569398Y-118384698D01*
X140680020Y-118458613D01*
X140680023Y-118458614D01*
X140680031Y-118458620D01*
X140680037Y-118458622D01*
X140680038Y-118458623D01*
X140726418Y-118477834D01*
X140802964Y-118509540D01*
X140802968Y-118509540D01*
X140802969Y-118509541D01*
X140933466Y-118535500D01*
X140933469Y-118535500D01*
X141066533Y-118535500D01*
X141154325Y-118518035D01*
X141197036Y-118509540D01*
X141319969Y-118458620D01*
X141430606Y-118384695D01*
X141524695Y-118290606D01*
X141598620Y-118179969D01*
X141649540Y-118057036D01*
X141658035Y-118014325D01*
X141675500Y-117926533D01*
X143324499Y-117926533D01*
X143350458Y-118057030D01*
X143350461Y-118057040D01*
X143401376Y-118179961D01*
X143401386Y-118179979D01*
X143475301Y-118290601D01*
X143475307Y-118290609D01*
X143569390Y-118384692D01*
X143569398Y-118384698D01*
X143680020Y-118458613D01*
X143680023Y-118458614D01*
X143680031Y-118458620D01*
X143680037Y-118458622D01*
X143680038Y-118458623D01*
X143726418Y-118477834D01*
X143802964Y-118509540D01*
X143802968Y-118509540D01*
X143802969Y-118509541D01*
X143933466Y-118535500D01*
X143933469Y-118535500D01*
X144066533Y-118535500D01*
X144154325Y-118518035D01*
X144197036Y-118509540D01*
X144319969Y-118458620D01*
X144430606Y-118384695D01*
X144524695Y-118290606D01*
X144598620Y-118179969D01*
X144649540Y-118057036D01*
X144658035Y-118014325D01*
X144675500Y-117926533D01*
X144675500Y-117793466D01*
X144649541Y-117662969D01*
X144649540Y-117662968D01*
X144649540Y-117662964D01*
X144599707Y-117542656D01*
X144598623Y-117540038D01*
X144598622Y-117540037D01*
X144598620Y-117540031D01*
X144567190Y-117492993D01*
X144524698Y-117429398D01*
X144524692Y-117429390D01*
X144430609Y-117335307D01*
X144430601Y-117335301D01*
X144319979Y-117261386D01*
X144319972Y-117261382D01*
X144319969Y-117261380D01*
X144319965Y-117261378D01*
X144319961Y-117261376D01*
X144197040Y-117210461D01*
X144197030Y-117210458D01*
X144066533Y-117184500D01*
X144066531Y-117184500D01*
X143933469Y-117184500D01*
X143933467Y-117184500D01*
X143802969Y-117210458D01*
X143802959Y-117210461D01*
X143680038Y-117261376D01*
X143680020Y-117261386D01*
X143569398Y-117335301D01*
X143569390Y-117335307D01*
X143475307Y-117429390D01*
X143475301Y-117429398D01*
X143401386Y-117540020D01*
X143401376Y-117540038D01*
X143350461Y-117662959D01*
X143350458Y-117662969D01*
X143324500Y-117793466D01*
X143324500Y-117793469D01*
X143324500Y-117926531D01*
X143324500Y-117926533D01*
X143324499Y-117926533D01*
X141675500Y-117926533D01*
X141675500Y-117793466D01*
X141649541Y-117662969D01*
X141649540Y-117662968D01*
X141649540Y-117662964D01*
X141599707Y-117542656D01*
X141598623Y-117540038D01*
X141598622Y-117540037D01*
X141598620Y-117540031D01*
X141567190Y-117492993D01*
X141524698Y-117429398D01*
X141524692Y-117429390D01*
X141430609Y-117335307D01*
X141430601Y-117335301D01*
X141319979Y-117261386D01*
X141319972Y-117261382D01*
X141319969Y-117261380D01*
X141319965Y-117261378D01*
X141319961Y-117261376D01*
X141197040Y-117210461D01*
X141197030Y-117210458D01*
X141066533Y-117184500D01*
X141066531Y-117184500D01*
X140933469Y-117184500D01*
X140933467Y-117184500D01*
X140802969Y-117210458D01*
X140802959Y-117210461D01*
X140680038Y-117261376D01*
X140680020Y-117261386D01*
X140569398Y-117335301D01*
X140569390Y-117335307D01*
X140475307Y-117429390D01*
X140475301Y-117429398D01*
X140401386Y-117540020D01*
X140401376Y-117540038D01*
X140350461Y-117662959D01*
X140350458Y-117662969D01*
X140324500Y-117793466D01*
X140324500Y-117793469D01*
X140324500Y-117926531D01*
X140324500Y-117926533D01*
X140324499Y-117926533D01*
X134225675Y-117926533D01*
X134338845Y-117868870D01*
X134542656Y-117720793D01*
X134720793Y-117542656D01*
X134868870Y-117338845D01*
X134983241Y-117114379D01*
X135049346Y-116910928D01*
X149580000Y-116910928D01*
X149580000Y-117047500D01*
X150380000Y-117047500D01*
X150380000Y-117547500D01*
X149580000Y-117547500D01*
X149580000Y-117684071D01*
X149607085Y-117855084D01*
X149660591Y-118019757D01*
X149739195Y-118174024D01*
X149840967Y-118314102D01*
X149963397Y-118436532D01*
X150103475Y-118538304D01*
X150257744Y-118616908D01*
X150422415Y-118670414D01*
X150422414Y-118670414D01*
X150429999Y-118671615D01*
X150430000Y-118671614D01*
X150430000Y-117764487D01*
X150439940Y-117781704D01*
X150495795Y-117837559D01*
X150564204Y-117877055D01*
X150640504Y-117897499D01*
X150719496Y-117897499D01*
X150795796Y-117877055D01*
X150864205Y-117837559D01*
X150920060Y-117781704D01*
X150930000Y-117764487D01*
X150930000Y-118671615D01*
X150937584Y-118670414D01*
X151102255Y-118616908D01*
X151256524Y-118538304D01*
X151396602Y-118436532D01*
X151519032Y-118314102D01*
X151620804Y-118174024D01*
X151699408Y-118019757D01*
X151752914Y-117855084D01*
X151780000Y-117684071D01*
X151780000Y-117547500D01*
X150980000Y-117547500D01*
X150980000Y-117047500D01*
X151780000Y-117047500D01*
X151780000Y-116910928D01*
X158220000Y-116910928D01*
X158220000Y-117047500D01*
X159020000Y-117047500D01*
X159020000Y-117547500D01*
X158220000Y-117547500D01*
X158220000Y-117684071D01*
X158247085Y-117855084D01*
X158300591Y-118019757D01*
X158379195Y-118174024D01*
X158480967Y-118314102D01*
X158603397Y-118436532D01*
X158743475Y-118538304D01*
X158897744Y-118616908D01*
X159062415Y-118670414D01*
X159062414Y-118670414D01*
X159069999Y-118671615D01*
X159070000Y-118671614D01*
X159070000Y-117764487D01*
X159079940Y-117781704D01*
X159135795Y-117837559D01*
X159204204Y-117877055D01*
X159280504Y-117897499D01*
X159359496Y-117897499D01*
X159435796Y-117877055D01*
X159504205Y-117837559D01*
X159560060Y-117781704D01*
X159570000Y-117764487D01*
X159570000Y-118671615D01*
X159577584Y-118670414D01*
X159742255Y-118616908D01*
X159896524Y-118538304D01*
X160036602Y-118436532D01*
X160159032Y-118314102D01*
X160260804Y-118174024D01*
X160339408Y-118019757D01*
X160392914Y-117855084D01*
X160420000Y-117684071D01*
X160420000Y-117547500D01*
X159620000Y-117547500D01*
X159620000Y-117047500D01*
X160420000Y-117047500D01*
X160420000Y-116910928D01*
X160418610Y-116902155D01*
X164175000Y-116902155D01*
X164175000Y-117550000D01*
X165091988Y-117550000D01*
X165059075Y-117607007D01*
X165025000Y-117734174D01*
X165025000Y-117865826D01*
X165059075Y-117992993D01*
X165091988Y-118050000D01*
X164175000Y-118050000D01*
X164175000Y-118697844D01*
X164181401Y-118757372D01*
X164181403Y-118757379D01*
X164231645Y-118892086D01*
X164231649Y-118892093D01*
X164317809Y-119007187D01*
X164317812Y-119007190D01*
X164432906Y-119093350D01*
X164432913Y-119093354D01*
X164567620Y-119143596D01*
X164567627Y-119143598D01*
X164627155Y-119149999D01*
X164627172Y-119150000D01*
X165275000Y-119150000D01*
X165275000Y-118233012D01*
X165332007Y-118265925D01*
X165459174Y-118300000D01*
X165590826Y-118300000D01*
X165717993Y-118265925D01*
X165775000Y-118233012D01*
X165775000Y-119150000D01*
X166422828Y-119150000D01*
X166422844Y-119149999D01*
X166482372Y-119143598D01*
X166482379Y-119143596D01*
X166617086Y-119093354D01*
X166617093Y-119093350D01*
X166732187Y-119007190D01*
X166732190Y-119007187D01*
X166818350Y-118892093D01*
X166818354Y-118892086D01*
X166867422Y-118760529D01*
X166909293Y-118704595D01*
X166974757Y-118680178D01*
X167043030Y-118695030D01*
X167071285Y-118716181D01*
X167193599Y-118838495D01*
X167270135Y-118892086D01*
X167387165Y-118974032D01*
X167387167Y-118974033D01*
X167387170Y-118974035D01*
X167601337Y-119073903D01*
X167601343Y-119073904D01*
X167601344Y-119073905D01*
X167656285Y-119088626D01*
X167829592Y-119135063D01*
X168000319Y-119150000D01*
X168064999Y-119155659D01*
X168065000Y-119155659D01*
X168065001Y-119155659D01*
X168129681Y-119150000D01*
X168300408Y-119135063D01*
X168528663Y-119073903D01*
X168742830Y-118974035D01*
X168936401Y-118838495D01*
X169103495Y-118671401D01*
X169239035Y-118477830D01*
X169338903Y-118263663D01*
X169400063Y-118035408D01*
X169420659Y-117800000D01*
X169400063Y-117564592D01*
X169338903Y-117336337D01*
X169239035Y-117122171D01*
X169143446Y-116985654D01*
X169103494Y-116928597D01*
X168936402Y-116761506D01*
X168936395Y-116761501D01*
X168742834Y-116625967D01*
X168742830Y-116625965D01*
X168634054Y-116575242D01*
X168528663Y-116526097D01*
X168528659Y-116526096D01*
X168528655Y-116526094D01*
X168300413Y-116464938D01*
X168300403Y-116464936D01*
X168065001Y-116444341D01*
X168064999Y-116444341D01*
X167829596Y-116464936D01*
X167829586Y-116464938D01*
X167601344Y-116526094D01*
X167601335Y-116526098D01*
X167387171Y-116625964D01*
X167387169Y-116625965D01*
X167193600Y-116761503D01*
X167071284Y-116883819D01*
X167009961Y-116917303D01*
X166940269Y-116912319D01*
X166884336Y-116870447D01*
X166867421Y-116839470D01*
X166818354Y-116707913D01*
X166818350Y-116707906D01*
X166732190Y-116592812D01*
X166732187Y-116592809D01*
X166617093Y-116506649D01*
X166617086Y-116506645D01*
X166482379Y-116456403D01*
X166482372Y-116456401D01*
X166422844Y-116450000D01*
X165775000Y-116450000D01*
X165775000Y-117366988D01*
X165717993Y-117334075D01*
X165590826Y-117300000D01*
X165459174Y-117300000D01*
X165332007Y-117334075D01*
X165275000Y-117366988D01*
X165275000Y-116450000D01*
X164627155Y-116450000D01*
X164567627Y-116456401D01*
X164567620Y-116456403D01*
X164432913Y-116506645D01*
X164432906Y-116506649D01*
X164317812Y-116592809D01*
X164317809Y-116592812D01*
X164231649Y-116707906D01*
X164231645Y-116707913D01*
X164181403Y-116842620D01*
X164181401Y-116842627D01*
X164175000Y-116902155D01*
X160418610Y-116902155D01*
X160392914Y-116739915D01*
X160339408Y-116575242D01*
X160260804Y-116420975D01*
X160226702Y-116374038D01*
X174899500Y-116374038D01*
X174899500Y-116625962D01*
X174920968Y-116761503D01*
X174938910Y-116874785D01*
X175016760Y-117114383D01*
X175065715Y-117210461D01*
X175129852Y-117336337D01*
X175131132Y-117338848D01*
X175279201Y-117542649D01*
X175279205Y-117542654D01*
X175457345Y-117720794D01*
X175457350Y-117720798D01*
X175541181Y-117781704D01*
X175661155Y-117868870D01*
X175804184Y-117941747D01*
X175885616Y-117983239D01*
X175885618Y-117983239D01*
X175885621Y-117983241D01*
X176125215Y-118061090D01*
X176374038Y-118100500D01*
X176374039Y-118100500D01*
X176625961Y-118100500D01*
X176625962Y-118100500D01*
X176874785Y-118061090D01*
X177114379Y-117983241D01*
X177338845Y-117868870D01*
X177542656Y-117720793D01*
X177720793Y-117542656D01*
X177868870Y-117338845D01*
X177983241Y-117114379D01*
X178061090Y-116874785D01*
X178100500Y-116625962D01*
X178100500Y-116374038D01*
X178061090Y-116125215D01*
X177983241Y-115885621D01*
X177983239Y-115885618D01*
X177983239Y-115885616D01*
X177941747Y-115804184D01*
X177868870Y-115661155D01*
X177849952Y-115635117D01*
X177720798Y-115457350D01*
X177720794Y-115457345D01*
X177542654Y-115279205D01*
X177542649Y-115279201D01*
X177338848Y-115131132D01*
X177338847Y-115131131D01*
X177338845Y-115131130D01*
X177268747Y-115095413D01*
X177114383Y-115016760D01*
X176874785Y-114938910D01*
X176625962Y-114899500D01*
X176374038Y-114899500D01*
X176249626Y-114919205D01*
X176125214Y-114938910D01*
X175885616Y-115016760D01*
X175661151Y-115131132D01*
X175457350Y-115279201D01*
X175457345Y-115279205D01*
X175279205Y-115457345D01*
X175279201Y-115457350D01*
X175131132Y-115661151D01*
X175016760Y-115885616D01*
X174938910Y-116125214D01*
X174938910Y-116125215D01*
X174899500Y-116374038D01*
X160226702Y-116374038D01*
X160159032Y-116280897D01*
X160036602Y-116158467D01*
X159896524Y-116056695D01*
X159742257Y-115978091D01*
X159577589Y-115924587D01*
X159577581Y-115924585D01*
X159570000Y-115923384D01*
X159570000Y-116830512D01*
X159560060Y-116813296D01*
X159504205Y-116757441D01*
X159435796Y-116717945D01*
X159359496Y-116697501D01*
X159280504Y-116697501D01*
X159204204Y-116717945D01*
X159135795Y-116757441D01*
X159079940Y-116813296D01*
X159070000Y-116830512D01*
X159070000Y-115923384D01*
X159069999Y-115923384D01*
X159062418Y-115924585D01*
X159062410Y-115924587D01*
X158897742Y-115978091D01*
X158743475Y-116056695D01*
X158603397Y-116158467D01*
X158480967Y-116280897D01*
X158379195Y-116420975D01*
X158300591Y-116575242D01*
X158247085Y-116739915D01*
X158220000Y-116910928D01*
X151780000Y-116910928D01*
X151752914Y-116739915D01*
X151699408Y-116575242D01*
X151620804Y-116420975D01*
X151519032Y-116280897D01*
X151396602Y-116158467D01*
X151256524Y-116056695D01*
X151102257Y-115978091D01*
X150937589Y-115924587D01*
X150937581Y-115924585D01*
X150930000Y-115923384D01*
X150930000Y-116830512D01*
X150920060Y-116813296D01*
X150864205Y-116757441D01*
X150795796Y-116717945D01*
X150719496Y-116697501D01*
X150640504Y-116697501D01*
X150564204Y-116717945D01*
X150495795Y-116757441D01*
X150439940Y-116813296D01*
X150430000Y-116830512D01*
X150430000Y-115923384D01*
X150429999Y-115923384D01*
X150422418Y-115924585D01*
X150422410Y-115924587D01*
X150257742Y-115978091D01*
X150103475Y-116056695D01*
X149963397Y-116158467D01*
X149840967Y-116280897D01*
X149739195Y-116420975D01*
X149660591Y-116575242D01*
X149607085Y-116739915D01*
X149580000Y-116910928D01*
X135049346Y-116910928D01*
X135061090Y-116874785D01*
X135100500Y-116625962D01*
X135100500Y-116374038D01*
X135061090Y-116125215D01*
X134983241Y-115885621D01*
X134983239Y-115885618D01*
X134983239Y-115885616D01*
X134941747Y-115804184D01*
X134868870Y-115661155D01*
X134849952Y-115635117D01*
X134720798Y-115457350D01*
X134720794Y-115457345D01*
X134542654Y-115279205D01*
X134542649Y-115279201D01*
X134338848Y-115131132D01*
X134338847Y-115131131D01*
X134338845Y-115131130D01*
X134268747Y-115095413D01*
X134114383Y-115016760D01*
X133874785Y-114938910D01*
X133625962Y-114899500D01*
X133374038Y-114899500D01*
X133249626Y-114919205D01*
X133125214Y-114938910D01*
X132885616Y-115016760D01*
X132661151Y-115131132D01*
X132457350Y-115279201D01*
X132457345Y-115279205D01*
X132279205Y-115457345D01*
X132279201Y-115457350D01*
X132131132Y-115661151D01*
X132016760Y-115885616D01*
X131938910Y-116125214D01*
X131938910Y-116125215D01*
X131899500Y-116374038D01*
X130320009Y-116374038D01*
X130319208Y-116368640D01*
X130318015Y-116356530D01*
X130314299Y-116280897D01*
X130300649Y-116003032D01*
X130300500Y-115996948D01*
X130300500Y-113200000D01*
X143350428Y-113200000D01*
X143368673Y-113385250D01*
X143422711Y-113563389D01*
X143510458Y-113727552D01*
X143510460Y-113727554D01*
X143628550Y-113871449D01*
X143772445Y-113989539D01*
X143772447Y-113989541D01*
X143936610Y-114077288D01*
X143936612Y-114077288D01*
X143936615Y-114077290D01*
X144114748Y-114131326D01*
X144114747Y-114131326D01*
X144131357Y-114132961D01*
X144300000Y-114149572D01*
X144485252Y-114131326D01*
X144663385Y-114077290D01*
X144667395Y-114075147D01*
X144827552Y-113989541D01*
X144827551Y-113989541D01*
X144827554Y-113989540D01*
X144971449Y-113871449D01*
X145014901Y-113818502D01*
X145072645Y-113779168D01*
X145142490Y-113777297D01*
X145169207Y-113787809D01*
X145336610Y-113877288D01*
X145336612Y-113877288D01*
X145336615Y-113877290D01*
X145514748Y-113931326D01*
X145514747Y-113931326D01*
X145531357Y-113932961D01*
X145700000Y-113949572D01*
X145885252Y-113931326D01*
X146063385Y-113877290D01*
X146115770Y-113849290D01*
X146227552Y-113789541D01*
X146227551Y-113789541D01*
X146227554Y-113789540D01*
X146371449Y-113671449D01*
X146489540Y-113527554D01*
X146577290Y-113363385D01*
X146631326Y-113185252D01*
X146649572Y-113000000D01*
X146631326Y-112814748D01*
X146577290Y-112636615D01*
X146577288Y-112636612D01*
X146577288Y-112636610D01*
X146522484Y-112534079D01*
X149630000Y-112534079D01*
X149630000Y-112837500D01*
X150380000Y-112837500D01*
X150380000Y-113337500D01*
X149630000Y-113337500D01*
X149630000Y-113640920D01*
X149670348Y-113843766D01*
X149670350Y-113843774D01*
X149749500Y-114034858D01*
X149749505Y-114034868D01*
X149864410Y-114206835D01*
X149864413Y-114206839D01*
X150010660Y-114353086D01*
X150010664Y-114353089D01*
X150182631Y-114467994D01*
X150182641Y-114467999D01*
X150373723Y-114547148D01*
X150373725Y-114547149D01*
X150430000Y-114558342D01*
X150430000Y-113704487D01*
X150439940Y-113721704D01*
X150495795Y-113777559D01*
X150564204Y-113817055D01*
X150640504Y-113837499D01*
X150719496Y-113837499D01*
X150795796Y-113817055D01*
X150864205Y-113777559D01*
X150920060Y-113721704D01*
X150930000Y-113704487D01*
X150930000Y-114558342D01*
X150986274Y-114547149D01*
X150986276Y-114547148D01*
X151177358Y-114467999D01*
X151177368Y-114467994D01*
X151349335Y-114353089D01*
X151349339Y-114353086D01*
X151495586Y-114206839D01*
X151495592Y-114206831D01*
X151553643Y-114119953D01*
X151607255Y-114075147D01*
X151676580Y-114066440D01*
X151734143Y-114093980D01*
X151734839Y-114093074D01*
X151739126Y-114096364D01*
X151739607Y-114096594D01*
X151740375Y-114097322D01*
X151741281Y-114098017D01*
X151741284Y-114098020D01*
X151741287Y-114098021D01*
X151741290Y-114098024D01*
X151878209Y-114177073D01*
X151878216Y-114177077D01*
X152030943Y-114218000D01*
X152030945Y-114218000D01*
X152189055Y-114218000D01*
X152189057Y-114218000D01*
X152341784Y-114177077D01*
X152478716Y-114098020D01*
X152590520Y-113986216D01*
X152669577Y-113849284D01*
X152682783Y-113799997D01*
X153894751Y-113799997D01*
X153894751Y-113800002D01*
X153913685Y-113968056D01*
X153969545Y-114127694D01*
X153969547Y-114127697D01*
X154059518Y-114270884D01*
X154059523Y-114270890D01*
X154179109Y-114390476D01*
X154179115Y-114390481D01*
X154322302Y-114480452D01*
X154322305Y-114480454D01*
X154322309Y-114480455D01*
X154322310Y-114480456D01*
X154394913Y-114505860D01*
X154481943Y-114536314D01*
X154649997Y-114555249D01*
X154650000Y-114555249D01*
X154650003Y-114555249D01*
X154818056Y-114536314D01*
X154818059Y-114536313D01*
X154977690Y-114480456D01*
X154977692Y-114480454D01*
X154977694Y-114480454D01*
X154977697Y-114480452D01*
X155120884Y-114390481D01*
X155120885Y-114390480D01*
X155120890Y-114390477D01*
X155162319Y-114349048D01*
X155223642Y-114315563D01*
X155293334Y-114320547D01*
X155337681Y-114349048D01*
X155379109Y-114390476D01*
X155379115Y-114390481D01*
X155522302Y-114480452D01*
X155522305Y-114480454D01*
X155522309Y-114480455D01*
X155522310Y-114480456D01*
X155594913Y-114505860D01*
X155681943Y-114536314D01*
X155849997Y-114555249D01*
X155850000Y-114555249D01*
X155850003Y-114555249D01*
X156018056Y-114536314D01*
X156018059Y-114536313D01*
X156177690Y-114480456D01*
X156177692Y-114480454D01*
X156177694Y-114480454D01*
X156177697Y-114480452D01*
X156320884Y-114390481D01*
X156320885Y-114390480D01*
X156320890Y-114390477D01*
X156440477Y-114270890D01*
X156499425Y-114177076D01*
X156530452Y-114127697D01*
X156530454Y-114127694D01*
X156530454Y-114127692D01*
X156530456Y-114127690D01*
X156586313Y-113968059D01*
X156586313Y-113968058D01*
X156586314Y-113968056D01*
X156605249Y-113800002D01*
X156605249Y-113799997D01*
X156586314Y-113631943D01*
X156555860Y-113544913D01*
X156553596Y-113538443D01*
X157289500Y-113538443D01*
X157289500Y-113696557D01*
X157328945Y-113843766D01*
X157330423Y-113849283D01*
X157330426Y-113849290D01*
X157409475Y-113986209D01*
X157409479Y-113986214D01*
X157409480Y-113986216D01*
X157521284Y-114098020D01*
X157521286Y-114098021D01*
X157521290Y-114098024D01*
X157658209Y-114177073D01*
X157658216Y-114177077D01*
X157810943Y-114218000D01*
X157810945Y-114218000D01*
X157969055Y-114218000D01*
X157969057Y-114218000D01*
X158121784Y-114177077D01*
X158258716Y-114098020D01*
X158258719Y-114098016D01*
X158265166Y-114093071D01*
X158266711Y-114095085D01*
X158316874Y-114067682D01*
X158386566Y-114072653D01*
X158442508Y-114114514D01*
X158446357Y-114119953D01*
X158504407Y-114206831D01*
X158504413Y-114206839D01*
X158650660Y-114353086D01*
X158650664Y-114353089D01*
X158822631Y-114467994D01*
X158822641Y-114467999D01*
X159013723Y-114547148D01*
X159013725Y-114547149D01*
X159070000Y-114558342D01*
X159070000Y-113704499D01*
X159079940Y-113721716D01*
X159135795Y-113777571D01*
X159204204Y-113817067D01*
X159280504Y-113837511D01*
X159359496Y-113837511D01*
X159435796Y-113817067D01*
X159504205Y-113777571D01*
X159560060Y-113721716D01*
X159570000Y-113704499D01*
X159570000Y-114558342D01*
X159626274Y-114547149D01*
X159626276Y-114547148D01*
X159817358Y-114467999D01*
X159817368Y-114467994D01*
X159989335Y-114353089D01*
X159989339Y-114353086D01*
X160135586Y-114206839D01*
X160135589Y-114206835D01*
X160250494Y-114034868D01*
X160250499Y-114034858D01*
X160329649Y-113843774D01*
X160329651Y-113843766D01*
X160369999Y-113640920D01*
X160370000Y-113640917D01*
X160370000Y-113337500D01*
X159620000Y-113337500D01*
X159620000Y-112837500D01*
X160370000Y-112837500D01*
X160370000Y-112534083D01*
X160369999Y-112534079D01*
X160329651Y-112331233D01*
X160329649Y-112331225D01*
X160250499Y-112140141D01*
X160250494Y-112140131D01*
X160135589Y-111968164D01*
X160135586Y-111968160D01*
X159989339Y-111821913D01*
X159989335Y-111821910D01*
X159817368Y-111707005D01*
X159817358Y-111707000D01*
X159626272Y-111627849D01*
X159626267Y-111627847D01*
X159570000Y-111616655D01*
X159570000Y-112470500D01*
X159560060Y-112453284D01*
X159504205Y-112397429D01*
X159435796Y-112357933D01*
X159359496Y-112337489D01*
X159280504Y-112337489D01*
X159204204Y-112357933D01*
X159135795Y-112397429D01*
X159079940Y-112453284D01*
X159070000Y-112470500D01*
X159070000Y-111616656D01*
X159069999Y-111616655D01*
X159013732Y-111627847D01*
X159013727Y-111627849D01*
X158822641Y-111707000D01*
X158822631Y-111707005D01*
X158650664Y-111821910D01*
X158650660Y-111821913D01*
X158504413Y-111968160D01*
X158504410Y-111968164D01*
X158389505Y-112140131D01*
X158389500Y-112140141D01*
X158310350Y-112331225D01*
X158310348Y-112331233D01*
X158270000Y-112534079D01*
X158270000Y-112936037D01*
X158250315Y-113003076D01*
X158197511Y-113048831D01*
X158128353Y-113058775D01*
X158113907Y-113055812D01*
X158030072Y-113033349D01*
X157969057Y-113017000D01*
X157810943Y-113017000D01*
X157658216Y-113057923D01*
X157658209Y-113057926D01*
X157521290Y-113136975D01*
X157521282Y-113136981D01*
X157409481Y-113248782D01*
X157409475Y-113248790D01*
X157330426Y-113385709D01*
X157330423Y-113385716D01*
X157289500Y-113538443D01*
X156553596Y-113538443D01*
X156530456Y-113472310D01*
X156530455Y-113472309D01*
X156530454Y-113472305D01*
X156530452Y-113472302D01*
X156440481Y-113329115D01*
X156440476Y-113329109D01*
X156320890Y-113209523D01*
X156320884Y-113209518D01*
X156177697Y-113119547D01*
X156177694Y-113119545D01*
X156018056Y-113063685D01*
X155850003Y-113044751D01*
X155849997Y-113044751D01*
X155681943Y-113063685D01*
X155522305Y-113119545D01*
X155522302Y-113119547D01*
X155379115Y-113209518D01*
X155379108Y-113209524D01*
X155337680Y-113250952D01*
X155276357Y-113284436D01*
X155206665Y-113279451D01*
X155162320Y-113250952D01*
X155120891Y-113209524D01*
X155120884Y-113209518D01*
X154977697Y-113119547D01*
X154977694Y-113119545D01*
X154818056Y-113063685D01*
X154650003Y-113044751D01*
X154649997Y-113044751D01*
X154481943Y-113063685D01*
X154322305Y-113119545D01*
X154322302Y-113119547D01*
X154179115Y-113209518D01*
X154179109Y-113209523D01*
X154059523Y-113329109D01*
X154059518Y-113329115D01*
X153969547Y-113472302D01*
X153969545Y-113472305D01*
X153913685Y-113631943D01*
X153894751Y-113799997D01*
X152682783Y-113799997D01*
X152710500Y-113696557D01*
X152710500Y-113538443D01*
X152669577Y-113385716D01*
X152656684Y-113363385D01*
X152590524Y-113248790D01*
X152590518Y-113248782D01*
X152478717Y-113136981D01*
X152478709Y-113136975D01*
X152341790Y-113057926D01*
X152341786Y-113057924D01*
X152341784Y-113057923D01*
X152189057Y-113017000D01*
X152030943Y-113017000D01*
X151886093Y-113055812D01*
X151816243Y-113054149D01*
X151758381Y-113014986D01*
X151730877Y-112950758D01*
X151730000Y-112936037D01*
X151730000Y-112534083D01*
X151729999Y-112534079D01*
X151689651Y-112331233D01*
X151689649Y-112331225D01*
X151610499Y-112140141D01*
X151610494Y-112140131D01*
X151495589Y-111968164D01*
X151495586Y-111968160D01*
X151349339Y-111821913D01*
X151349335Y-111821910D01*
X151177368Y-111707005D01*
X151177358Y-111707000D01*
X150986272Y-111627849D01*
X150986267Y-111627847D01*
X150930000Y-111616655D01*
X150930000Y-112470512D01*
X150920060Y-112453296D01*
X150864205Y-112397441D01*
X150795796Y-112357945D01*
X150719496Y-112337501D01*
X150640504Y-112337501D01*
X150564204Y-112357945D01*
X150495795Y-112397441D01*
X150439940Y-112453296D01*
X150430000Y-112470512D01*
X150430000Y-111616656D01*
X150429999Y-111616655D01*
X150373732Y-111627847D01*
X150373727Y-111627849D01*
X150182641Y-111707000D01*
X150182631Y-111707005D01*
X150010664Y-111821910D01*
X150010660Y-111821913D01*
X149864413Y-111968160D01*
X149864410Y-111968164D01*
X149749505Y-112140131D01*
X149749500Y-112140141D01*
X149670350Y-112331225D01*
X149670348Y-112331233D01*
X149630000Y-112534079D01*
X146522484Y-112534079D01*
X146489541Y-112472447D01*
X146489539Y-112472445D01*
X146371449Y-112328550D01*
X146227554Y-112210460D01*
X146227552Y-112210458D01*
X146063389Y-112122711D01*
X145974318Y-112095692D01*
X145885252Y-112068674D01*
X145885250Y-112068673D01*
X145885252Y-112068673D01*
X145700000Y-112050428D01*
X145514749Y-112068673D01*
X145336610Y-112122711D01*
X145172447Y-112210458D01*
X145172445Y-112210460D01*
X145028552Y-112328549D01*
X144985098Y-112381498D01*
X144927352Y-112420832D01*
X144857507Y-112422701D01*
X144830792Y-112412190D01*
X144663389Y-112322711D01*
X144574318Y-112295692D01*
X144485252Y-112268674D01*
X144485250Y-112268673D01*
X144485252Y-112268673D01*
X144300000Y-112250428D01*
X144114749Y-112268673D01*
X143936610Y-112322711D01*
X143772447Y-112410458D01*
X143772445Y-112410460D01*
X143628550Y-112528550D01*
X143510460Y-112672445D01*
X143510458Y-112672447D01*
X143422711Y-112836610D01*
X143368673Y-113014749D01*
X143350428Y-113200000D01*
X130300500Y-113200000D01*
X130300500Y-109774983D01*
X131999500Y-109774983D01*
X131999500Y-111125001D01*
X131999501Y-111125018D01*
X132010000Y-111227796D01*
X132010001Y-111227799D01*
X132065185Y-111394331D01*
X132065187Y-111394336D01*
X132088870Y-111432732D01*
X132157288Y-111543656D01*
X132281344Y-111667712D01*
X132430666Y-111759814D01*
X132597203Y-111814999D01*
X132699991Y-111825500D01*
X133500008Y-111825499D01*
X133500016Y-111825498D01*
X133500019Y-111825498D01*
X133556302Y-111819748D01*
X133602797Y-111814999D01*
X133769334Y-111759814D01*
X133918656Y-111667712D01*
X134042712Y-111543656D01*
X134082310Y-111479456D01*
X134134258Y-111432732D01*
X134203220Y-111421509D01*
X134267303Y-111449352D01*
X134275530Y-111456872D01*
X134383072Y-111564414D01*
X134523212Y-111666232D01*
X134677555Y-111744873D01*
X134842299Y-111798402D01*
X135013389Y-111825500D01*
X135013390Y-111825500D01*
X135186610Y-111825500D01*
X135186611Y-111825500D01*
X135357701Y-111798402D01*
X135522445Y-111744873D01*
X135676788Y-111666232D01*
X135816928Y-111564414D01*
X135939414Y-111441928D01*
X136041232Y-111301788D01*
X136119873Y-111147445D01*
X136173402Y-110982701D01*
X136200500Y-110811611D01*
X136200500Y-110500000D01*
X150351954Y-110500000D01*
X150370486Y-110676320D01*
X150370487Y-110676322D01*
X150425271Y-110844933D01*
X150425272Y-110844934D01*
X150498450Y-110971682D01*
X150513916Y-110998469D01*
X150561414Y-111051221D01*
X150632543Y-111130219D01*
X150632546Y-111130221D01*
X150775977Y-111234429D01*
X150937933Y-111306538D01*
X150937936Y-111306538D01*
X150937939Y-111306540D01*
X151111355Y-111343400D01*
X151288645Y-111343400D01*
X151462061Y-111306540D01*
X151462064Y-111306538D01*
X151462066Y-111306538D01*
X151494869Y-111291932D01*
X151624023Y-111234429D01*
X151767454Y-111130221D01*
X151886084Y-110998469D01*
X151974729Y-110844931D01*
X152029514Y-110676319D01*
X152048046Y-110500000D01*
X157951954Y-110500000D01*
X157970486Y-110676320D01*
X157970487Y-110676322D01*
X158025271Y-110844933D01*
X158025272Y-110844934D01*
X158098450Y-110971682D01*
X158113916Y-110998469D01*
X158161414Y-111051221D01*
X158232543Y-111130219D01*
X158232546Y-111130221D01*
X158375977Y-111234429D01*
X158537933Y-111306538D01*
X158537936Y-111306538D01*
X158537939Y-111306540D01*
X158711355Y-111343400D01*
X158888645Y-111343400D01*
X159062061Y-111306540D01*
X159062064Y-111306538D01*
X159062066Y-111306538D01*
X159094869Y-111291932D01*
X159224023Y-111234429D01*
X159367454Y-111130221D01*
X159486084Y-110998469D01*
X159574729Y-110844931D01*
X159629514Y-110676319D01*
X159648046Y-110500000D01*
X159629514Y-110323681D01*
X159574729Y-110155069D01*
X159574728Y-110155068D01*
X159574728Y-110155066D01*
X159574727Y-110155065D01*
X159536231Y-110088389D01*
X159486084Y-110001531D01*
X159410244Y-109917302D01*
X159367456Y-109869780D01*
X159295738Y-109817675D01*
X159224023Y-109765571D01*
X159224021Y-109765570D01*
X159224022Y-109765570D01*
X159062066Y-109693461D01*
X159062058Y-109693459D01*
X158888645Y-109656600D01*
X158711355Y-109656600D01*
X158537941Y-109693459D01*
X158537933Y-109693461D01*
X158375978Y-109765570D01*
X158232543Y-109869780D01*
X158113915Y-110001532D01*
X158025272Y-110155065D01*
X158025271Y-110155066D01*
X157970487Y-110323677D01*
X157970486Y-110323679D01*
X157951954Y-110500000D01*
X152048046Y-110500000D01*
X152029514Y-110323681D01*
X151974729Y-110155069D01*
X151974728Y-110155068D01*
X151974728Y-110155066D01*
X151974727Y-110155065D01*
X151936231Y-110088389D01*
X151886084Y-110001531D01*
X151810244Y-109917302D01*
X151767456Y-109869780D01*
X151695738Y-109817675D01*
X151624023Y-109765571D01*
X151624021Y-109765570D01*
X151624022Y-109765570D01*
X151462066Y-109693461D01*
X151462058Y-109693459D01*
X151288645Y-109656600D01*
X151111355Y-109656600D01*
X150937941Y-109693459D01*
X150937933Y-109693461D01*
X150775978Y-109765570D01*
X150632543Y-109869780D01*
X150513915Y-110001532D01*
X150425272Y-110155065D01*
X150425271Y-110155066D01*
X150370487Y-110323677D01*
X150370486Y-110323679D01*
X150351954Y-110500000D01*
X136200500Y-110500000D01*
X136200500Y-110088389D01*
X136173402Y-109917299D01*
X136119873Y-109752555D01*
X136041232Y-109598212D01*
X135939414Y-109458072D01*
X135816928Y-109335586D01*
X135676788Y-109233768D01*
X135522445Y-109155127D01*
X135357701Y-109101598D01*
X135357699Y-109101597D01*
X135357698Y-109101597D01*
X135226271Y-109080781D01*
X135186611Y-109074500D01*
X135013389Y-109074500D01*
X134973728Y-109080781D01*
X134842302Y-109101597D01*
X134677552Y-109155128D01*
X134523211Y-109233768D01*
X134383073Y-109335585D01*
X134275530Y-109443128D01*
X134214207Y-109476612D01*
X134144515Y-109471628D01*
X134088582Y-109429756D01*
X134082310Y-109420543D01*
X134042712Y-109356344D01*
X133918656Y-109232288D01*
X133793559Y-109155128D01*
X133769336Y-109140187D01*
X133769331Y-109140185D01*
X133767862Y-109139698D01*
X133602797Y-109085001D01*
X133602795Y-109085000D01*
X133500010Y-109074500D01*
X132699998Y-109074500D01*
X132699980Y-109074501D01*
X132597203Y-109085000D01*
X132597200Y-109085001D01*
X132430668Y-109140185D01*
X132430663Y-109140187D01*
X132281342Y-109232289D01*
X132157289Y-109356342D01*
X132065187Y-109505663D01*
X132065186Y-109505666D01*
X132010001Y-109672203D01*
X132010001Y-109672204D01*
X132010000Y-109672204D01*
X131999500Y-109774983D01*
X130300500Y-109774983D01*
X130300500Y-107849997D01*
X152144751Y-107849997D01*
X152144751Y-107850002D01*
X152163685Y-108018056D01*
X152219545Y-108177694D01*
X152219547Y-108177697D01*
X152309518Y-108320884D01*
X152309523Y-108320890D01*
X152429109Y-108440476D01*
X152429115Y-108440481D01*
X152572302Y-108530452D01*
X152572305Y-108530454D01*
X152572309Y-108530455D01*
X152572310Y-108530456D01*
X152644913Y-108555860D01*
X152731943Y-108586314D01*
X152899997Y-108605249D01*
X152900000Y-108605249D01*
X152900003Y-108605249D01*
X153068056Y-108586314D01*
X153110538Y-108571449D01*
X153227690Y-108530456D01*
X153227692Y-108530454D01*
X153227694Y-108530454D01*
X153227697Y-108530452D01*
X153370884Y-108440481D01*
X153370885Y-108440480D01*
X153370890Y-108440477D01*
X153490477Y-108320890D01*
X153494336Y-108314749D01*
X153580452Y-108177697D01*
X153580454Y-108177694D01*
X153580454Y-108177692D01*
X153580456Y-108177690D01*
X153636313Y-108018059D01*
X153636313Y-108018058D01*
X153636314Y-108018056D01*
X153649616Y-107900000D01*
X164750428Y-107900000D01*
X164768673Y-108085250D01*
X164822711Y-108263389D01*
X164910458Y-108427552D01*
X164910460Y-108427554D01*
X165028550Y-108571449D01*
X165172445Y-108689539D01*
X165172447Y-108689541D01*
X165336610Y-108777288D01*
X165336612Y-108777288D01*
X165336615Y-108777290D01*
X165514748Y-108831326D01*
X165514747Y-108831326D01*
X165531357Y-108832961D01*
X165700000Y-108849572D01*
X165885252Y-108831326D01*
X166063385Y-108777290D01*
X166063386Y-108777289D01*
X166066707Y-108776282D01*
X166136574Y-108775658D01*
X166195687Y-108812906D01*
X166221363Y-108858944D01*
X166222711Y-108863388D01*
X166310458Y-109027552D01*
X166310460Y-109027554D01*
X166428550Y-109171449D01*
X166572445Y-109289539D01*
X166572447Y-109289541D01*
X166736610Y-109377288D01*
X166736612Y-109377288D01*
X166736615Y-109377290D01*
X166914748Y-109431326D01*
X166914747Y-109431326D01*
X166931357Y-109432961D01*
X167100000Y-109449572D01*
X167285252Y-109431326D01*
X167463385Y-109377290D01*
X167627554Y-109289540D01*
X167771449Y-109171449D01*
X167889540Y-109027554D01*
X167977290Y-108863385D01*
X168031326Y-108685252D01*
X168049572Y-108500000D01*
X168031326Y-108314748D01*
X167977290Y-108136615D01*
X167977288Y-108136612D01*
X167977288Y-108136610D01*
X167889541Y-107972447D01*
X167889539Y-107972445D01*
X167771449Y-107828550D01*
X167627554Y-107710460D01*
X167627552Y-107710458D01*
X167463389Y-107622711D01*
X167345971Y-107587093D01*
X167285252Y-107568674D01*
X167285250Y-107568673D01*
X167285252Y-107568673D01*
X167100000Y-107550428D01*
X166914749Y-107568673D01*
X166733291Y-107623718D01*
X166663424Y-107624341D01*
X166604311Y-107587093D01*
X166578636Y-107541053D01*
X166577290Y-107536615D01*
X166569640Y-107522302D01*
X166489541Y-107372447D01*
X166489539Y-107372445D01*
X166371449Y-107228550D01*
X166227554Y-107110460D01*
X166227552Y-107110458D01*
X166063389Y-107022711D01*
X165957127Y-106990477D01*
X165885252Y-106968674D01*
X165885250Y-106968673D01*
X165885252Y-106968673D01*
X165700000Y-106950428D01*
X165514749Y-106968673D01*
X165336610Y-107022711D01*
X165172447Y-107110458D01*
X165172445Y-107110460D01*
X165028550Y-107228550D01*
X164910460Y-107372445D01*
X164910458Y-107372447D01*
X164822711Y-107536610D01*
X164768673Y-107714749D01*
X164750428Y-107900000D01*
X153649616Y-107900000D01*
X153655249Y-107850002D01*
X153655249Y-107849997D01*
X153636314Y-107681943D01*
X153587014Y-107541051D01*
X153580456Y-107522310D01*
X153580455Y-107522309D01*
X153580454Y-107522305D01*
X153580452Y-107522302D01*
X153490481Y-107379115D01*
X153490476Y-107379109D01*
X153370890Y-107259523D01*
X153370884Y-107259518D01*
X153227697Y-107169547D01*
X153227694Y-107169545D01*
X153068056Y-107113685D01*
X152900003Y-107094751D01*
X152899997Y-107094751D01*
X152731943Y-107113685D01*
X152572305Y-107169545D01*
X152572302Y-107169547D01*
X152429115Y-107259518D01*
X152429109Y-107259523D01*
X152309523Y-107379109D01*
X152309518Y-107379115D01*
X152219547Y-107522302D01*
X152219545Y-107522305D01*
X152163685Y-107681943D01*
X152144751Y-107849997D01*
X130300500Y-107849997D01*
X130300500Y-106399997D01*
X155144751Y-106399997D01*
X155144751Y-106400002D01*
X155163685Y-106568056D01*
X155219545Y-106727694D01*
X155219547Y-106727697D01*
X155309518Y-106870884D01*
X155309523Y-106870890D01*
X155429109Y-106990476D01*
X155429115Y-106990481D01*
X155572302Y-107080452D01*
X155572305Y-107080454D01*
X155572309Y-107080455D01*
X155572310Y-107080456D01*
X155613163Y-107094751D01*
X155731943Y-107136314D01*
X155899997Y-107155249D01*
X155900000Y-107155249D01*
X155900003Y-107155249D01*
X156068056Y-107136314D01*
X156068059Y-107136313D01*
X156227690Y-107080456D01*
X156227692Y-107080454D01*
X156227694Y-107080454D01*
X156227697Y-107080452D01*
X156370884Y-106990481D01*
X156370885Y-106990480D01*
X156370890Y-106990477D01*
X156490477Y-106870890D01*
X156580452Y-106727697D01*
X156580454Y-106727694D01*
X156580454Y-106727692D01*
X156580456Y-106727690D01*
X156636313Y-106568059D01*
X156636313Y-106568058D01*
X156636314Y-106568056D01*
X156655249Y-106400002D01*
X156655249Y-106399997D01*
X156636314Y-106231945D01*
X156635396Y-106227924D01*
X156635559Y-106225249D01*
X156635534Y-106225021D01*
X156635573Y-106225016D01*
X156639664Y-106158185D01*
X156680959Y-106101824D01*
X156705849Y-106087044D01*
X156824023Y-106034429D01*
X156967454Y-105930221D01*
X156968455Y-105929110D01*
X156979270Y-105917097D01*
X157086084Y-105798469D01*
X157174729Y-105644931D01*
X157229514Y-105476319D01*
X157248046Y-105300000D01*
X157229514Y-105123681D01*
X157174729Y-104955069D01*
X157174728Y-104955068D01*
X157174728Y-104955066D01*
X157174727Y-104955065D01*
X157143798Y-104901495D01*
X157086084Y-104801531D01*
X157032677Y-104742217D01*
X156967456Y-104669780D01*
X156895738Y-104617675D01*
X156824023Y-104565571D01*
X156824021Y-104565570D01*
X156824022Y-104565570D01*
X156662066Y-104493461D01*
X156662058Y-104493459D01*
X156488645Y-104456600D01*
X156311355Y-104456600D01*
X156137941Y-104493459D01*
X156137933Y-104493461D01*
X155975978Y-104565570D01*
X155832543Y-104669780D01*
X155713915Y-104801532D01*
X155625272Y-104955065D01*
X155625271Y-104955066D01*
X155570487Y-105123677D01*
X155570486Y-105123679D01*
X155551954Y-105300000D01*
X155570486Y-105476320D01*
X155570488Y-105476325D01*
X155606564Y-105587358D01*
X155608559Y-105657199D01*
X155572478Y-105717031D01*
X155554605Y-105730669D01*
X155429109Y-105809523D01*
X155309523Y-105929109D01*
X155309518Y-105929115D01*
X155219547Y-106072302D01*
X155219545Y-106072305D01*
X155163685Y-106231943D01*
X155144751Y-106399997D01*
X130300500Y-106399997D01*
X130300500Y-103599997D01*
X142444751Y-103599997D01*
X142444751Y-103600002D01*
X142463685Y-103768056D01*
X142519545Y-103927694D01*
X142519547Y-103927697D01*
X142609518Y-104070884D01*
X142609523Y-104070890D01*
X142729109Y-104190476D01*
X142729115Y-104190481D01*
X142872302Y-104280452D01*
X142872305Y-104280454D01*
X142872309Y-104280455D01*
X142872310Y-104280456D01*
X142944913Y-104305860D01*
X143031943Y-104336314D01*
X143199997Y-104355249D01*
X143200000Y-104355249D01*
X143200003Y-104355249D01*
X143368056Y-104336314D01*
X143368059Y-104336313D01*
X143527690Y-104280456D01*
X143527692Y-104280454D01*
X143527694Y-104280454D01*
X143527697Y-104280452D01*
X143670884Y-104190481D01*
X143670885Y-104190480D01*
X143670890Y-104190477D01*
X143790477Y-104070890D01*
X143880452Y-103927697D01*
X143880454Y-103927694D01*
X143880454Y-103927692D01*
X143880456Y-103927690D01*
X143936313Y-103768059D01*
X143936313Y-103768058D01*
X143936314Y-103768056D01*
X143938349Y-103749997D01*
X159394751Y-103749997D01*
X159394751Y-103750002D01*
X159413685Y-103918056D01*
X159469545Y-104077694D01*
X159469547Y-104077697D01*
X159559518Y-104220884D01*
X159559523Y-104220890D01*
X159679109Y-104340476D01*
X159679115Y-104340481D01*
X159822302Y-104430452D01*
X159822305Y-104430454D01*
X159822309Y-104430455D01*
X159822310Y-104430456D01*
X159894913Y-104455860D01*
X159981943Y-104486314D01*
X160149997Y-104505249D01*
X160150000Y-104505249D01*
X160150003Y-104505249D01*
X160318056Y-104486314D01*
X160318059Y-104486313D01*
X160477690Y-104430456D01*
X160477692Y-104430454D01*
X160477694Y-104430454D01*
X160477697Y-104430452D01*
X160620884Y-104340481D01*
X160620885Y-104340480D01*
X160620890Y-104340477D01*
X160740477Y-104220890D01*
X160740481Y-104220884D01*
X160830452Y-104077697D01*
X160830454Y-104077694D01*
X160830454Y-104077692D01*
X160830456Y-104077690D01*
X160886313Y-103918059D01*
X160886313Y-103918058D01*
X160886314Y-103918056D01*
X160905249Y-103750002D01*
X160905249Y-103749997D01*
X160886314Y-103581943D01*
X160852680Y-103485824D01*
X160833240Y-103430266D01*
X163673285Y-103430266D01*
X163832056Y-103485824D01*
X163999996Y-103504746D01*
X164000004Y-103504746D01*
X164167943Y-103485824D01*
X164326713Y-103430267D01*
X164326714Y-103430266D01*
X164000001Y-103103553D01*
X164000000Y-103103553D01*
X163673285Y-103430266D01*
X160833240Y-103430266D01*
X160830456Y-103422310D01*
X160830455Y-103422309D01*
X160830454Y-103422305D01*
X160830452Y-103422302D01*
X160740481Y-103279115D01*
X160740476Y-103279109D01*
X160620890Y-103159523D01*
X160620884Y-103159518D01*
X160477697Y-103069547D01*
X160477694Y-103069545D01*
X160318056Y-103013685D01*
X160150003Y-102994751D01*
X160149997Y-102994751D01*
X159981943Y-103013685D01*
X159822305Y-103069545D01*
X159822302Y-103069547D01*
X159679115Y-103159518D01*
X159679109Y-103159523D01*
X159559523Y-103279109D01*
X159559518Y-103279115D01*
X159469547Y-103422302D01*
X159469545Y-103422305D01*
X159413685Y-103581943D01*
X159394751Y-103749997D01*
X143938349Y-103749997D01*
X143955249Y-103600002D01*
X143955249Y-103599997D01*
X143936314Y-103431943D01*
X143880454Y-103272305D01*
X143880452Y-103272302D01*
X143790481Y-103129115D01*
X143790476Y-103129109D01*
X143670890Y-103009523D01*
X143670884Y-103009518D01*
X143527697Y-102919547D01*
X143527694Y-102919545D01*
X143368056Y-102863685D01*
X143200003Y-102844751D01*
X143199997Y-102844751D01*
X143031943Y-102863685D01*
X142872305Y-102919545D01*
X142872302Y-102919547D01*
X142729115Y-103009518D01*
X142729109Y-103009523D01*
X142609523Y-103129109D01*
X142609518Y-103129115D01*
X142519547Y-103272302D01*
X142519545Y-103272305D01*
X142463685Y-103431943D01*
X142444751Y-103599997D01*
X130300500Y-103599997D01*
X130300500Y-101200000D01*
X150650428Y-101200000D01*
X150668673Y-101385250D01*
X150722711Y-101563389D01*
X150810458Y-101727552D01*
X150810460Y-101727554D01*
X150928550Y-101871449D01*
X151072445Y-101989539D01*
X151072447Y-101989541D01*
X151236610Y-102077288D01*
X151236612Y-102077288D01*
X151236615Y-102077290D01*
X151414748Y-102131326D01*
X151414747Y-102131326D01*
X151431357Y-102132961D01*
X151600000Y-102149572D01*
X151785252Y-102131326D01*
X151963385Y-102077290D01*
X152127554Y-101989540D01*
X152271449Y-101871449D01*
X152330089Y-101799996D01*
X162670254Y-101799996D01*
X162670254Y-101800003D01*
X162689175Y-101967938D01*
X162689176Y-101967943D01*
X162744732Y-102126714D01*
X163071447Y-101800000D01*
X163051556Y-101780109D01*
X163325000Y-101780109D01*
X163325000Y-101819891D01*
X163340224Y-101856645D01*
X163368355Y-101884776D01*
X163405109Y-101900000D01*
X163444891Y-101900000D01*
X163481645Y-101884776D01*
X163509776Y-101856645D01*
X163525000Y-101819891D01*
X163525000Y-101780109D01*
X163509776Y-101743355D01*
X163481645Y-101715224D01*
X163444891Y-101700000D01*
X163405109Y-101700000D01*
X163368355Y-101715224D01*
X163340224Y-101743355D01*
X163325000Y-101780109D01*
X163051556Y-101780109D01*
X162744732Y-101473285D01*
X162689176Y-101632053D01*
X162689175Y-101632058D01*
X162670254Y-101799996D01*
X152330089Y-101799996D01*
X152389540Y-101727554D01*
X152477290Y-101563385D01*
X152531326Y-101385252D01*
X152549572Y-101200000D01*
X152541666Y-101119730D01*
X163098285Y-101119730D01*
X163098285Y-101119732D01*
X163690871Y-101712318D01*
X163724356Y-101773641D01*
X163719372Y-101843333D01*
X163690871Y-101887680D01*
X163098285Y-102480266D01*
X163098285Y-102480267D01*
X163175580Y-102507314D01*
X163232356Y-102548036D01*
X163258103Y-102612988D01*
X163257845Y-102638237D01*
X163245254Y-102749994D01*
X163245254Y-102750003D01*
X163264175Y-102917938D01*
X163264176Y-102917943D01*
X163319732Y-103076713D01*
X163666337Y-102730109D01*
X163900000Y-102730109D01*
X163900000Y-102769891D01*
X163915224Y-102806645D01*
X163943355Y-102834776D01*
X163980109Y-102850000D01*
X164019891Y-102850000D01*
X164056645Y-102834776D01*
X164084776Y-102806645D01*
X164100000Y-102769891D01*
X164100000Y-102730109D01*
X164084776Y-102693355D01*
X164056645Y-102665224D01*
X164019891Y-102650000D01*
X163980109Y-102650000D01*
X163943355Y-102665224D01*
X163915224Y-102693355D01*
X163900000Y-102730109D01*
X163666337Y-102730109D01*
X163912318Y-102484128D01*
X163973641Y-102450643D01*
X164043333Y-102455627D01*
X164087680Y-102484128D01*
X164680266Y-103076714D01*
X164680267Y-103076713D01*
X164735824Y-102917943D01*
X164754746Y-102750003D01*
X164754746Y-102749996D01*
X164742154Y-102638238D01*
X164754209Y-102569417D01*
X164801558Y-102518037D01*
X164824419Y-102507314D01*
X164901713Y-102480267D01*
X164901714Y-102480266D01*
X164309128Y-101887680D01*
X164275643Y-101826357D01*
X164278950Y-101780109D01*
X164475000Y-101780109D01*
X164475000Y-101819891D01*
X164490224Y-101856645D01*
X164518355Y-101884776D01*
X164555109Y-101900000D01*
X164594891Y-101900000D01*
X164631645Y-101884776D01*
X164659776Y-101856645D01*
X164675000Y-101819891D01*
X164675000Y-101799999D01*
X164928553Y-101799999D01*
X164928553Y-101800001D01*
X165255266Y-102126714D01*
X165255267Y-102126713D01*
X165310824Y-101967943D01*
X165329746Y-101800003D01*
X165329746Y-101799996D01*
X165310824Y-101632056D01*
X165255266Y-101473285D01*
X164928553Y-101799999D01*
X164675000Y-101799999D01*
X164675000Y-101780109D01*
X164659776Y-101743355D01*
X164631645Y-101715224D01*
X164594891Y-101700000D01*
X164555109Y-101700000D01*
X164518355Y-101715224D01*
X164490224Y-101743355D01*
X164475000Y-101780109D01*
X164278950Y-101780109D01*
X164280627Y-101756665D01*
X164309128Y-101712318D01*
X164575000Y-101446447D01*
X164901714Y-101119732D01*
X164824420Y-101092686D01*
X164767644Y-101051964D01*
X164741896Y-100987011D01*
X164742154Y-100961760D01*
X164754746Y-100850002D01*
X164754746Y-100849996D01*
X164735824Y-100682056D01*
X164680266Y-100523285D01*
X164087680Y-101115871D01*
X164026357Y-101149356D01*
X163956665Y-101144372D01*
X163912318Y-101115871D01*
X163626556Y-100830109D01*
X163900000Y-100830109D01*
X163900000Y-100869891D01*
X163915224Y-100906645D01*
X163943355Y-100934776D01*
X163980109Y-100950000D01*
X164019891Y-100950000D01*
X164056645Y-100934776D01*
X164084776Y-100906645D01*
X164100000Y-100869891D01*
X164100000Y-100830109D01*
X164084776Y-100793355D01*
X164056645Y-100765224D01*
X164019891Y-100750000D01*
X163980109Y-100750000D01*
X163943355Y-100765224D01*
X163915224Y-100793355D01*
X163900000Y-100830109D01*
X163626556Y-100830109D01*
X163319732Y-100523285D01*
X163264176Y-100682053D01*
X163264175Y-100682058D01*
X163245254Y-100849996D01*
X163245254Y-100850004D01*
X163257845Y-100961760D01*
X163245790Y-101030582D01*
X163198441Y-101081961D01*
X163175580Y-101092684D01*
X163098285Y-101119730D01*
X152541666Y-101119730D01*
X152531326Y-101014748D01*
X152477290Y-100836615D01*
X152477288Y-100836612D01*
X152477288Y-100836610D01*
X152389541Y-100672447D01*
X152389539Y-100672445D01*
X152271449Y-100528550D01*
X152127554Y-100410460D01*
X152127552Y-100410458D01*
X151963389Y-100322711D01*
X151888510Y-100299997D01*
X158344751Y-100299997D01*
X158344751Y-100300002D01*
X158363685Y-100468056D01*
X158419545Y-100627694D01*
X158419547Y-100627697D01*
X158509518Y-100770884D01*
X158509523Y-100770890D01*
X158629109Y-100890476D01*
X158629115Y-100890481D01*
X158772302Y-100980452D01*
X158772305Y-100980454D01*
X158772309Y-100980455D01*
X158772310Y-100980456D01*
X158844913Y-101005860D01*
X158931943Y-101036314D01*
X159099997Y-101055249D01*
X159100000Y-101055249D01*
X159100003Y-101055249D01*
X159268056Y-101036314D01*
X159284437Y-101030582D01*
X159427690Y-100980456D01*
X159427692Y-100980454D01*
X159427694Y-100980454D01*
X159427697Y-100980452D01*
X159570884Y-100890481D01*
X159570885Y-100890480D01*
X159570890Y-100890477D01*
X159690477Y-100770890D01*
X159746294Y-100682058D01*
X159780452Y-100627697D01*
X159780454Y-100627694D01*
X159780454Y-100627692D01*
X159780456Y-100627690D01*
X159836313Y-100468059D01*
X159836313Y-100468058D01*
X159836314Y-100468056D01*
X159855249Y-100300002D01*
X159855249Y-100299997D01*
X159840572Y-100169732D01*
X163673285Y-100169732D01*
X164000000Y-100496447D01*
X164000001Y-100496447D01*
X164326714Y-100169732D01*
X164167943Y-100114176D01*
X164167938Y-100114175D01*
X164000004Y-100095254D01*
X163999996Y-100095254D01*
X163832058Y-100114175D01*
X163832053Y-100114176D01*
X163673285Y-100169732D01*
X159840572Y-100169732D01*
X159836314Y-100131943D01*
X159783306Y-99980456D01*
X159780456Y-99972310D01*
X159780455Y-99972309D01*
X159780454Y-99972305D01*
X159780452Y-99972302D01*
X159690481Y-99829115D01*
X159690476Y-99829109D01*
X159570890Y-99709523D01*
X159570884Y-99709518D01*
X159427697Y-99619547D01*
X159427694Y-99619545D01*
X159268056Y-99563685D01*
X159100003Y-99544751D01*
X159099997Y-99544751D01*
X158931943Y-99563685D01*
X158772305Y-99619545D01*
X158772302Y-99619547D01*
X158629115Y-99709518D01*
X158629109Y-99709523D01*
X158509523Y-99829109D01*
X158509518Y-99829115D01*
X158419547Y-99972302D01*
X158419545Y-99972305D01*
X158363685Y-100131943D01*
X158344751Y-100299997D01*
X151888510Y-100299997D01*
X151874318Y-100295692D01*
X151785252Y-100268674D01*
X151785250Y-100268673D01*
X151785252Y-100268673D01*
X151600000Y-100250428D01*
X151414749Y-100268673D01*
X151236610Y-100322711D01*
X151072447Y-100410458D01*
X151072445Y-100410460D01*
X150928550Y-100528550D01*
X150810460Y-100672445D01*
X150810458Y-100672447D01*
X150722711Y-100836610D01*
X150668673Y-101014749D01*
X150650428Y-101200000D01*
X130300500Y-101200000D01*
X130300500Y-100251660D01*
X147796892Y-100251660D01*
X147796892Y-100251661D01*
X147810692Y-100260333D01*
X147810691Y-100260333D01*
X147980861Y-100319878D01*
X148159997Y-100340062D01*
X148160003Y-100340062D01*
X148339138Y-100319878D01*
X148339141Y-100319877D01*
X148509305Y-100260334D01*
X148509306Y-100260334D01*
X148523106Y-100251661D01*
X148523106Y-100251660D01*
X149076892Y-100251660D01*
X149076892Y-100251661D01*
X149090692Y-100260333D01*
X149090691Y-100260333D01*
X149260861Y-100319878D01*
X149439997Y-100340062D01*
X149440003Y-100340062D01*
X149619138Y-100319878D01*
X149619141Y-100319877D01*
X149789305Y-100260334D01*
X149789306Y-100260334D01*
X149803106Y-100251661D01*
X149803106Y-100251660D01*
X149440001Y-99888553D01*
X149440000Y-99888553D01*
X149076892Y-100251660D01*
X148523106Y-100251660D01*
X148160001Y-99888553D01*
X148160000Y-99888553D01*
X147796892Y-100251660D01*
X130300500Y-100251660D01*
X130300500Y-99299997D01*
X133944751Y-99299997D01*
X133944751Y-99300002D01*
X133963685Y-99468056D01*
X134019545Y-99627694D01*
X134019547Y-99627697D01*
X134109518Y-99770884D01*
X134109523Y-99770890D01*
X134229109Y-99890476D01*
X134229115Y-99890481D01*
X134372302Y-99980452D01*
X134372305Y-99980454D01*
X134372309Y-99980455D01*
X134372310Y-99980456D01*
X134444913Y-100005860D01*
X134531943Y-100036314D01*
X134699997Y-100055249D01*
X134700000Y-100055249D01*
X134700003Y-100055249D01*
X134868056Y-100036314D01*
X134868059Y-100036313D01*
X135027690Y-99980456D01*
X135027692Y-99980454D01*
X135027694Y-99980454D01*
X135027697Y-99980452D01*
X135170884Y-99890481D01*
X135170885Y-99890480D01*
X135170890Y-99890477D01*
X135290477Y-99770890D01*
X135344530Y-99684866D01*
X135380452Y-99627697D01*
X135380454Y-99627694D01*
X135380454Y-99627692D01*
X135380456Y-99627690D01*
X135436313Y-99468059D01*
X135436313Y-99468058D01*
X135436314Y-99468056D01*
X135455249Y-99300002D01*
X135455249Y-99299997D01*
X135436314Y-99131943D01*
X135425136Y-99099997D01*
X145944751Y-99099997D01*
X145944751Y-99100002D01*
X145963685Y-99268056D01*
X146019545Y-99427694D01*
X146019547Y-99427697D01*
X146109518Y-99570884D01*
X146109523Y-99570890D01*
X146229109Y-99690476D01*
X146229115Y-99690481D01*
X146372302Y-99780452D01*
X146372305Y-99780454D01*
X146372309Y-99780455D01*
X146372310Y-99780456D01*
X146444913Y-99805860D01*
X146531943Y-99836314D01*
X146699997Y-99855249D01*
X146700000Y-99855249D01*
X146700003Y-99855249D01*
X146868056Y-99836314D01*
X146868059Y-99836313D01*
X147027690Y-99780456D01*
X147027692Y-99780454D01*
X147027694Y-99780454D01*
X147027697Y-99780452D01*
X147170884Y-99690481D01*
X147170884Y-99690480D01*
X147170890Y-99690477D01*
X147176502Y-99684864D01*
X147237821Y-99651378D01*
X147307513Y-99656359D01*
X147363449Y-99698228D01*
X147381226Y-99731588D01*
X147434663Y-99884300D01*
X147434663Y-99884301D01*
X147443338Y-99898107D01*
X147806446Y-99535000D01*
X147776609Y-99505163D01*
X148010000Y-99505163D01*
X148010000Y-99564837D01*
X148032836Y-99619968D01*
X148075032Y-99662164D01*
X148130163Y-99685000D01*
X148189837Y-99685000D01*
X148244968Y-99662164D01*
X148287164Y-99619968D01*
X148310000Y-99564837D01*
X148310000Y-99535000D01*
X148513553Y-99535000D01*
X148800000Y-99821446D01*
X148800001Y-99821446D01*
X149086446Y-99535001D01*
X149086446Y-99534999D01*
X149056610Y-99505163D01*
X149290000Y-99505163D01*
X149290000Y-99564837D01*
X149312836Y-99619968D01*
X149355032Y-99662164D01*
X149410163Y-99685000D01*
X149469837Y-99685000D01*
X149524968Y-99662164D01*
X149567164Y-99619968D01*
X149590000Y-99564837D01*
X149590000Y-99534999D01*
X149793553Y-99534999D01*
X149793553Y-99535000D01*
X150156660Y-99898106D01*
X150156661Y-99898106D01*
X150165334Y-99884306D01*
X150165334Y-99884305D01*
X150224877Y-99714141D01*
X150224878Y-99714138D01*
X150245062Y-99535002D01*
X150245062Y-99534997D01*
X150224878Y-99355861D01*
X150165333Y-99185692D01*
X150156660Y-99171891D01*
X149793553Y-99534999D01*
X149590000Y-99534999D01*
X149590000Y-99505163D01*
X149567164Y-99450032D01*
X149524968Y-99407836D01*
X149469837Y-99385000D01*
X149410163Y-99385000D01*
X149355032Y-99407836D01*
X149312836Y-99450032D01*
X149290000Y-99505163D01*
X149056610Y-99505163D01*
X148800001Y-99248553D01*
X148800000Y-99248553D01*
X148513553Y-99535000D01*
X148310000Y-99535000D01*
X148310000Y-99505163D01*
X148287164Y-99450032D01*
X148244968Y-99407836D01*
X148189837Y-99385000D01*
X148130163Y-99385000D01*
X148075032Y-99407836D01*
X148032836Y-99450032D01*
X148010000Y-99505163D01*
X147776609Y-99505163D01*
X147488987Y-99217541D01*
X147455502Y-99156218D01*
X147453448Y-99115979D01*
X147455249Y-99100000D01*
X147449615Y-99049999D01*
X148028553Y-99049999D01*
X148160000Y-99181446D01*
X148291446Y-99050001D01*
X148291446Y-99050000D01*
X148291445Y-99049999D01*
X149308553Y-99049999D01*
X149440000Y-99181446D01*
X149571446Y-99050001D01*
X149571446Y-99050000D01*
X149440000Y-98918553D01*
X149308553Y-99049999D01*
X148291445Y-99049999D01*
X148160000Y-98918553D01*
X148028553Y-99049999D01*
X147449615Y-99049999D01*
X147443322Y-98994148D01*
X147455376Y-98925327D01*
X147478861Y-98892584D01*
X147806446Y-98565000D01*
X147806446Y-98564999D01*
X147776610Y-98535163D01*
X148010000Y-98535163D01*
X148010000Y-98594837D01*
X148032836Y-98649968D01*
X148075032Y-98692164D01*
X148130163Y-98715000D01*
X148189837Y-98715000D01*
X148244968Y-98692164D01*
X148287164Y-98649968D01*
X148310000Y-98594837D01*
X148310000Y-98565000D01*
X148513553Y-98565000D01*
X148800000Y-98851446D01*
X148800001Y-98851446D01*
X149086446Y-98565001D01*
X149086446Y-98564999D01*
X149056610Y-98535163D01*
X149290000Y-98535163D01*
X149290000Y-98594837D01*
X149312836Y-98649968D01*
X149355032Y-98692164D01*
X149410163Y-98715000D01*
X149469837Y-98715000D01*
X149524968Y-98692164D01*
X149567164Y-98649968D01*
X149590000Y-98594837D01*
X149590000Y-98565000D01*
X149793552Y-98565000D01*
X150156661Y-98928107D01*
X150165334Y-98914306D01*
X150165334Y-98914305D01*
X150224877Y-98744141D01*
X150224878Y-98744138D01*
X150229852Y-98699997D01*
X161344751Y-98699997D01*
X161344751Y-98700002D01*
X161363685Y-98868056D01*
X161419545Y-99027694D01*
X161419547Y-99027697D01*
X161509518Y-99170884D01*
X161509523Y-99170890D01*
X161629109Y-99290476D01*
X161629115Y-99290481D01*
X161772302Y-99380452D01*
X161772305Y-99380454D01*
X161772309Y-99380455D01*
X161772310Y-99380456D01*
X161844913Y-99405860D01*
X161931943Y-99436314D01*
X162099997Y-99455249D01*
X162100000Y-99455249D01*
X162100003Y-99455249D01*
X162268056Y-99436314D01*
X162292682Y-99427697D01*
X162427690Y-99380456D01*
X162427692Y-99380454D01*
X162427694Y-99380454D01*
X162427697Y-99380452D01*
X162570884Y-99290481D01*
X162570885Y-99290480D01*
X162570890Y-99290477D01*
X162690477Y-99170890D01*
X162714949Y-99131943D01*
X162780452Y-99027697D01*
X162780454Y-99027694D01*
X162780454Y-99027692D01*
X162780456Y-99027690D01*
X162836313Y-98868059D01*
X162836313Y-98868058D01*
X162836314Y-98868056D01*
X162855249Y-98700002D01*
X162855249Y-98699997D01*
X162836314Y-98531943D01*
X162795394Y-98415000D01*
X162780456Y-98372310D01*
X162780455Y-98372309D01*
X162780454Y-98372305D01*
X162780452Y-98372302D01*
X162690481Y-98229115D01*
X162690476Y-98229109D01*
X162570890Y-98109523D01*
X162570884Y-98109518D01*
X162427697Y-98019547D01*
X162427694Y-98019545D01*
X162268056Y-97963685D01*
X162100003Y-97944751D01*
X162099997Y-97944751D01*
X161931943Y-97963685D01*
X161772305Y-98019545D01*
X161772302Y-98019547D01*
X161629115Y-98109518D01*
X161629109Y-98109523D01*
X161509523Y-98229109D01*
X161509518Y-98229115D01*
X161419547Y-98372302D01*
X161419545Y-98372305D01*
X161363685Y-98531943D01*
X161344751Y-98699997D01*
X150229852Y-98699997D01*
X150245062Y-98565002D01*
X150245062Y-98564997D01*
X150224878Y-98385861D01*
X150165333Y-98215692D01*
X150156661Y-98201892D01*
X150156660Y-98201892D01*
X149793552Y-98565000D01*
X149590000Y-98565000D01*
X149590000Y-98535163D01*
X149567164Y-98480032D01*
X149524968Y-98437836D01*
X149469837Y-98415000D01*
X149410163Y-98415000D01*
X149355032Y-98437836D01*
X149312836Y-98480032D01*
X149290000Y-98535163D01*
X149056610Y-98535163D01*
X148800001Y-98278553D01*
X148800000Y-98278553D01*
X148513553Y-98565000D01*
X148310000Y-98565000D01*
X148310000Y-98535163D01*
X148287164Y-98480032D01*
X148244968Y-98437836D01*
X148189837Y-98415000D01*
X148130163Y-98415000D01*
X148075032Y-98437836D01*
X148032836Y-98480032D01*
X148010000Y-98535163D01*
X147776610Y-98535163D01*
X147443338Y-98201891D01*
X147443337Y-98201891D01*
X147434667Y-98215691D01*
X147434662Y-98215701D01*
X147375122Y-98385858D01*
X147375121Y-98385861D01*
X147370619Y-98425820D01*
X147343551Y-98490234D01*
X147285956Y-98529788D01*
X147216119Y-98531925D01*
X147177259Y-98512473D01*
X147176786Y-98513227D01*
X147027697Y-98419547D01*
X147027694Y-98419545D01*
X146868056Y-98363685D01*
X146700003Y-98344751D01*
X146699997Y-98344751D01*
X146531943Y-98363685D01*
X146372305Y-98419545D01*
X146372302Y-98419547D01*
X146229115Y-98509518D01*
X146229109Y-98509523D01*
X146109523Y-98629109D01*
X146109518Y-98629115D01*
X146019547Y-98772302D01*
X146019545Y-98772305D01*
X145963685Y-98931943D01*
X145944751Y-99099997D01*
X135425136Y-99099997D01*
X135380454Y-98972305D01*
X135380452Y-98972302D01*
X135290481Y-98829115D01*
X135290476Y-98829109D01*
X135170890Y-98709523D01*
X135170884Y-98709518D01*
X135027697Y-98619547D01*
X135027694Y-98619545D01*
X134868056Y-98563685D01*
X134700003Y-98544751D01*
X134699997Y-98544751D01*
X134531943Y-98563685D01*
X134372305Y-98619545D01*
X134372302Y-98619547D01*
X134229115Y-98709518D01*
X134229109Y-98709523D01*
X134109523Y-98829109D01*
X134109518Y-98829115D01*
X134019547Y-98972302D01*
X134019545Y-98972305D01*
X133963685Y-99131943D01*
X133944751Y-99299997D01*
X130300500Y-99299997D01*
X130300500Y-97848337D01*
X147796891Y-97848337D01*
X147796891Y-97848338D01*
X148160000Y-98211446D01*
X148160001Y-98211446D01*
X148523107Y-97848338D01*
X148523105Y-97848337D01*
X149076891Y-97848337D01*
X149076891Y-97848338D01*
X149440000Y-98211446D01*
X149440001Y-98211446D01*
X149803107Y-97848338D01*
X149789304Y-97839665D01*
X149619138Y-97780121D01*
X149440003Y-97759938D01*
X149439997Y-97759938D01*
X149260861Y-97780121D01*
X149260858Y-97780122D01*
X149090701Y-97839662D01*
X149090691Y-97839667D01*
X149076891Y-97848337D01*
X148523105Y-97848337D01*
X148509304Y-97839665D01*
X148339138Y-97780121D01*
X148160003Y-97759938D01*
X148159997Y-97759938D01*
X147980861Y-97780121D01*
X147980858Y-97780122D01*
X147810701Y-97839662D01*
X147810691Y-97839667D01*
X147796891Y-97848337D01*
X130300500Y-97848337D01*
X130300500Y-96599997D01*
X156294751Y-96599997D01*
X156294751Y-96600002D01*
X156313685Y-96768056D01*
X156369545Y-96927694D01*
X156369547Y-96927697D01*
X156459518Y-97070884D01*
X156459523Y-97070890D01*
X156579109Y-97190476D01*
X156579115Y-97190481D01*
X156722302Y-97280452D01*
X156722305Y-97280454D01*
X156722309Y-97280455D01*
X156722310Y-97280456D01*
X156794913Y-97305860D01*
X156881943Y-97336314D01*
X157049997Y-97355249D01*
X157050000Y-97355249D01*
X157050003Y-97355249D01*
X157218056Y-97336314D01*
X157218059Y-97336313D01*
X157377690Y-97280456D01*
X157377692Y-97280454D01*
X157377694Y-97280454D01*
X157377697Y-97280452D01*
X157520884Y-97190481D01*
X157520885Y-97190480D01*
X157520890Y-97190477D01*
X157640477Y-97070890D01*
X157730452Y-96927697D01*
X157730454Y-96927694D01*
X157730454Y-96927692D01*
X157730456Y-96927690D01*
X157786313Y-96768059D01*
X157786313Y-96768058D01*
X157786314Y-96768056D01*
X157805249Y-96600002D01*
X157805249Y-96599997D01*
X157786314Y-96431943D01*
X157730454Y-96272305D01*
X157730452Y-96272302D01*
X157640481Y-96129115D01*
X157640476Y-96129109D01*
X157520890Y-96009523D01*
X157520884Y-96009518D01*
X157377697Y-95919547D01*
X157377694Y-95919545D01*
X157321838Y-95900000D01*
X164350428Y-95900000D01*
X164368673Y-96085250D01*
X164422711Y-96263389D01*
X164510458Y-96427552D01*
X164510460Y-96427554D01*
X164628550Y-96571449D01*
X164772445Y-96689539D01*
X164772447Y-96689541D01*
X164936610Y-96777288D01*
X164936612Y-96777288D01*
X164936615Y-96777290D01*
X165114748Y-96831326D01*
X165114747Y-96831326D01*
X165131357Y-96832961D01*
X165300000Y-96849572D01*
X165485252Y-96831326D01*
X165663385Y-96777290D01*
X165743573Y-96734429D01*
X165827552Y-96689541D01*
X165827551Y-96689541D01*
X165827554Y-96689540D01*
X165971449Y-96571449D01*
X166089540Y-96427554D01*
X166133703Y-96344931D01*
X166177288Y-96263389D01*
X166177288Y-96263388D01*
X166177290Y-96263385D01*
X166231326Y-96085252D01*
X166249572Y-95900000D01*
X166231326Y-95714748D01*
X166177290Y-95536615D01*
X166177288Y-95536612D01*
X166177288Y-95536610D01*
X166089541Y-95372447D01*
X166089539Y-95372445D01*
X165971449Y-95228550D01*
X165827554Y-95110460D01*
X165827552Y-95110458D01*
X165663389Y-95022711D01*
X165574318Y-94995692D01*
X165485252Y-94968674D01*
X165485250Y-94968673D01*
X165485252Y-94968673D01*
X165300000Y-94950428D01*
X165114749Y-94968673D01*
X164936610Y-95022711D01*
X164772447Y-95110458D01*
X164772445Y-95110460D01*
X164628550Y-95228550D01*
X164510460Y-95372445D01*
X164510458Y-95372447D01*
X164422711Y-95536610D01*
X164368673Y-95714749D01*
X164350428Y-95900000D01*
X157321838Y-95900000D01*
X157218056Y-95863685D01*
X157050003Y-95844751D01*
X157049997Y-95844751D01*
X156881943Y-95863685D01*
X156722305Y-95919545D01*
X156722302Y-95919547D01*
X156579115Y-96009518D01*
X156579109Y-96009523D01*
X156459523Y-96129109D01*
X156459518Y-96129115D01*
X156369547Y-96272302D01*
X156369545Y-96272305D01*
X156313685Y-96431943D01*
X156294751Y-96599997D01*
X130300500Y-96599997D01*
X130300500Y-93000000D01*
X156250428Y-93000000D01*
X156268673Y-93185250D01*
X156322711Y-93363389D01*
X156410458Y-93527552D01*
X156410460Y-93527554D01*
X156528550Y-93671449D01*
X156672445Y-93789539D01*
X156672447Y-93789541D01*
X156836610Y-93877288D01*
X156836612Y-93877288D01*
X156836615Y-93877290D01*
X157014748Y-93931326D01*
X157014747Y-93931326D01*
X157031357Y-93932961D01*
X157200000Y-93949572D01*
X157385252Y-93931326D01*
X157563385Y-93877290D01*
X157727554Y-93789540D01*
X157871449Y-93671449D01*
X157989540Y-93527554D01*
X158077290Y-93363385D01*
X158131326Y-93185252D01*
X158149572Y-93000000D01*
X158131326Y-92814748D01*
X158077290Y-92636615D01*
X158077288Y-92636612D01*
X158077288Y-92636610D01*
X157989541Y-92472447D01*
X157989539Y-92472445D01*
X157871449Y-92328550D01*
X157727554Y-92210460D01*
X157727552Y-92210458D01*
X157563389Y-92122711D01*
X157474318Y-92095692D01*
X157385252Y-92068674D01*
X157385250Y-92068673D01*
X157385252Y-92068673D01*
X157200000Y-92050428D01*
X157014749Y-92068673D01*
X156836610Y-92122711D01*
X156672447Y-92210458D01*
X156672445Y-92210460D01*
X156528550Y-92328550D01*
X156410460Y-92472445D01*
X156410458Y-92472447D01*
X156322711Y-92636610D01*
X156268673Y-92814749D01*
X156250428Y-93000000D01*
X130300500Y-93000000D01*
X130300500Y-90900000D01*
X147350428Y-90900000D01*
X147368673Y-91085250D01*
X147422711Y-91263389D01*
X147510458Y-91427552D01*
X147510460Y-91427554D01*
X147628550Y-91571449D01*
X147772445Y-91689539D01*
X147772447Y-91689541D01*
X147936610Y-91777288D01*
X147936612Y-91777288D01*
X147936615Y-91777290D01*
X148114748Y-91831326D01*
X148114747Y-91831326D01*
X148131357Y-91832961D01*
X148300000Y-91849572D01*
X148485252Y-91831326D01*
X148663385Y-91777290D01*
X148827554Y-91689540D01*
X148936663Y-91599997D01*
X152744751Y-91599997D01*
X152744751Y-91600002D01*
X152763685Y-91768056D01*
X152819545Y-91927694D01*
X152819547Y-91927697D01*
X152909518Y-92070884D01*
X152909523Y-92070890D01*
X153029109Y-92190476D01*
X153029115Y-92190481D01*
X153172302Y-92280452D01*
X153172305Y-92280454D01*
X153172309Y-92280455D01*
X153172310Y-92280456D01*
X153244913Y-92305860D01*
X153331943Y-92336314D01*
X153499997Y-92355249D01*
X153500000Y-92355249D01*
X153500003Y-92355249D01*
X153668056Y-92336314D01*
X153685469Y-92330221D01*
X153827690Y-92280456D01*
X153827692Y-92280454D01*
X153827694Y-92280454D01*
X153827697Y-92280452D01*
X153970884Y-92190481D01*
X153970885Y-92190480D01*
X153970890Y-92190477D01*
X154083526Y-92077841D01*
X154144849Y-92044356D01*
X154185091Y-92042302D01*
X154299997Y-92055249D01*
X154300000Y-92055249D01*
X154300003Y-92055249D01*
X154468056Y-92036314D01*
X154484240Y-92030651D01*
X154627690Y-91980456D01*
X154627692Y-91980454D01*
X154627694Y-91980454D01*
X154627697Y-91980452D01*
X154770884Y-91890481D01*
X154770885Y-91890480D01*
X154770890Y-91890477D01*
X154890477Y-91770890D01*
X154892258Y-91768056D01*
X154935021Y-91700000D01*
X168051954Y-91700000D01*
X168070486Y-91876320D01*
X168070487Y-91876322D01*
X168125271Y-92044933D01*
X168125272Y-92044934D01*
X168170177Y-92122711D01*
X168213916Y-92198469D01*
X168224713Y-92210460D01*
X168332543Y-92330219D01*
X168332546Y-92330221D01*
X168475977Y-92434429D01*
X168637933Y-92506538D01*
X168637936Y-92506538D01*
X168637939Y-92506540D01*
X168811355Y-92543400D01*
X168988645Y-92543400D01*
X169162061Y-92506540D01*
X169162064Y-92506538D01*
X169162066Y-92506538D01*
X169238636Y-92472446D01*
X169324023Y-92434429D01*
X169467454Y-92330221D01*
X169586084Y-92198469D01*
X169674729Y-92044931D01*
X169729514Y-91876319D01*
X169748046Y-91700000D01*
X169729514Y-91523681D01*
X169674729Y-91355069D01*
X169674728Y-91355068D01*
X169674728Y-91355066D01*
X169674727Y-91355065D01*
X169626945Y-91272305D01*
X169586084Y-91201531D01*
X169523425Y-91131941D01*
X169467456Y-91069780D01*
X169384511Y-91009518D01*
X169324023Y-90965571D01*
X169324021Y-90965570D01*
X169324022Y-90965570D01*
X169162066Y-90893461D01*
X169162058Y-90893459D01*
X168988645Y-90856600D01*
X168811355Y-90856600D01*
X168637941Y-90893459D01*
X168637933Y-90893461D01*
X168475978Y-90965570D01*
X168332543Y-91069780D01*
X168213915Y-91201532D01*
X168125272Y-91355065D01*
X168125271Y-91355066D01*
X168070487Y-91523677D01*
X168070486Y-91523679D01*
X168051954Y-91700000D01*
X154935021Y-91700000D01*
X154980452Y-91627697D01*
X154980454Y-91627694D01*
X154980454Y-91627692D01*
X154980456Y-91627690D01*
X155036313Y-91468059D01*
X155036313Y-91468058D01*
X155036314Y-91468056D01*
X155055249Y-91300002D01*
X155055249Y-91299997D01*
X155036314Y-91131943D01*
X154993477Y-91009523D01*
X154980456Y-90972310D01*
X154980455Y-90972309D01*
X154980454Y-90972305D01*
X154980452Y-90972302D01*
X154890481Y-90829115D01*
X154890476Y-90829109D01*
X154860178Y-90798811D01*
X171790100Y-90798811D01*
X171819996Y-90884246D01*
X171909915Y-91027351D01*
X172029424Y-91146860D01*
X172172526Y-91236778D01*
X172249999Y-91263886D01*
X172250000Y-91263886D01*
X172250000Y-90806776D01*
X172750000Y-90806776D01*
X172750000Y-91263886D01*
X172827473Y-91236778D01*
X172970575Y-91146860D01*
X173090084Y-91027351D01*
X173180003Y-90884248D01*
X173180003Y-90884247D01*
X173209115Y-90801045D01*
X173182776Y-90806776D01*
X172750000Y-90806776D01*
X172250000Y-90806776D01*
X171817224Y-90806776D01*
X171790100Y-90798811D01*
X154860178Y-90798811D01*
X154771264Y-90709897D01*
X173298812Y-90709897D01*
X173384247Y-90680003D01*
X173384248Y-90680003D01*
X173527351Y-90590084D01*
X173646860Y-90470575D01*
X173736779Y-90327469D01*
X173763887Y-90250000D01*
X173306776Y-90250000D01*
X173306776Y-90682776D01*
X173298812Y-90709897D01*
X154771264Y-90709897D01*
X154770890Y-90709523D01*
X154770885Y-90709519D01*
X154769231Y-90708480D01*
X154768390Y-90707530D01*
X154765444Y-90705180D01*
X154765855Y-90704663D01*
X154722942Y-90656144D01*
X154711987Y-90589604D01*
X154715316Y-90560067D01*
X154708563Y-90500131D01*
X154696381Y-90392010D01*
X154653230Y-90268693D01*
X154646689Y-90250000D01*
X171236112Y-90250000D01*
X171263220Y-90327469D01*
X171353139Y-90470575D01*
X171472648Y-90590084D01*
X171615751Y-90680003D01*
X171698954Y-90709115D01*
X171693224Y-90682776D01*
X171693224Y-90536885D01*
X172400000Y-90536885D01*
X172400000Y-90576667D01*
X172415224Y-90613421D01*
X172443355Y-90641552D01*
X172480109Y-90656776D01*
X172519891Y-90656776D01*
X172556645Y-90641552D01*
X172584776Y-90613421D01*
X172600000Y-90576667D01*
X172600000Y-90536885D01*
X172584776Y-90500131D01*
X172556645Y-90472000D01*
X172519891Y-90456776D01*
X172480109Y-90456776D01*
X172443355Y-90472000D01*
X172415224Y-90500131D01*
X172400000Y-90536885D01*
X171693224Y-90536885D01*
X171693224Y-90306776D01*
X172193224Y-90306776D01*
X172250000Y-90306776D01*
X172750000Y-90306776D01*
X172806776Y-90306776D01*
X172806776Y-90250000D01*
X172750000Y-90250000D01*
X172750000Y-90306776D01*
X172250000Y-90306776D01*
X172250000Y-90250000D01*
X172193224Y-90250000D01*
X172193224Y-90306776D01*
X171693224Y-90306776D01*
X171693224Y-90250000D01*
X171236112Y-90250000D01*
X154646689Y-90250000D01*
X154640523Y-90232377D01*
X154640522Y-90232376D01*
X154640521Y-90232372D01*
X154640519Y-90232369D01*
X154550548Y-90089182D01*
X154550543Y-90089176D01*
X154441476Y-89980109D01*
X171843224Y-89980109D01*
X171843224Y-90019891D01*
X171858448Y-90056645D01*
X171886579Y-90084776D01*
X171923333Y-90100000D01*
X171963115Y-90100000D01*
X171999869Y-90084776D01*
X172028000Y-90056645D01*
X172043224Y-90019891D01*
X172043224Y-89980109D01*
X172956776Y-89980109D01*
X172956776Y-90019891D01*
X172972000Y-90056645D01*
X173000131Y-90084776D01*
X173036885Y-90100000D01*
X173076667Y-90100000D01*
X173113421Y-90084776D01*
X173141552Y-90056645D01*
X173156776Y-90019891D01*
X173156776Y-89980109D01*
X173141552Y-89943355D01*
X173113421Y-89915224D01*
X173076667Y-89900000D01*
X173036885Y-89900000D01*
X173000131Y-89915224D01*
X172972000Y-89943355D01*
X172956776Y-89980109D01*
X172043224Y-89980109D01*
X172028000Y-89943355D01*
X171999869Y-89915224D01*
X171963115Y-89900000D01*
X171923333Y-89900000D01*
X171886579Y-89915224D01*
X171858448Y-89943355D01*
X171843224Y-89980109D01*
X154441476Y-89980109D01*
X154430957Y-89969590D01*
X154430951Y-89969585D01*
X154287764Y-89879614D01*
X154287761Y-89879612D01*
X154128123Y-89823752D01*
X153960070Y-89804818D01*
X153960064Y-89804818D01*
X153792010Y-89823752D01*
X153632372Y-89879612D01*
X153632369Y-89879614D01*
X153489182Y-89969585D01*
X153489176Y-89969590D01*
X153369590Y-90089176D01*
X153369585Y-90089182D01*
X153279614Y-90232369D01*
X153279612Y-90232372D01*
X153223752Y-90392010D01*
X153204818Y-90560064D01*
X153204818Y-90560069D01*
X153223752Y-90728121D01*
X153223755Y-90728131D01*
X153237056Y-90766146D01*
X153240617Y-90835925D01*
X153205887Y-90896551D01*
X153178176Y-90915791D01*
X153178206Y-90915838D01*
X153177185Y-90916479D01*
X153173820Y-90918816D01*
X153172306Y-90919544D01*
X153029115Y-91009518D01*
X153029109Y-91009523D01*
X152909523Y-91129109D01*
X152909518Y-91129115D01*
X152819547Y-91272302D01*
X152819545Y-91272305D01*
X152763685Y-91431943D01*
X152744751Y-91599997D01*
X148936663Y-91599997D01*
X148971449Y-91571449D01*
X149089540Y-91427554D01*
X149157721Y-91299997D01*
X149177288Y-91263389D01*
X149177288Y-91263388D01*
X149177290Y-91263385D01*
X149231326Y-91085252D01*
X149249572Y-90900000D01*
X149231326Y-90714748D01*
X149177290Y-90536615D01*
X149177288Y-90536612D01*
X149177288Y-90536610D01*
X149089541Y-90372447D01*
X149089539Y-90372445D01*
X148971449Y-90228550D01*
X148827554Y-90110460D01*
X148827552Y-90110458D01*
X148663389Y-90022711D01*
X148522948Y-89980109D01*
X148485252Y-89968674D01*
X148485250Y-89968673D01*
X148485252Y-89968673D01*
X148300000Y-89950428D01*
X148114749Y-89968673D01*
X147936610Y-90022711D01*
X147772447Y-90110458D01*
X147772445Y-90110460D01*
X147628550Y-90228550D01*
X147510460Y-90372445D01*
X147510458Y-90372447D01*
X147422711Y-90536610D01*
X147368673Y-90714749D01*
X147350428Y-90900000D01*
X130300500Y-90900000D01*
X130300500Y-89749999D01*
X171236112Y-89749999D01*
X171236112Y-89750000D01*
X171693224Y-89750000D01*
X172193224Y-89750000D01*
X172250000Y-89750000D01*
X172750000Y-89750000D01*
X172806776Y-89750000D01*
X172806776Y-89693224D01*
X172750000Y-89693224D01*
X172750000Y-89750000D01*
X172250000Y-89750000D01*
X172250000Y-89693224D01*
X172193224Y-89693224D01*
X172193224Y-89750000D01*
X171693224Y-89750000D01*
X171693224Y-89423333D01*
X172400000Y-89423333D01*
X172400000Y-89463115D01*
X172415224Y-89499869D01*
X172443355Y-89528000D01*
X172480109Y-89543224D01*
X172519891Y-89543224D01*
X172556645Y-89528000D01*
X172584776Y-89499869D01*
X172600000Y-89463115D01*
X172600000Y-89423333D01*
X172584776Y-89386579D01*
X172556645Y-89358448D01*
X172519891Y-89343224D01*
X172480109Y-89343224D01*
X172443355Y-89358448D01*
X172415224Y-89386579D01*
X172400000Y-89423333D01*
X171693224Y-89423333D01*
X171693224Y-89317224D01*
X171700958Y-89290882D01*
X173301045Y-89290882D01*
X173306776Y-89317224D01*
X173306776Y-89750000D01*
X173763888Y-89750000D01*
X173763887Y-89749999D01*
X173736779Y-89672530D01*
X173646860Y-89529424D01*
X173527351Y-89409915D01*
X173384246Y-89319996D01*
X173301045Y-89290882D01*
X171700958Y-89290882D01*
X171701188Y-89290100D01*
X171615754Y-89319996D01*
X171472648Y-89409915D01*
X171353139Y-89529424D01*
X171263220Y-89672530D01*
X171236112Y-89749999D01*
X130300500Y-89749999D01*
X130300500Y-87424000D01*
X130320185Y-87356961D01*
X130372989Y-87311206D01*
X130424500Y-87300000D01*
X135800000Y-87300000D01*
X135800000Y-87102135D01*
X142474500Y-87102135D01*
X142474500Y-88897870D01*
X142474501Y-88897876D01*
X142480908Y-88957483D01*
X142531202Y-89092328D01*
X142531206Y-89092335D01*
X142617452Y-89207544D01*
X142617455Y-89207547D01*
X142732664Y-89293793D01*
X142732671Y-89293797D01*
X142867517Y-89344091D01*
X142867516Y-89344091D01*
X142874444Y-89344835D01*
X142927127Y-89350500D01*
X144722872Y-89350499D01*
X144782483Y-89344091D01*
X144917331Y-89293796D01*
X145032546Y-89207546D01*
X145118796Y-89092331D01*
X145167810Y-88960916D01*
X145209681Y-88904984D01*
X145275145Y-88880566D01*
X145343418Y-88895417D01*
X145371673Y-88916569D01*
X145493599Y-89038495D01*
X145590384Y-89106265D01*
X145687165Y-89174032D01*
X145687167Y-89174033D01*
X145687170Y-89174035D01*
X145901337Y-89273903D01*
X146129592Y-89335063D01*
X146306034Y-89350500D01*
X146364999Y-89355659D01*
X146365000Y-89355659D01*
X146365001Y-89355659D01*
X146423966Y-89350500D01*
X146600408Y-89335063D01*
X146828663Y-89273903D01*
X147042830Y-89174035D01*
X147236401Y-89038495D01*
X147403495Y-88871401D01*
X147539035Y-88677830D01*
X147575329Y-88599997D01*
X168544751Y-88599997D01*
X168544751Y-88600002D01*
X168563685Y-88768056D01*
X168619545Y-88927694D01*
X168619547Y-88927697D01*
X168709518Y-89070884D01*
X168709523Y-89070890D01*
X168829109Y-89190476D01*
X168829115Y-89190481D01*
X168972302Y-89280452D01*
X168972305Y-89280454D01*
X168972309Y-89280455D01*
X168972310Y-89280456D01*
X169010434Y-89293796D01*
X169131943Y-89336314D01*
X169299997Y-89355249D01*
X169300000Y-89355249D01*
X169300003Y-89355249D01*
X169468056Y-89336314D01*
X169471637Y-89335061D01*
X169627690Y-89280456D01*
X169627692Y-89280454D01*
X169627694Y-89280454D01*
X169627697Y-89280452D01*
X169757399Y-89198954D01*
X171790882Y-89198954D01*
X171817224Y-89193224D01*
X172250000Y-89193224D01*
X172750000Y-89193224D01*
X173182776Y-89193224D01*
X173209897Y-89201187D01*
X173180003Y-89115752D01*
X173180003Y-89115751D01*
X173090084Y-88972648D01*
X172970575Y-88853139D01*
X172827469Y-88763220D01*
X172750000Y-88736112D01*
X172750000Y-89193224D01*
X172250000Y-89193224D01*
X172250000Y-88736112D01*
X172249999Y-88736112D01*
X172172530Y-88763220D01*
X172029424Y-88853139D01*
X171909915Y-88972648D01*
X171819996Y-89115754D01*
X171790882Y-89198954D01*
X169757399Y-89198954D01*
X169770884Y-89190481D01*
X169770885Y-89190480D01*
X169770890Y-89190477D01*
X169890477Y-89070890D01*
X169890481Y-89070884D01*
X169980452Y-88927697D01*
X169980454Y-88927694D01*
X169980454Y-88927692D01*
X169980456Y-88927690D01*
X170036313Y-88768059D01*
X170036313Y-88768058D01*
X170036314Y-88768056D01*
X170055249Y-88600002D01*
X170055249Y-88599997D01*
X170036314Y-88431943D01*
X169980454Y-88272305D01*
X169980452Y-88272302D01*
X169890481Y-88129115D01*
X169890476Y-88129109D01*
X169770890Y-88009523D01*
X169770884Y-88009518D01*
X169627697Y-87919547D01*
X169627694Y-87919545D01*
X169468056Y-87863685D01*
X169300003Y-87844751D01*
X169299997Y-87844751D01*
X169131943Y-87863685D01*
X168972305Y-87919545D01*
X168972302Y-87919547D01*
X168829115Y-88009518D01*
X168829109Y-88009523D01*
X168709523Y-88129109D01*
X168709518Y-88129115D01*
X168619547Y-88272302D01*
X168619545Y-88272305D01*
X168563685Y-88431943D01*
X168544751Y-88599997D01*
X147575329Y-88599997D01*
X147638903Y-88463663D01*
X147700063Y-88235408D01*
X147720659Y-88000000D01*
X147700063Y-87764592D01*
X147638903Y-87536337D01*
X147539035Y-87322171D01*
X147531358Y-87311206D01*
X147403494Y-87128597D01*
X147236402Y-86961506D01*
X147236395Y-86961501D01*
X147042834Y-86825967D01*
X147042830Y-86825965D01*
X146828663Y-86726097D01*
X146828659Y-86726096D01*
X146828655Y-86726094D01*
X146600413Y-86664938D01*
X146600403Y-86664936D01*
X146365001Y-86644341D01*
X146364998Y-86644341D01*
X146360814Y-86644707D01*
X146292314Y-86630940D01*
X146242131Y-86582325D01*
X146226198Y-86514296D01*
X146230274Y-86491252D01*
X146230138Y-86491225D01*
X146231326Y-86485252D01*
X146231326Y-86485250D01*
X146249572Y-86300000D01*
X146231326Y-86114748D01*
X146177290Y-85936615D01*
X146177288Y-85936612D01*
X146177288Y-85936610D01*
X146089541Y-85772447D01*
X146089539Y-85772445D01*
X145971449Y-85628550D01*
X145827554Y-85510460D01*
X145827552Y-85510458D01*
X145663389Y-85422711D01*
X145530975Y-85382544D01*
X145485252Y-85368674D01*
X145485250Y-85368673D01*
X145485252Y-85368673D01*
X145300000Y-85350428D01*
X145114749Y-85368673D01*
X144936610Y-85422711D01*
X144772447Y-85510458D01*
X144772445Y-85510460D01*
X144628550Y-85628550D01*
X144510460Y-85772445D01*
X144510458Y-85772447D01*
X144422711Y-85936610D01*
X144368673Y-86114749D01*
X144350428Y-86300000D01*
X144368673Y-86485250D01*
X144369965Y-86489508D01*
X144370586Y-86559375D01*
X144333336Y-86618487D01*
X144270041Y-86648076D01*
X144251303Y-86649500D01*
X142927129Y-86649500D01*
X142927123Y-86649501D01*
X142867516Y-86655908D01*
X142732671Y-86706202D01*
X142732664Y-86706206D01*
X142617455Y-86792452D01*
X142617452Y-86792455D01*
X142531206Y-86907664D01*
X142531202Y-86907671D01*
X142480908Y-87042517D01*
X142474501Y-87102116D01*
X142474500Y-87102135D01*
X135800000Y-87102135D01*
X135800000Y-85100000D01*
X148250428Y-85100000D01*
X148268673Y-85285250D01*
X148322711Y-85463389D01*
X148410458Y-85627552D01*
X148410460Y-85627554D01*
X148528550Y-85771449D01*
X148672445Y-85889539D01*
X148672447Y-85889541D01*
X148836610Y-85977288D01*
X148836612Y-85977288D01*
X148836615Y-85977290D01*
X149014748Y-86031326D01*
X149014747Y-86031326D01*
X149031357Y-86032961D01*
X149200000Y-86049572D01*
X149385252Y-86031326D01*
X149563385Y-85977290D01*
X149727554Y-85889540D01*
X149871449Y-85771449D01*
X149989540Y-85627554D01*
X150074398Y-85468796D01*
X150077288Y-85463389D01*
X150077288Y-85463388D01*
X150077290Y-85463385D01*
X150131326Y-85285252D01*
X150149572Y-85100000D01*
X150131326Y-84914748D01*
X150077290Y-84736615D01*
X150077288Y-84736612D01*
X150077288Y-84736610D01*
X149989541Y-84572447D01*
X149989539Y-84572445D01*
X149871448Y-84428550D01*
X149846138Y-84407778D01*
X149806804Y-84350032D01*
X149804933Y-84280187D01*
X149837121Y-84224245D01*
X149890477Y-84170890D01*
X149980456Y-84027690D01*
X150016736Y-83924004D01*
X150057458Y-83867230D01*
X150119895Y-83841740D01*
X150168054Y-83836314D01*
X150168057Y-83836313D01*
X150168059Y-83836313D01*
X150327690Y-83780456D01*
X150327692Y-83780454D01*
X150327694Y-83780454D01*
X150327697Y-83780452D01*
X150470884Y-83690481D01*
X150470885Y-83690480D01*
X150470890Y-83690477D01*
X150590477Y-83570890D01*
X150614949Y-83531943D01*
X150680452Y-83427697D01*
X150680454Y-83427694D01*
X150680454Y-83427692D01*
X150680456Y-83427690D01*
X150736313Y-83268059D01*
X150736313Y-83268058D01*
X150736314Y-83268056D01*
X150755249Y-83100002D01*
X150755249Y-83099997D01*
X150736314Y-82931943D01*
X150695490Y-82815274D01*
X150680456Y-82772310D01*
X150680455Y-82772308D01*
X150680454Y-82772305D01*
X150680452Y-82772302D01*
X150590481Y-82629115D01*
X150590476Y-82629109D01*
X150470890Y-82509523D01*
X150470884Y-82509518D01*
X150327697Y-82419547D01*
X150327694Y-82419545D01*
X150168056Y-82363685D01*
X150000003Y-82344751D01*
X149999997Y-82344751D01*
X149831943Y-82363685D01*
X149672305Y-82419545D01*
X149672302Y-82419547D01*
X149529115Y-82509518D01*
X149529109Y-82509523D01*
X149409523Y-82629109D01*
X149409518Y-82629115D01*
X149319547Y-82772302D01*
X149319544Y-82772308D01*
X149283264Y-82875993D01*
X149242542Y-82932769D01*
X149180109Y-82958259D01*
X149131941Y-82963687D01*
X148972307Y-83019544D01*
X148972302Y-83019547D01*
X148829115Y-83109518D01*
X148829109Y-83109523D01*
X148709523Y-83229109D01*
X148709518Y-83229115D01*
X148619547Y-83372302D01*
X148619545Y-83372305D01*
X148563685Y-83531943D01*
X148544751Y-83699997D01*
X148544751Y-83700002D01*
X148563685Y-83868056D01*
X148619545Y-84027693D01*
X148696639Y-84150385D01*
X148715640Y-84217622D01*
X148695273Y-84284457D01*
X148670311Y-84312211D01*
X148528551Y-84428550D01*
X148410460Y-84572445D01*
X148410458Y-84572447D01*
X148322711Y-84736610D01*
X148268673Y-84914749D01*
X148250428Y-85100000D01*
X135800000Y-85100000D01*
X135800000Y-79899997D01*
X147044751Y-79899997D01*
X147044751Y-79900002D01*
X147063685Y-80068056D01*
X147119545Y-80227694D01*
X147119547Y-80227697D01*
X147209518Y-80370884D01*
X147209523Y-80370890D01*
X147329109Y-80490476D01*
X147329115Y-80490481D01*
X147472302Y-80580452D01*
X147472305Y-80580454D01*
X147472309Y-80580455D01*
X147472310Y-80580456D01*
X147518164Y-80596501D01*
X147631943Y-80636314D01*
X147799997Y-80655249D01*
X147800000Y-80655249D01*
X147800003Y-80655249D01*
X147910551Y-80642793D01*
X147979373Y-80654847D01*
X148030753Y-80702196D01*
X148048377Y-80769807D01*
X148026651Y-80836212D01*
X147990408Y-80871006D01*
X147929112Y-80909521D01*
X147929109Y-80909523D01*
X147809523Y-81029109D01*
X147809518Y-81029115D01*
X147719547Y-81172302D01*
X147719545Y-81172305D01*
X147663685Y-81331943D01*
X147644751Y-81499997D01*
X147644751Y-81500002D01*
X147663685Y-81668056D01*
X147719545Y-81827694D01*
X147719547Y-81827697D01*
X147809518Y-81970884D01*
X147809523Y-81970890D01*
X147929109Y-82090476D01*
X147929115Y-82090481D01*
X148072302Y-82180452D01*
X148072305Y-82180454D01*
X148072309Y-82180455D01*
X148072310Y-82180456D01*
X148144913Y-82205860D01*
X148231943Y-82236314D01*
X148399997Y-82255249D01*
X148400000Y-82255249D01*
X148400003Y-82255249D01*
X148568056Y-82236314D01*
X148568059Y-82236313D01*
X148727690Y-82180456D01*
X148727692Y-82180454D01*
X148727694Y-82180454D01*
X148727697Y-82180452D01*
X148870884Y-82090481D01*
X148870885Y-82090480D01*
X148870890Y-82090477D01*
X148990477Y-81970890D01*
X148990481Y-81970884D01*
X149080452Y-81827697D01*
X149080454Y-81827694D01*
X149080454Y-81827692D01*
X149080456Y-81827690D01*
X149136313Y-81668059D01*
X149136313Y-81668058D01*
X149136314Y-81668056D01*
X149155249Y-81500002D01*
X149155249Y-81499997D01*
X149152593Y-81476426D01*
X149164647Y-81407604D01*
X149211996Y-81356225D01*
X149279606Y-81338600D01*
X149346012Y-81360326D01*
X149363494Y-81374861D01*
X149479109Y-81490476D01*
X149479115Y-81490481D01*
X149622302Y-81580452D01*
X149622305Y-81580454D01*
X149622309Y-81580455D01*
X149622310Y-81580456D01*
X149694913Y-81605860D01*
X149781943Y-81636314D01*
X149949997Y-81655249D01*
X149950000Y-81655249D01*
X149950003Y-81655249D01*
X150118056Y-81636314D01*
X150121814Y-81634999D01*
X150277690Y-81580456D01*
X150277692Y-81580454D01*
X150277694Y-81580454D01*
X150277697Y-81580452D01*
X150420884Y-81490481D01*
X150420885Y-81490480D01*
X150420890Y-81490477D01*
X150540477Y-81370890D01*
X150550305Y-81355249D01*
X150630452Y-81227697D01*
X150630454Y-81227694D01*
X150630454Y-81227692D01*
X150630456Y-81227690D01*
X150686313Y-81068059D01*
X150686313Y-81068058D01*
X150686314Y-81068056D01*
X150705249Y-80900002D01*
X150705249Y-80899997D01*
X150686314Y-80731943D01*
X150640144Y-80599997D01*
X150630456Y-80572310D01*
X150630455Y-80572309D01*
X150630454Y-80572305D01*
X150630452Y-80572302D01*
X150540481Y-80429115D01*
X150540476Y-80429109D01*
X150420890Y-80309523D01*
X150420884Y-80309518D01*
X150277697Y-80219547D01*
X150277694Y-80219545D01*
X150221829Y-80199997D01*
X152094751Y-80199997D01*
X152094751Y-80200002D01*
X152113685Y-80368056D01*
X152169545Y-80527694D01*
X152169547Y-80527697D01*
X152259518Y-80670884D01*
X152259523Y-80670890D01*
X152379109Y-80790476D01*
X152379115Y-80790481D01*
X152522302Y-80880452D01*
X152522305Y-80880454D01*
X152522309Y-80880455D01*
X152522310Y-80880456D01*
X152542161Y-80887402D01*
X152681943Y-80936314D01*
X152849997Y-80955249D01*
X152850000Y-80955249D01*
X152850003Y-80955249D01*
X153018056Y-80936314D01*
X153030548Y-80931943D01*
X153177690Y-80880456D01*
X153177692Y-80880454D01*
X153177694Y-80880454D01*
X153177697Y-80880452D01*
X153320884Y-80790481D01*
X153320885Y-80790480D01*
X153320890Y-80790477D01*
X153440477Y-80670890D01*
X153462203Y-80636314D01*
X153485023Y-80599997D01*
X155144751Y-80599997D01*
X155144751Y-80600002D01*
X155163685Y-80768056D01*
X155219545Y-80927694D01*
X155219547Y-80927697D01*
X155309518Y-81070884D01*
X155309523Y-81070890D01*
X155429109Y-81190476D01*
X155429115Y-81190481D01*
X155572302Y-81280452D01*
X155572305Y-81280454D01*
X155572309Y-81280455D01*
X155572310Y-81280456D01*
X155644913Y-81305860D01*
X155731943Y-81336314D01*
X155899997Y-81355249D01*
X155900000Y-81355249D01*
X155900003Y-81355249D01*
X156068056Y-81336314D01*
X156080548Y-81331943D01*
X156227690Y-81280456D01*
X156227692Y-81280454D01*
X156227694Y-81280454D01*
X156227697Y-81280452D01*
X156370884Y-81190481D01*
X156370885Y-81190480D01*
X156370890Y-81190477D01*
X156461370Y-81099997D01*
X157294751Y-81099997D01*
X157294751Y-81100002D01*
X157313685Y-81268056D01*
X157369545Y-81427694D01*
X157369547Y-81427697D01*
X157459518Y-81570884D01*
X157459523Y-81570890D01*
X157579109Y-81690476D01*
X157579115Y-81690481D01*
X157722302Y-81780452D01*
X157722305Y-81780454D01*
X157722309Y-81780455D01*
X157722310Y-81780456D01*
X157794913Y-81805860D01*
X157881943Y-81836314D01*
X158049997Y-81855249D01*
X158050000Y-81855249D01*
X158050003Y-81855249D01*
X158218056Y-81836314D01*
X158242682Y-81827697D01*
X158377690Y-81780456D01*
X158377692Y-81780454D01*
X158377694Y-81780454D01*
X158377697Y-81780452D01*
X158520884Y-81690481D01*
X158520885Y-81690480D01*
X158520890Y-81690477D01*
X158576368Y-81634999D01*
X170144341Y-81634999D01*
X170144341Y-81635000D01*
X170164936Y-81870403D01*
X170164938Y-81870413D01*
X170226094Y-82098655D01*
X170226096Y-82098659D01*
X170226097Y-82098663D01*
X170325965Y-82312830D01*
X170325967Y-82312834D01*
X170400689Y-82419547D01*
X170461501Y-82506396D01*
X170461506Y-82506402D01*
X170583430Y-82628326D01*
X170616915Y-82689649D01*
X170611931Y-82759341D01*
X170570059Y-82815274D01*
X170539083Y-82832189D01*
X170407669Y-82881203D01*
X170407664Y-82881206D01*
X170292455Y-82967452D01*
X170292452Y-82967455D01*
X170206206Y-83082664D01*
X170206202Y-83082671D01*
X170155908Y-83217517D01*
X170150742Y-83265571D01*
X170149501Y-83277123D01*
X170149500Y-83277135D01*
X170149500Y-85072870D01*
X170149501Y-85072876D01*
X170155908Y-85132483D01*
X170206202Y-85267328D01*
X170206206Y-85267335D01*
X170292452Y-85382544D01*
X170292455Y-85382547D01*
X170407664Y-85468793D01*
X170407671Y-85468797D01*
X170542517Y-85519091D01*
X170542516Y-85519091D01*
X170549444Y-85519835D01*
X170602127Y-85525500D01*
X172397872Y-85525499D01*
X172457483Y-85519091D01*
X172592331Y-85468796D01*
X172707546Y-85382546D01*
X172793796Y-85267331D01*
X172844091Y-85132483D01*
X172850500Y-85072873D01*
X172850499Y-83277128D01*
X172844091Y-83217517D01*
X172835118Y-83193460D01*
X172793797Y-83082671D01*
X172793793Y-83082664D01*
X172707547Y-82967455D01*
X172707544Y-82967452D01*
X172592335Y-82881206D01*
X172592328Y-82881202D01*
X172460917Y-82832189D01*
X172404983Y-82790318D01*
X172380566Y-82724853D01*
X172395418Y-82656580D01*
X172416563Y-82628332D01*
X172538495Y-82506401D01*
X172674035Y-82312830D01*
X172773903Y-82098663D01*
X172835063Y-81870408D01*
X172855659Y-81635000D01*
X172835063Y-81399592D01*
X172779033Y-81190481D01*
X172773905Y-81171344D01*
X172773904Y-81171343D01*
X172773903Y-81171337D01*
X172674035Y-80957171D01*
X172672690Y-80955249D01*
X172538494Y-80763597D01*
X172371402Y-80596506D01*
X172371395Y-80596501D01*
X172177834Y-80460967D01*
X172177830Y-80460965D01*
X172115588Y-80431941D01*
X171963663Y-80361097D01*
X171963659Y-80361096D01*
X171963655Y-80361094D01*
X171735413Y-80299938D01*
X171735403Y-80299936D01*
X171500001Y-80279341D01*
X171499999Y-80279341D01*
X171264596Y-80299936D01*
X171264586Y-80299938D01*
X171036344Y-80361094D01*
X171036335Y-80361098D01*
X170822171Y-80460964D01*
X170822169Y-80460965D01*
X170628597Y-80596505D01*
X170461505Y-80763597D01*
X170325965Y-80957169D01*
X170325964Y-80957171D01*
X170226098Y-81171335D01*
X170226094Y-81171344D01*
X170164938Y-81399586D01*
X170164936Y-81399596D01*
X170144341Y-81634999D01*
X158576368Y-81634999D01*
X158640477Y-81570890D01*
X158685019Y-81500002D01*
X158730452Y-81427697D01*
X158730454Y-81427694D01*
X158730454Y-81427692D01*
X158730456Y-81427690D01*
X158786313Y-81268059D01*
X158786313Y-81268058D01*
X158786314Y-81268056D01*
X158805249Y-81100002D01*
X158805249Y-81099997D01*
X158789156Y-80957171D01*
X158789049Y-80956223D01*
X158801103Y-80887402D01*
X158846296Y-80837347D01*
X158920890Y-80790477D01*
X159040477Y-80670890D01*
X159062203Y-80636314D01*
X159130452Y-80527697D01*
X159130454Y-80527694D01*
X159130454Y-80527692D01*
X159130456Y-80527690D01*
X159186313Y-80368059D01*
X159186313Y-80368058D01*
X159186314Y-80368056D01*
X159205249Y-80200002D01*
X159205249Y-80199997D01*
X159186314Y-80031943D01*
X159130454Y-79872305D01*
X159130452Y-79872302D01*
X159040481Y-79729115D01*
X159040476Y-79729109D01*
X158972778Y-79661411D01*
X158939293Y-79600088D01*
X158937239Y-79559846D01*
X158955249Y-79400002D01*
X158955249Y-79399997D01*
X158936314Y-79231943D01*
X158880454Y-79072305D01*
X158880452Y-79072302D01*
X158790481Y-78929115D01*
X158790476Y-78929109D01*
X158670890Y-78809523D01*
X158670884Y-78809518D01*
X158527697Y-78719547D01*
X158527694Y-78719545D01*
X158368056Y-78663685D01*
X158200003Y-78644751D01*
X158199997Y-78644751D01*
X158031943Y-78663685D01*
X157872305Y-78719545D01*
X157872302Y-78719547D01*
X157729115Y-78809518D01*
X157729109Y-78809523D01*
X157609523Y-78929109D01*
X157609518Y-78929115D01*
X157519547Y-79072302D01*
X157519545Y-79072305D01*
X157463685Y-79231943D01*
X157444751Y-79399997D01*
X157444751Y-79400002D01*
X157463685Y-79568056D01*
X157519545Y-79727694D01*
X157519547Y-79727697D01*
X157609518Y-79870884D01*
X157609523Y-79870890D01*
X157677222Y-79938589D01*
X157710707Y-79999912D01*
X157712761Y-80040154D01*
X157694751Y-80199997D01*
X157694751Y-80200003D01*
X157710950Y-80343776D01*
X157698895Y-80412597D01*
X157653703Y-80462652D01*
X157579112Y-80509521D01*
X157579109Y-80509523D01*
X157459523Y-80629109D01*
X157459518Y-80629115D01*
X157369547Y-80772302D01*
X157369545Y-80772305D01*
X157313685Y-80931943D01*
X157294751Y-81099997D01*
X156461370Y-81099997D01*
X156490477Y-81070890D01*
X156507514Y-81043776D01*
X156580452Y-80927697D01*
X156580454Y-80927694D01*
X156580454Y-80927692D01*
X156580456Y-80927690D01*
X156636313Y-80768059D01*
X156636313Y-80768058D01*
X156636314Y-80768056D01*
X156655249Y-80600002D01*
X156655249Y-80599997D01*
X156636314Y-80431943D01*
X156593477Y-80309523D01*
X156580456Y-80272310D01*
X156580455Y-80272309D01*
X156580454Y-80272305D01*
X156580452Y-80272302D01*
X156490481Y-80129115D01*
X156490476Y-80129109D01*
X156370890Y-80009523D01*
X156370884Y-80009518D01*
X156227697Y-79919547D01*
X156227694Y-79919545D01*
X156068056Y-79863685D01*
X155900003Y-79844751D01*
X155899997Y-79844751D01*
X155731943Y-79863685D01*
X155572305Y-79919545D01*
X155572302Y-79919547D01*
X155429115Y-80009518D01*
X155429109Y-80009523D01*
X155309523Y-80129109D01*
X155309518Y-80129115D01*
X155219547Y-80272302D01*
X155219545Y-80272305D01*
X155163685Y-80431943D01*
X155144751Y-80599997D01*
X153485023Y-80599997D01*
X153530452Y-80527697D01*
X153530454Y-80527694D01*
X153530454Y-80527692D01*
X153530456Y-80527690D01*
X153586313Y-80368059D01*
X153586313Y-80368058D01*
X153586314Y-80368056D01*
X153605249Y-80200002D01*
X153605249Y-80199997D01*
X153586314Y-80031943D01*
X153530454Y-79872305D01*
X153530452Y-79872302D01*
X153440481Y-79729115D01*
X153440476Y-79729109D01*
X153320890Y-79609523D01*
X153320884Y-79609518D01*
X153177697Y-79519547D01*
X153177694Y-79519545D01*
X153018056Y-79463685D01*
X152850003Y-79444751D01*
X152849997Y-79444751D01*
X152681943Y-79463685D01*
X152522305Y-79519545D01*
X152522302Y-79519547D01*
X152379115Y-79609518D01*
X152379109Y-79609523D01*
X152259523Y-79729109D01*
X152259518Y-79729115D01*
X152169547Y-79872302D01*
X152169545Y-79872305D01*
X152113685Y-80031943D01*
X152094751Y-80199997D01*
X150221829Y-80199997D01*
X150118056Y-80163685D01*
X149950003Y-80144751D01*
X149949997Y-80144751D01*
X149781943Y-80163685D01*
X149622305Y-80219545D01*
X149622302Y-80219547D01*
X149479115Y-80309518D01*
X149479109Y-80309523D01*
X149359523Y-80429109D01*
X149359518Y-80429115D01*
X149269547Y-80572302D01*
X149269545Y-80572305D01*
X149213685Y-80731943D01*
X149194751Y-80899997D01*
X149194751Y-80899998D01*
X149197407Y-80923576D01*
X149185350Y-80992398D01*
X149138000Y-81043776D01*
X149070389Y-81061399D01*
X149003984Y-81039671D01*
X148986505Y-81025138D01*
X148870890Y-80909523D01*
X148870884Y-80909518D01*
X148727697Y-80819547D01*
X148727694Y-80819545D01*
X148568056Y-80763685D01*
X148400003Y-80744751D01*
X148399996Y-80744751D01*
X148289447Y-80757206D01*
X148220625Y-80745151D01*
X148169246Y-80697802D01*
X148151622Y-80630191D01*
X148173349Y-80563786D01*
X148209591Y-80528993D01*
X148270890Y-80490477D01*
X148390477Y-80370890D01*
X148396630Y-80361098D01*
X148480452Y-80227697D01*
X148480454Y-80227694D01*
X148480454Y-80227692D01*
X148480456Y-80227690D01*
X148536313Y-80068059D01*
X148536313Y-80068058D01*
X148536314Y-80068056D01*
X148555249Y-79900002D01*
X148555249Y-79899997D01*
X148536314Y-79731943D01*
X148493477Y-79609523D01*
X148480456Y-79572310D01*
X148480455Y-79572309D01*
X148480454Y-79572305D01*
X148480452Y-79572302D01*
X148390481Y-79429115D01*
X148390476Y-79429109D01*
X148270890Y-79309523D01*
X148270884Y-79309518D01*
X148127697Y-79219547D01*
X148127694Y-79219545D01*
X147968056Y-79163685D01*
X147800003Y-79144751D01*
X147799997Y-79144751D01*
X147631943Y-79163685D01*
X147472305Y-79219545D01*
X147472302Y-79219547D01*
X147329115Y-79309518D01*
X147329109Y-79309523D01*
X147209523Y-79429109D01*
X147209518Y-79429115D01*
X147119547Y-79572302D01*
X147119545Y-79572305D01*
X147063685Y-79731943D01*
X147044751Y-79899997D01*
X135800000Y-79899997D01*
X135800000Y-77349997D01*
X149194751Y-77349997D01*
X149194751Y-77350002D01*
X149213685Y-77518056D01*
X149269545Y-77677694D01*
X149269547Y-77677697D01*
X149359518Y-77820884D01*
X149359523Y-77820890D01*
X149479109Y-77940476D01*
X149479115Y-77940481D01*
X149622302Y-78030452D01*
X149622305Y-78030454D01*
X149622309Y-78030455D01*
X149622310Y-78030456D01*
X149652366Y-78040973D01*
X149781943Y-78086314D01*
X149949997Y-78105249D01*
X149950000Y-78105249D01*
X149950003Y-78105249D01*
X150118059Y-78086313D01*
X150118061Y-78086313D01*
X150156008Y-78073035D01*
X150225787Y-78069473D01*
X150286414Y-78104201D01*
X150318642Y-78166195D01*
X150314439Y-78224969D01*
X150315236Y-78225151D01*
X150314057Y-78230312D01*
X150314007Y-78231025D01*
X150313686Y-78231941D01*
X150294751Y-78399997D01*
X150294751Y-78400002D01*
X150313685Y-78568056D01*
X150369545Y-78727692D01*
X150395652Y-78769242D01*
X150414652Y-78836479D01*
X150395652Y-78901185D01*
X150319545Y-79022307D01*
X150263685Y-79181943D01*
X150244751Y-79349997D01*
X150244751Y-79350002D01*
X150263685Y-79518056D01*
X150319545Y-79677694D01*
X150319547Y-79677697D01*
X150409518Y-79820884D01*
X150409523Y-79820890D01*
X150529109Y-79940476D01*
X150529115Y-79940481D01*
X150672302Y-80030452D01*
X150672305Y-80030454D01*
X150672309Y-80030455D01*
X150672310Y-80030456D01*
X150744913Y-80055860D01*
X150831943Y-80086314D01*
X150999997Y-80105249D01*
X151000000Y-80105249D01*
X151000003Y-80105249D01*
X151168056Y-80086314D01*
X151220226Y-80068059D01*
X151327690Y-80030456D01*
X151327692Y-80030454D01*
X151327694Y-80030454D01*
X151327697Y-80030452D01*
X151470884Y-79940481D01*
X151470885Y-79940480D01*
X151470890Y-79940477D01*
X151590477Y-79820890D01*
X151590481Y-79820884D01*
X151680452Y-79677697D01*
X151680454Y-79677694D01*
X151680454Y-79677692D01*
X151680456Y-79677690D01*
X151736313Y-79518059D01*
X151736313Y-79518058D01*
X151736314Y-79518056D01*
X151755249Y-79350002D01*
X151755249Y-79349997D01*
X151736314Y-79181943D01*
X151722904Y-79143621D01*
X151680456Y-79022310D01*
X151654348Y-78980759D01*
X151635348Y-78913522D01*
X151654348Y-78848815D01*
X151704347Y-78769242D01*
X151730456Y-78727690D01*
X151786313Y-78568059D01*
X151786313Y-78568058D01*
X151786314Y-78568056D01*
X151805249Y-78400002D01*
X151805249Y-78399997D01*
X151786313Y-78231942D01*
X151730457Y-78072312D01*
X151710765Y-78040973D01*
X151691764Y-77973736D01*
X151710765Y-77909027D01*
X151730456Y-77877690D01*
X151757642Y-77799997D01*
X162894751Y-77799997D01*
X162894751Y-77800002D01*
X162913685Y-77968056D01*
X162969545Y-78127694D01*
X162969547Y-78127697D01*
X163059518Y-78270884D01*
X163059523Y-78270890D01*
X163179109Y-78390476D01*
X163179115Y-78390481D01*
X163322302Y-78480452D01*
X163322305Y-78480454D01*
X163322309Y-78480455D01*
X163322310Y-78480456D01*
X163394913Y-78505860D01*
X163481943Y-78536314D01*
X163649997Y-78555249D01*
X163650000Y-78555249D01*
X163650003Y-78555249D01*
X163818056Y-78536314D01*
X163818059Y-78536313D01*
X163977690Y-78480456D01*
X163977692Y-78480454D01*
X163977694Y-78480454D01*
X163977697Y-78480452D01*
X164120884Y-78390481D01*
X164120885Y-78390480D01*
X164120890Y-78390477D01*
X164240477Y-78270890D01*
X164240481Y-78270884D01*
X164330452Y-78127697D01*
X164330454Y-78127694D01*
X164330454Y-78127692D01*
X164330456Y-78127690D01*
X164386313Y-77968059D01*
X164386313Y-77968058D01*
X164386314Y-77968056D01*
X164405249Y-77800002D01*
X164405249Y-77799997D01*
X164386314Y-77631943D01*
X164346463Y-77518056D01*
X164330456Y-77472310D01*
X164330455Y-77472309D01*
X164330454Y-77472305D01*
X164330452Y-77472302D01*
X164240481Y-77329115D01*
X164240476Y-77329109D01*
X164120890Y-77209523D01*
X164120884Y-77209518D01*
X163977697Y-77119547D01*
X163977694Y-77119545D01*
X163818056Y-77063685D01*
X163650003Y-77044751D01*
X163649997Y-77044751D01*
X163481943Y-77063685D01*
X163322305Y-77119545D01*
X163322302Y-77119547D01*
X163179115Y-77209518D01*
X163179109Y-77209523D01*
X163059523Y-77329109D01*
X163059518Y-77329115D01*
X162969547Y-77472302D01*
X162969545Y-77472305D01*
X162913685Y-77631943D01*
X162894751Y-77799997D01*
X151757642Y-77799997D01*
X151786313Y-77718059D01*
X151805249Y-77550000D01*
X151805249Y-77549997D01*
X151786314Y-77381943D01*
X151735559Y-77236894D01*
X151731998Y-77167115D01*
X151747605Y-77129970D01*
X151780456Y-77077690D01*
X151836313Y-76918059D01*
X151855249Y-76750000D01*
X151851217Y-76714214D01*
X151849616Y-76700000D01*
X158351954Y-76700000D01*
X158370486Y-76876320D01*
X158370487Y-76876322D01*
X158425271Y-77044933D01*
X158425272Y-77044934D01*
X158468349Y-77119545D01*
X158513916Y-77198469D01*
X158535383Y-77222310D01*
X158632543Y-77330219D01*
X158632546Y-77330221D01*
X158775977Y-77434429D01*
X158937933Y-77506538D01*
X158937936Y-77506538D01*
X158937939Y-77506540D01*
X159111355Y-77543400D01*
X159288645Y-77543400D01*
X159462061Y-77506540D01*
X159462064Y-77506538D01*
X159462066Y-77506538D01*
X159494869Y-77491932D01*
X159624023Y-77434429D01*
X159767454Y-77330221D01*
X159768455Y-77329110D01*
X159790649Y-77304460D01*
X159886084Y-77198469D01*
X159974729Y-77044931D01*
X160029514Y-76876319D01*
X160048046Y-76700000D01*
X160029514Y-76523681D01*
X159974729Y-76355069D01*
X159974728Y-76355068D01*
X159974728Y-76355066D01*
X159974727Y-76355065D01*
X159930874Y-76279110D01*
X159886084Y-76201531D01*
X159832677Y-76142217D01*
X159767456Y-76069780D01*
X159680412Y-76006540D01*
X159624023Y-75965571D01*
X159624021Y-75965570D01*
X159624022Y-75965570D01*
X159462066Y-75893461D01*
X159462058Y-75893459D01*
X159288645Y-75856600D01*
X159111355Y-75856600D01*
X158937941Y-75893459D01*
X158937933Y-75893461D01*
X158775978Y-75965570D01*
X158632543Y-76069780D01*
X158513915Y-76201532D01*
X158425272Y-76355065D01*
X158425271Y-76355066D01*
X158370487Y-76523677D01*
X158370486Y-76523679D01*
X158351954Y-76700000D01*
X151849616Y-76700000D01*
X151836314Y-76581943D01*
X151780454Y-76422305D01*
X151780452Y-76422302D01*
X151690481Y-76279115D01*
X151690476Y-76279109D01*
X151570890Y-76159523D01*
X151570884Y-76159518D01*
X151427697Y-76069547D01*
X151427694Y-76069545D01*
X151268056Y-76013685D01*
X151100003Y-75994751D01*
X151099997Y-75994751D01*
X150931943Y-76013685D01*
X150772305Y-76069545D01*
X150772302Y-76069547D01*
X150629115Y-76159518D01*
X150629109Y-76159523D01*
X150509523Y-76279109D01*
X150509518Y-76279115D01*
X150419547Y-76422302D01*
X150419542Y-76422313D01*
X150367949Y-76569755D01*
X150327227Y-76626531D01*
X150262274Y-76652278D01*
X150209953Y-76645842D01*
X150118056Y-76613685D01*
X149950003Y-76594751D01*
X149949997Y-76594751D01*
X149781943Y-76613685D01*
X149622305Y-76669545D01*
X149622302Y-76669547D01*
X149479115Y-76759518D01*
X149479109Y-76759523D01*
X149359523Y-76879109D01*
X149359518Y-76879115D01*
X149269547Y-77022302D01*
X149269545Y-77022305D01*
X149213685Y-77181943D01*
X149194751Y-77349997D01*
X135800000Y-77349997D01*
X135800000Y-75200000D01*
X162951954Y-75200000D01*
X162970486Y-75376320D01*
X162970487Y-75376322D01*
X163025271Y-75544933D01*
X163025272Y-75544934D01*
X163098450Y-75671682D01*
X163113916Y-75698469D01*
X163161414Y-75751221D01*
X163232543Y-75830219D01*
X163232546Y-75830221D01*
X163375977Y-75934429D01*
X163537933Y-76006538D01*
X163537936Y-76006538D01*
X163537939Y-76006540D01*
X163711355Y-76043400D01*
X163888645Y-76043400D01*
X164062061Y-76006540D01*
X164062064Y-76006538D01*
X164062066Y-76006538D01*
X164094869Y-75991932D01*
X164224023Y-75934429D01*
X164367454Y-75830221D01*
X164486084Y-75698469D01*
X164574729Y-75544931D01*
X164629514Y-75376319D01*
X164648046Y-75200000D01*
X164629514Y-75023681D01*
X164574729Y-74855069D01*
X164574728Y-74855068D01*
X164574728Y-74855066D01*
X164574727Y-74855065D01*
X164537436Y-74790476D01*
X164486084Y-74701531D01*
X164432677Y-74642217D01*
X164367456Y-74569780D01*
X164295738Y-74517675D01*
X164224023Y-74465571D01*
X164224021Y-74465570D01*
X164224022Y-74465570D01*
X164062066Y-74393461D01*
X164062058Y-74393459D01*
X163888645Y-74356600D01*
X163711355Y-74356600D01*
X163537941Y-74393459D01*
X163537933Y-74393461D01*
X163375978Y-74465570D01*
X163232543Y-74569780D01*
X163113915Y-74701532D01*
X163025272Y-74855065D01*
X163025271Y-74855066D01*
X162970487Y-75023677D01*
X162970486Y-75023679D01*
X162951954Y-75200000D01*
X135800000Y-75200000D01*
X135800000Y-73449997D01*
X150194751Y-73449997D01*
X150194751Y-73450002D01*
X150213685Y-73618056D01*
X150269545Y-73777694D01*
X150269547Y-73777697D01*
X150359518Y-73920884D01*
X150359523Y-73920890D01*
X150479109Y-74040476D01*
X150479115Y-74040481D01*
X150622302Y-74130452D01*
X150622305Y-74130454D01*
X150622309Y-74130455D01*
X150622310Y-74130456D01*
X150694913Y-74155860D01*
X150781943Y-74186314D01*
X150949997Y-74205249D01*
X150950000Y-74205249D01*
X150950003Y-74205249D01*
X150996616Y-74199997D01*
X158594751Y-74199997D01*
X158594751Y-74200002D01*
X158613685Y-74368056D01*
X158669545Y-74527694D01*
X158669547Y-74527697D01*
X158759518Y-74670884D01*
X158759523Y-74670890D01*
X158879109Y-74790476D01*
X158879115Y-74790481D01*
X159022302Y-74880452D01*
X159022305Y-74880454D01*
X159022309Y-74880455D01*
X159022310Y-74880456D01*
X159094913Y-74905860D01*
X159181943Y-74936314D01*
X159349997Y-74955249D01*
X159350000Y-74955249D01*
X159350003Y-74955249D01*
X159518056Y-74936314D01*
X159518059Y-74936313D01*
X159677690Y-74880456D01*
X159677692Y-74880454D01*
X159677694Y-74880454D01*
X159677697Y-74880452D01*
X159820884Y-74790481D01*
X159820885Y-74790480D01*
X159820890Y-74790477D01*
X159940477Y-74670890D01*
X160030452Y-74527697D01*
X160030454Y-74527694D01*
X160030454Y-74527692D01*
X160030456Y-74527690D01*
X160086313Y-74368059D01*
X160086313Y-74368058D01*
X160086314Y-74368056D01*
X160105249Y-74200002D01*
X160105249Y-74199997D01*
X160092355Y-74085564D01*
X160104409Y-74016742D01*
X160149600Y-73966688D01*
X160270890Y-73890477D01*
X160390477Y-73770890D01*
X160416726Y-73729115D01*
X160480452Y-73627697D01*
X160480454Y-73627694D01*
X160480454Y-73627692D01*
X160480456Y-73627690D01*
X160536313Y-73468059D01*
X160536313Y-73468058D01*
X160536314Y-73468056D01*
X160555249Y-73300002D01*
X160555249Y-73299997D01*
X160536314Y-73131943D01*
X160480454Y-72972305D01*
X160480452Y-72972302D01*
X160390481Y-72829115D01*
X160390476Y-72829109D01*
X160270890Y-72709523D01*
X160270884Y-72709518D01*
X160127697Y-72619547D01*
X160127694Y-72619545D01*
X159968056Y-72563685D01*
X159800003Y-72544751D01*
X159799997Y-72544751D01*
X159631943Y-72563685D01*
X159472305Y-72619545D01*
X159472302Y-72619547D01*
X159329115Y-72709518D01*
X159329109Y-72709523D01*
X159209523Y-72829109D01*
X159209518Y-72829115D01*
X159119547Y-72972302D01*
X159119545Y-72972305D01*
X159063685Y-73131943D01*
X159044751Y-73299997D01*
X159044751Y-73300003D01*
X159057644Y-73414436D01*
X159045589Y-73483258D01*
X159000397Y-73533312D01*
X158879111Y-73609521D01*
X158759523Y-73729109D01*
X158759518Y-73729115D01*
X158669547Y-73872302D01*
X158669545Y-73872305D01*
X158613685Y-74031943D01*
X158594751Y-74199997D01*
X150996616Y-74199997D01*
X151118056Y-74186314D01*
X151118059Y-74186313D01*
X151277690Y-74130456D01*
X151277692Y-74130454D01*
X151277694Y-74130454D01*
X151277697Y-74130452D01*
X151420884Y-74040481D01*
X151420885Y-74040480D01*
X151420890Y-74040477D01*
X151540477Y-73920890D01*
X151559587Y-73890477D01*
X151630452Y-73777697D01*
X151630454Y-73777694D01*
X151630454Y-73777692D01*
X151630456Y-73777690D01*
X151686313Y-73618059D01*
X151686313Y-73618058D01*
X151686314Y-73618056D01*
X151705249Y-73450002D01*
X151705249Y-73449997D01*
X151686314Y-73281943D01*
X151655860Y-73194913D01*
X151630456Y-73122310D01*
X151630455Y-73122309D01*
X151630454Y-73122305D01*
X151630452Y-73122302D01*
X151540481Y-72979115D01*
X151540476Y-72979109D01*
X151420890Y-72859523D01*
X151420884Y-72859518D01*
X151277697Y-72769547D01*
X151277694Y-72769545D01*
X151118056Y-72713685D01*
X150950003Y-72694751D01*
X150949997Y-72694751D01*
X150781943Y-72713685D01*
X150622305Y-72769545D01*
X150622302Y-72769547D01*
X150479115Y-72859518D01*
X150479109Y-72859523D01*
X150359523Y-72979109D01*
X150359518Y-72979115D01*
X150269547Y-73122302D01*
X150269545Y-73122305D01*
X150213685Y-73281943D01*
X150194751Y-73449997D01*
X135800000Y-73449997D01*
X135800000Y-71499997D01*
X152844751Y-71499997D01*
X152844751Y-71500002D01*
X152863685Y-71668056D01*
X152919545Y-71827694D01*
X152919547Y-71827697D01*
X153009518Y-71970884D01*
X153009523Y-71970890D01*
X153129109Y-72090476D01*
X153129115Y-72090481D01*
X153272302Y-72180452D01*
X153272308Y-72180455D01*
X153272310Y-72180456D01*
X153399093Y-72224819D01*
X153455869Y-72265541D01*
X153475181Y-72300907D01*
X153519544Y-72427691D01*
X153519547Y-72427697D01*
X153609518Y-72570884D01*
X153609523Y-72570890D01*
X153729109Y-72690476D01*
X153729115Y-72690481D01*
X153872302Y-72780452D01*
X153872305Y-72780454D01*
X153872309Y-72780455D01*
X153872310Y-72780456D01*
X153944913Y-72805860D01*
X154031943Y-72836314D01*
X154199997Y-72855249D01*
X154200000Y-72855249D01*
X154200003Y-72855249D01*
X154368056Y-72836314D01*
X154368059Y-72836313D01*
X154527690Y-72780456D01*
X154527692Y-72780454D01*
X154527694Y-72780454D01*
X154527697Y-72780452D01*
X154670884Y-72690481D01*
X154670885Y-72690480D01*
X154670890Y-72690477D01*
X154790477Y-72570890D01*
X154795004Y-72563685D01*
X154880452Y-72427697D01*
X154880454Y-72427694D01*
X154880455Y-72427691D01*
X154880456Y-72427690D01*
X154936313Y-72268059D01*
X154936313Y-72268058D01*
X154936314Y-72268056D01*
X154955249Y-72100002D01*
X154955249Y-72099997D01*
X154936314Y-71931943D01*
X154898430Y-71823677D01*
X154880456Y-71772310D01*
X154880455Y-71772309D01*
X154880454Y-71772305D01*
X154880452Y-71772302D01*
X154790481Y-71629115D01*
X154790476Y-71629109D01*
X154761364Y-71599997D01*
X157194751Y-71599997D01*
X157194751Y-71600002D01*
X157213685Y-71768056D01*
X157269545Y-71927694D01*
X157269547Y-71927697D01*
X157359518Y-72070884D01*
X157359523Y-72070890D01*
X157479109Y-72190476D01*
X157479115Y-72190481D01*
X157622302Y-72280452D01*
X157622305Y-72280454D01*
X157622309Y-72280455D01*
X157622310Y-72280456D01*
X157680756Y-72300907D01*
X157781943Y-72336314D01*
X157949997Y-72355249D01*
X157950000Y-72355249D01*
X157950003Y-72355249D01*
X158118056Y-72336314D01*
X158118059Y-72336313D01*
X158277690Y-72280456D01*
X158277692Y-72280454D01*
X158277694Y-72280454D01*
X158277697Y-72280452D01*
X158420884Y-72190481D01*
X158420885Y-72190480D01*
X158420890Y-72190477D01*
X158540477Y-72070890D01*
X158540481Y-72070884D01*
X158616440Y-71949997D01*
X163294751Y-71949997D01*
X163294751Y-71950002D01*
X163313685Y-72118056D01*
X163369545Y-72277694D01*
X163369547Y-72277697D01*
X163459518Y-72420884D01*
X163459523Y-72420890D01*
X163579109Y-72540476D01*
X163579115Y-72540481D01*
X163722302Y-72630452D01*
X163722305Y-72630454D01*
X163722309Y-72630455D01*
X163722310Y-72630456D01*
X163794913Y-72655860D01*
X163881943Y-72686314D01*
X164049997Y-72705249D01*
X164050000Y-72705249D01*
X164050003Y-72705249D01*
X164150835Y-72693887D01*
X164218059Y-72686313D01*
X164377690Y-72630456D01*
X164409027Y-72610764D01*
X164476264Y-72591764D01*
X164540972Y-72610764D01*
X164554944Y-72619544D01*
X164572312Y-72630457D01*
X164646020Y-72656248D01*
X164731941Y-72686313D01*
X164773955Y-72691047D01*
X164899997Y-72705249D01*
X164900000Y-72705249D01*
X164900003Y-72705249D01*
X165068056Y-72686314D01*
X165085443Y-72680230D01*
X165227690Y-72630456D01*
X165227692Y-72630454D01*
X165227694Y-72630454D01*
X165227697Y-72630452D01*
X165370884Y-72540481D01*
X165370885Y-72540480D01*
X165370890Y-72540477D01*
X165490477Y-72420890D01*
X165538204Y-72344934D01*
X165580452Y-72277697D01*
X165580454Y-72277694D01*
X165580454Y-72277692D01*
X165580456Y-72277690D01*
X165636313Y-72118059D01*
X165636313Y-72118058D01*
X165636314Y-72118056D01*
X165655249Y-71950002D01*
X165655249Y-71949997D01*
X165636314Y-71781943D01*
X165580454Y-71622305D01*
X165580452Y-71622302D01*
X165490481Y-71479115D01*
X165490476Y-71479109D01*
X165370890Y-71359523D01*
X165370884Y-71359518D01*
X165227697Y-71269547D01*
X165227694Y-71269545D01*
X165068056Y-71213685D01*
X164900003Y-71194751D01*
X164899997Y-71194751D01*
X164731943Y-71213685D01*
X164572308Y-71269544D01*
X164540971Y-71289235D01*
X164473734Y-71308234D01*
X164409029Y-71289235D01*
X164377691Y-71269544D01*
X164218056Y-71213685D01*
X164050003Y-71194751D01*
X164049997Y-71194751D01*
X163881943Y-71213685D01*
X163722305Y-71269545D01*
X163722302Y-71269547D01*
X163579115Y-71359518D01*
X163579109Y-71359523D01*
X163459523Y-71479109D01*
X163459518Y-71479115D01*
X163369547Y-71622302D01*
X163369545Y-71622305D01*
X163313685Y-71781943D01*
X163294751Y-71949997D01*
X158616440Y-71949997D01*
X158630452Y-71927697D01*
X158630454Y-71927694D01*
X158630454Y-71927692D01*
X158630456Y-71927690D01*
X158686313Y-71768059D01*
X158686313Y-71768058D01*
X158686314Y-71768056D01*
X158705249Y-71600002D01*
X158705249Y-71599999D01*
X158700275Y-71555859D01*
X158712329Y-71487037D01*
X158759677Y-71435657D01*
X158827287Y-71418032D01*
X158889467Y-71436981D01*
X158972302Y-71489030D01*
X158972305Y-71489032D01*
X158972309Y-71489033D01*
X158972310Y-71489034D01*
X159030850Y-71509518D01*
X159131943Y-71544892D01*
X159299997Y-71563827D01*
X159300000Y-71563827D01*
X159300003Y-71563827D01*
X159468056Y-71544892D01*
X159468059Y-71544891D01*
X159627690Y-71489034D01*
X159627692Y-71489032D01*
X159627694Y-71489032D01*
X159627697Y-71489030D01*
X159770884Y-71399059D01*
X159770885Y-71399058D01*
X159770890Y-71399055D01*
X159890477Y-71279468D01*
X159931810Y-71213687D01*
X159980452Y-71136275D01*
X159980454Y-71136272D01*
X159980454Y-71136270D01*
X159980456Y-71136268D01*
X160036313Y-70976637D01*
X160036313Y-70976636D01*
X160036314Y-70976634D01*
X160055249Y-70808580D01*
X160055249Y-70808575D01*
X160036314Y-70640521D01*
X159980454Y-70480883D01*
X159980452Y-70480880D01*
X159890481Y-70337693D01*
X159890476Y-70337687D01*
X159770890Y-70218101D01*
X159770884Y-70218096D01*
X159627697Y-70128125D01*
X159627694Y-70128123D01*
X159468056Y-70072263D01*
X159300003Y-70053329D01*
X159299997Y-70053329D01*
X159131943Y-70072263D01*
X158972305Y-70128123D01*
X158972302Y-70128125D01*
X158829115Y-70218096D01*
X158829109Y-70218101D01*
X158709523Y-70337687D01*
X158709518Y-70337693D01*
X158619547Y-70480880D01*
X158619545Y-70480883D01*
X158563685Y-70640521D01*
X158544751Y-70808575D01*
X158544751Y-70808581D01*
X158549724Y-70852720D01*
X158537669Y-70921542D01*
X158490320Y-70972921D01*
X158422710Y-70990545D01*
X158360532Y-70971597D01*
X158277692Y-70919545D01*
X158277691Y-70919544D01*
X158277690Y-70919544D01*
X158239370Y-70906135D01*
X158118056Y-70863685D01*
X157950003Y-70844751D01*
X157949997Y-70844751D01*
X157781943Y-70863685D01*
X157622305Y-70919545D01*
X157622302Y-70919547D01*
X157479115Y-71009518D01*
X157479109Y-71009523D01*
X157359523Y-71129109D01*
X157359518Y-71129115D01*
X157269547Y-71272302D01*
X157269545Y-71272305D01*
X157213685Y-71431943D01*
X157194751Y-71599997D01*
X154761364Y-71599997D01*
X154670890Y-71509523D01*
X154670884Y-71509518D01*
X154527697Y-71419547D01*
X154527691Y-71419544D01*
X154400907Y-71375181D01*
X154344131Y-71334459D01*
X154324819Y-71299093D01*
X154315447Y-71272310D01*
X154280456Y-71172310D01*
X154280453Y-71172305D01*
X154280452Y-71172302D01*
X154190481Y-71029115D01*
X154190476Y-71029109D01*
X154070890Y-70909523D01*
X154070884Y-70909518D01*
X153927697Y-70819547D01*
X153927694Y-70819545D01*
X153768056Y-70763685D01*
X153600003Y-70744751D01*
X153599997Y-70744751D01*
X153431943Y-70763685D01*
X153272305Y-70819545D01*
X153272302Y-70819547D01*
X153129115Y-70909518D01*
X153129109Y-70909523D01*
X153009523Y-71029109D01*
X153009518Y-71029115D01*
X152919547Y-71172302D01*
X152919545Y-71172305D01*
X152863685Y-71331943D01*
X152844751Y-71499997D01*
X135800000Y-71499997D01*
X135800000Y-69399997D01*
X164044751Y-69399997D01*
X164044751Y-69400002D01*
X164063685Y-69568056D01*
X164096853Y-69662844D01*
X164119544Y-69727690D01*
X164119545Y-69727691D01*
X164123529Y-69734033D01*
X164142525Y-69801270D01*
X164123529Y-69865967D01*
X164123523Y-69865977D01*
X164119544Y-69872310D01*
X164109067Y-69902250D01*
X164063685Y-70031943D01*
X164044751Y-70199997D01*
X164044751Y-70200002D01*
X164063685Y-70368056D01*
X164119545Y-70527694D01*
X164119547Y-70527697D01*
X164209518Y-70670884D01*
X164209523Y-70670890D01*
X164329109Y-70790476D01*
X164329115Y-70790481D01*
X164472302Y-70880452D01*
X164472305Y-70880454D01*
X164472309Y-70880455D01*
X164472310Y-70880456D01*
X164544913Y-70905860D01*
X164631943Y-70936314D01*
X164799997Y-70955249D01*
X164800000Y-70955249D01*
X164800003Y-70955249D01*
X164968056Y-70936314D01*
X165010272Y-70921542D01*
X165127690Y-70880456D01*
X165127692Y-70880454D01*
X165127694Y-70880454D01*
X165127697Y-70880452D01*
X165270884Y-70790481D01*
X165270885Y-70790480D01*
X165270890Y-70790477D01*
X165390477Y-70670890D01*
X165409559Y-70640521D01*
X165480452Y-70527697D01*
X165480454Y-70527694D01*
X165480454Y-70527692D01*
X165480456Y-70527690D01*
X165536313Y-70368059D01*
X165536313Y-70368058D01*
X165536314Y-70368056D01*
X165555249Y-70200002D01*
X165555249Y-70199997D01*
X165536313Y-70031942D01*
X165480457Y-69872312D01*
X165480456Y-69872310D01*
X165476475Y-69865975D01*
X165457472Y-69798742D01*
X165476475Y-69734024D01*
X165480456Y-69727690D01*
X165536313Y-69568059D01*
X165555249Y-69400000D01*
X165555249Y-69399997D01*
X165536314Y-69231943D01*
X165486813Y-69090477D01*
X165480456Y-69072310D01*
X165480455Y-69072309D01*
X165480454Y-69072305D01*
X165480452Y-69072302D01*
X165390481Y-68929115D01*
X165390476Y-68929109D01*
X165270890Y-68809523D01*
X165270884Y-68809518D01*
X165127697Y-68719547D01*
X165127694Y-68719545D01*
X164968056Y-68663685D01*
X164800003Y-68644751D01*
X164799997Y-68644751D01*
X164631943Y-68663685D01*
X164472305Y-68719545D01*
X164472302Y-68719547D01*
X164329115Y-68809518D01*
X164329109Y-68809523D01*
X164209523Y-68929109D01*
X164209518Y-68929115D01*
X164119547Y-69072302D01*
X164119545Y-69072305D01*
X164063685Y-69231943D01*
X164044751Y-69399997D01*
X135800000Y-69399997D01*
X135800000Y-68499997D01*
X143944751Y-68499997D01*
X143944751Y-68500002D01*
X143963685Y-68668056D01*
X144019545Y-68827694D01*
X144019547Y-68827697D01*
X144109518Y-68970884D01*
X144109523Y-68970890D01*
X144229109Y-69090476D01*
X144229115Y-69090481D01*
X144372302Y-69180452D01*
X144372305Y-69180454D01*
X144372309Y-69180455D01*
X144372310Y-69180456D01*
X144444913Y-69205860D01*
X144531943Y-69236314D01*
X144699997Y-69255249D01*
X144700000Y-69255249D01*
X144700003Y-69255249D01*
X144868056Y-69236314D01*
X144880548Y-69231943D01*
X145027690Y-69180456D01*
X145027692Y-69180454D01*
X145027694Y-69180454D01*
X145027697Y-69180452D01*
X145170884Y-69090481D01*
X145170885Y-69090480D01*
X145170890Y-69090477D01*
X145290477Y-68970890D01*
X145316726Y-68929115D01*
X145380452Y-68827697D01*
X145380454Y-68827694D01*
X145380454Y-68827692D01*
X145380456Y-68827690D01*
X145436313Y-68668059D01*
X145436313Y-68668058D01*
X145436314Y-68668056D01*
X145455249Y-68500002D01*
X145455249Y-68499997D01*
X145436314Y-68331943D01*
X145380454Y-68172305D01*
X145380452Y-68172302D01*
X145290481Y-68029115D01*
X145290476Y-68029109D01*
X145170890Y-67909523D01*
X145170884Y-67909518D01*
X145027697Y-67819547D01*
X145027694Y-67819545D01*
X144868056Y-67763685D01*
X144700003Y-67744751D01*
X144699997Y-67744751D01*
X144531943Y-67763685D01*
X144372305Y-67819545D01*
X144372302Y-67819547D01*
X144229115Y-67909518D01*
X144229109Y-67909523D01*
X144109523Y-68029109D01*
X144109518Y-68029115D01*
X144019547Y-68172302D01*
X144019545Y-68172305D01*
X143963685Y-68331943D01*
X143944751Y-68499997D01*
X135800000Y-68499997D01*
X135800000Y-65799997D01*
X151744751Y-65799997D01*
X151744751Y-65800002D01*
X151763685Y-65968056D01*
X151819545Y-66127694D01*
X151819547Y-66127697D01*
X151909518Y-66270884D01*
X151909523Y-66270890D01*
X152029109Y-66390476D01*
X152029115Y-66390481D01*
X152172302Y-66480452D01*
X152172305Y-66480454D01*
X152172309Y-66480455D01*
X152172310Y-66480456D01*
X152244913Y-66505860D01*
X152331943Y-66536314D01*
X152499997Y-66555249D01*
X152500000Y-66555249D01*
X152500003Y-66555249D01*
X152668056Y-66536314D01*
X152668059Y-66536313D01*
X152827690Y-66480456D01*
X152827692Y-66480454D01*
X152827694Y-66480454D01*
X152827697Y-66480452D01*
X152970884Y-66390481D01*
X152970885Y-66390480D01*
X152970890Y-66390477D01*
X153090477Y-66270890D01*
X153100421Y-66255065D01*
X153180452Y-66127697D01*
X153180454Y-66127694D01*
X153180454Y-66127692D01*
X153180456Y-66127690D01*
X153236313Y-65968059D01*
X153236313Y-65968058D01*
X153236314Y-65968056D01*
X153255249Y-65800002D01*
X153255249Y-65799997D01*
X153236314Y-65631943D01*
X153180454Y-65472305D01*
X153180452Y-65472302D01*
X153090481Y-65329115D01*
X153090476Y-65329109D01*
X152970890Y-65209523D01*
X152970884Y-65209518D01*
X152827697Y-65119547D01*
X152827694Y-65119545D01*
X152668056Y-65063685D01*
X152500003Y-65044751D01*
X152499997Y-65044751D01*
X152331943Y-65063685D01*
X152172305Y-65119545D01*
X152172302Y-65119547D01*
X152029115Y-65209518D01*
X152029109Y-65209523D01*
X151909523Y-65329109D01*
X151909518Y-65329115D01*
X151819547Y-65472302D01*
X151819545Y-65472305D01*
X151763685Y-65631943D01*
X151744751Y-65799997D01*
X135800000Y-65799997D01*
X135800000Y-64199997D01*
X140544751Y-64199997D01*
X140544751Y-64200002D01*
X140563685Y-64368056D01*
X140619545Y-64527694D01*
X140619547Y-64527697D01*
X140709518Y-64670884D01*
X140709523Y-64670890D01*
X140829109Y-64790476D01*
X140829115Y-64790481D01*
X140972302Y-64880452D01*
X140972308Y-64880455D01*
X140972310Y-64880456D01*
X141116315Y-64930845D01*
X141173091Y-64971567D01*
X141198581Y-65034003D01*
X141213685Y-65168055D01*
X141269545Y-65327694D01*
X141269547Y-65327697D01*
X141359518Y-65470884D01*
X141359523Y-65470890D01*
X141479109Y-65590476D01*
X141479115Y-65590481D01*
X141622302Y-65680452D01*
X141622305Y-65680454D01*
X141622309Y-65680455D01*
X141622310Y-65680456D01*
X141694913Y-65705860D01*
X141781943Y-65736314D01*
X141949997Y-65755249D01*
X141950000Y-65755249D01*
X141950003Y-65755249D01*
X142118056Y-65736314D01*
X142118059Y-65736313D01*
X142277690Y-65680456D01*
X142277692Y-65680454D01*
X142277694Y-65680454D01*
X142277697Y-65680452D01*
X142420884Y-65590481D01*
X142420885Y-65590480D01*
X142420890Y-65590477D01*
X142540477Y-65470890D01*
X142540481Y-65470884D01*
X142630452Y-65327697D01*
X142630454Y-65327694D01*
X142630454Y-65327692D01*
X142630456Y-65327690D01*
X142686313Y-65168059D01*
X142686313Y-65168058D01*
X142686314Y-65168056D01*
X142705009Y-65002135D01*
X157474500Y-65002135D01*
X157474500Y-66797870D01*
X157474501Y-66797876D01*
X157480908Y-66857483D01*
X157531202Y-66992328D01*
X157531206Y-66992335D01*
X157617452Y-67107544D01*
X157617455Y-67107547D01*
X157732664Y-67193793D01*
X157732671Y-67193797D01*
X157867517Y-67244091D01*
X157867516Y-67244091D01*
X157874444Y-67244835D01*
X157927127Y-67250500D01*
X159722872Y-67250499D01*
X159782483Y-67244091D01*
X159917331Y-67193796D01*
X160032546Y-67107546D01*
X160118796Y-66992331D01*
X160167810Y-66860916D01*
X160209681Y-66804984D01*
X160275145Y-66780566D01*
X160343418Y-66795417D01*
X160371673Y-66816569D01*
X160493599Y-66938495D01*
X160589149Y-67005400D01*
X160687165Y-67074032D01*
X160687167Y-67074033D01*
X160687170Y-67074035D01*
X160901337Y-67173903D01*
X161129592Y-67235063D01*
X161306034Y-67250500D01*
X161364999Y-67255659D01*
X161365000Y-67255659D01*
X161365001Y-67255659D01*
X161423966Y-67250500D01*
X161600408Y-67235063D01*
X161828663Y-67173903D01*
X162042830Y-67074035D01*
X162236401Y-66938495D01*
X162403495Y-66771401D01*
X162539035Y-66577830D01*
X162638903Y-66363663D01*
X162700063Y-66135408D01*
X162703161Y-66100000D01*
X171551954Y-66100000D01*
X171570486Y-66276320D01*
X171570487Y-66276322D01*
X171625271Y-66444933D01*
X171625272Y-66444934D01*
X171645780Y-66480454D01*
X171713916Y-66598469D01*
X171715295Y-66600000D01*
X171832543Y-66730219D01*
X171832546Y-66730221D01*
X171975977Y-66834429D01*
X172137933Y-66906538D01*
X172137936Y-66906538D01*
X172137939Y-66906540D01*
X172311355Y-66943400D01*
X172352795Y-66943400D01*
X172419834Y-66963085D01*
X172460182Y-67005400D01*
X172513915Y-67098467D01*
X172513914Y-67098467D01*
X172632543Y-67230219D01*
X172660455Y-67250498D01*
X172775977Y-67334429D01*
X172937933Y-67406538D01*
X172937936Y-67406538D01*
X172937939Y-67406540D01*
X173111355Y-67443400D01*
X173288645Y-67443400D01*
X173462061Y-67406540D01*
X173462064Y-67406538D01*
X173462066Y-67406538D01*
X173494869Y-67391932D01*
X173624023Y-67334429D01*
X173767454Y-67230221D01*
X173886084Y-67098469D01*
X173974729Y-66944931D01*
X174029514Y-66776319D01*
X174048046Y-66600000D01*
X174029514Y-66423681D01*
X173974729Y-66255069D01*
X173974728Y-66255068D01*
X173974728Y-66255066D01*
X173974727Y-66255065D01*
X173943798Y-66201495D01*
X173886084Y-66101531D01*
X173832677Y-66042217D01*
X173767456Y-65969780D01*
X173671409Y-65899999D01*
X173624023Y-65865571D01*
X173624021Y-65865570D01*
X173624022Y-65865570D01*
X173462066Y-65793461D01*
X173462058Y-65793459D01*
X173288645Y-65756600D01*
X173247205Y-65756600D01*
X173180166Y-65736915D01*
X173139818Y-65694600D01*
X173103641Y-65631941D01*
X173086084Y-65601531D01*
X173076130Y-65590476D01*
X172967456Y-65469780D01*
X172895738Y-65417675D01*
X172824023Y-65365571D01*
X172824021Y-65365570D01*
X172824022Y-65365570D01*
X172662066Y-65293461D01*
X172662058Y-65293459D01*
X172488645Y-65256600D01*
X172311355Y-65256600D01*
X172137941Y-65293459D01*
X172137933Y-65293461D01*
X171975978Y-65365570D01*
X171832543Y-65469780D01*
X171713915Y-65601532D01*
X171625272Y-65755065D01*
X171625271Y-65755066D01*
X171570487Y-65923677D01*
X171570486Y-65923679D01*
X171551954Y-66100000D01*
X162703161Y-66100000D01*
X162720659Y-65900000D01*
X162700063Y-65664592D01*
X162648542Y-65472310D01*
X162638905Y-65436344D01*
X162638904Y-65436343D01*
X162638903Y-65436337D01*
X162539035Y-65222171D01*
X162530176Y-65209518D01*
X162403494Y-65028597D01*
X162236402Y-64861506D01*
X162236395Y-64861501D01*
X162042834Y-64725967D01*
X162042830Y-64725965D01*
X162031739Y-64720793D01*
X161828663Y-64626097D01*
X161828659Y-64626096D01*
X161828655Y-64626094D01*
X161600413Y-64564938D01*
X161600403Y-64564936D01*
X161365001Y-64544341D01*
X161364999Y-64544341D01*
X161129596Y-64564936D01*
X161129586Y-64564938D01*
X160901344Y-64626094D01*
X160901335Y-64626098D01*
X160687171Y-64725964D01*
X160687169Y-64725965D01*
X160493600Y-64861503D01*
X160371673Y-64983430D01*
X160310350Y-65016914D01*
X160240658Y-65011930D01*
X160184725Y-64970058D01*
X160167810Y-64939081D01*
X160118797Y-64807671D01*
X160118793Y-64807664D01*
X160032547Y-64692455D01*
X160032544Y-64692452D01*
X159917335Y-64606206D01*
X159917328Y-64606202D01*
X159782482Y-64555908D01*
X159782483Y-64555908D01*
X159722883Y-64549501D01*
X159722881Y-64549500D01*
X159722873Y-64549500D01*
X159722864Y-64549500D01*
X157927129Y-64549500D01*
X157927123Y-64549501D01*
X157867516Y-64555908D01*
X157732671Y-64606202D01*
X157732664Y-64606206D01*
X157617455Y-64692452D01*
X157617452Y-64692455D01*
X157531206Y-64807664D01*
X157531202Y-64807671D01*
X157480908Y-64942517D01*
X157474501Y-65002116D01*
X157474500Y-65002135D01*
X142705009Y-65002135D01*
X142705249Y-65000002D01*
X142705249Y-64999997D01*
X142686314Y-64831943D01*
X142637505Y-64692455D01*
X142630456Y-64672310D01*
X142630455Y-64672309D01*
X142630454Y-64672305D01*
X142630452Y-64672302D01*
X142540481Y-64529115D01*
X142540476Y-64529109D01*
X142420890Y-64409523D01*
X142420884Y-64409518D01*
X142277697Y-64319547D01*
X142277694Y-64319545D01*
X142133683Y-64269154D01*
X142076907Y-64228432D01*
X142051418Y-64165996D01*
X142036314Y-64031943D01*
X141980454Y-63872305D01*
X141980452Y-63872302D01*
X141890481Y-63729115D01*
X141890476Y-63729109D01*
X141770890Y-63609523D01*
X141770884Y-63609518D01*
X141627697Y-63519547D01*
X141627694Y-63519545D01*
X141468056Y-63463685D01*
X141300003Y-63444751D01*
X141299997Y-63444751D01*
X141131943Y-63463685D01*
X140972305Y-63519545D01*
X140972302Y-63519547D01*
X140829115Y-63609518D01*
X140829109Y-63609523D01*
X140709523Y-63729109D01*
X140709518Y-63729115D01*
X140619547Y-63872302D01*
X140619545Y-63872305D01*
X140563685Y-64031943D01*
X140544751Y-64199997D01*
X135800000Y-64199997D01*
X135800000Y-63307540D01*
X143564200Y-63307540D01*
X143564200Y-63454459D01*
X143577147Y-63519547D01*
X143592860Y-63598542D01*
X143603244Y-63623611D01*
X143649078Y-63734266D01*
X143649083Y-63734275D01*
X143730698Y-63856419D01*
X143730701Y-63856423D01*
X143834576Y-63960298D01*
X143834580Y-63960301D01*
X143956724Y-64041916D01*
X143956730Y-64041919D01*
X143956731Y-64041920D01*
X144092458Y-64098140D01*
X144236540Y-64126799D01*
X144236544Y-64126800D01*
X144236545Y-64126800D01*
X144383456Y-64126800D01*
X144383457Y-64126799D01*
X144527542Y-64098140D01*
X144663269Y-64041920D01*
X144726011Y-63999997D01*
X166744751Y-63999997D01*
X166744751Y-64000002D01*
X166763685Y-64168056D01*
X166819545Y-64327694D01*
X166819547Y-64327697D01*
X166909518Y-64470884D01*
X166909523Y-64470890D01*
X167029109Y-64590476D01*
X167029115Y-64590481D01*
X167172302Y-64680452D01*
X167172305Y-64680454D01*
X167172309Y-64680455D01*
X167172310Y-64680456D01*
X167244913Y-64705860D01*
X167331943Y-64736314D01*
X167499997Y-64755249D01*
X167500000Y-64755249D01*
X167500003Y-64755249D01*
X167668056Y-64736314D01*
X167697632Y-64725965D01*
X167827690Y-64680456D01*
X167827692Y-64680454D01*
X167827694Y-64680454D01*
X167827697Y-64680452D01*
X167970884Y-64590481D01*
X167970885Y-64590480D01*
X167970890Y-64590477D01*
X168090477Y-64470890D01*
X168129040Y-64409518D01*
X168180452Y-64327697D01*
X168180454Y-64327694D01*
X168180454Y-64327692D01*
X168180456Y-64327690D01*
X168236313Y-64168059D01*
X168236313Y-64168058D01*
X168236314Y-64168056D01*
X168255249Y-64000002D01*
X168255249Y-63999997D01*
X168236314Y-63831943D01*
X168180454Y-63672305D01*
X168180452Y-63672302D01*
X168090481Y-63529115D01*
X168090476Y-63529109D01*
X167970890Y-63409523D01*
X167970884Y-63409518D01*
X167914418Y-63374038D01*
X174899500Y-63374038D01*
X174899500Y-63625962D01*
X174902273Y-63643468D01*
X174938910Y-63874785D01*
X175016760Y-64114383D01*
X175044110Y-64168059D01*
X175125448Y-64327694D01*
X175131132Y-64338848D01*
X175279201Y-64542649D01*
X175279205Y-64542654D01*
X175457345Y-64720794D01*
X175457350Y-64720798D01*
X175610326Y-64831941D01*
X175661155Y-64868870D01*
X175782788Y-64930845D01*
X175885616Y-64983239D01*
X175885618Y-64983239D01*
X175885621Y-64983241D01*
X176125215Y-65061090D01*
X176374038Y-65100500D01*
X176374039Y-65100500D01*
X176625961Y-65100500D01*
X176625962Y-65100500D01*
X176874785Y-65061090D01*
X177114379Y-64983241D01*
X177338845Y-64868870D01*
X177542656Y-64720793D01*
X177720793Y-64542656D01*
X177868870Y-64338845D01*
X177983241Y-64114379D01*
X178061090Y-63874785D01*
X178100500Y-63625962D01*
X178100500Y-63374038D01*
X178061090Y-63125215D01*
X177983241Y-62885621D01*
X177983239Y-62885618D01*
X177983239Y-62885616D01*
X177940480Y-62801698D01*
X177868870Y-62661155D01*
X177811756Y-62582544D01*
X177720798Y-62457350D01*
X177720794Y-62457345D01*
X177542654Y-62279205D01*
X177542649Y-62279201D01*
X177338848Y-62131132D01*
X177338847Y-62131131D01*
X177338845Y-62131130D01*
X177267306Y-62094679D01*
X177114383Y-62016760D01*
X176874785Y-61938910D01*
X176812942Y-61929115D01*
X176625962Y-61899500D01*
X176374038Y-61899500D01*
X176249626Y-61919205D01*
X176125214Y-61938910D01*
X175885616Y-62016760D01*
X175661151Y-62131132D01*
X175457350Y-62279201D01*
X175457345Y-62279205D01*
X175279205Y-62457345D01*
X175279201Y-62457350D01*
X175131132Y-62661151D01*
X175016760Y-62885616D01*
X174938910Y-63125214D01*
X174908131Y-63319544D01*
X174899500Y-63374038D01*
X167914418Y-63374038D01*
X167827697Y-63319547D01*
X167827694Y-63319545D01*
X167668056Y-63263685D01*
X167500003Y-63244751D01*
X167499997Y-63244751D01*
X167331943Y-63263685D01*
X167172305Y-63319545D01*
X167172302Y-63319547D01*
X167029115Y-63409518D01*
X167029109Y-63409523D01*
X166909523Y-63529109D01*
X166909518Y-63529115D01*
X166819547Y-63672302D01*
X166819545Y-63672305D01*
X166763685Y-63831943D01*
X166744751Y-63999997D01*
X144726011Y-63999997D01*
X144785420Y-63960301D01*
X144889301Y-63856420D01*
X144970920Y-63734269D01*
X145027140Y-63598542D01*
X145055800Y-63454455D01*
X145055800Y-63307545D01*
X145027140Y-63163458D01*
X144970920Y-63027731D01*
X144970919Y-63027730D01*
X144970916Y-63027724D01*
X144889301Y-62905580D01*
X144889298Y-62905576D01*
X144785423Y-62801701D01*
X144785419Y-62801698D01*
X144663275Y-62720083D01*
X144663266Y-62720078D01*
X144552611Y-62674244D01*
X144527542Y-62663860D01*
X144527538Y-62663859D01*
X144527534Y-62663858D01*
X144383459Y-62635200D01*
X144383455Y-62635200D01*
X144236545Y-62635200D01*
X144236540Y-62635200D01*
X144092465Y-62663858D01*
X144092455Y-62663861D01*
X143956733Y-62720078D01*
X143956724Y-62720083D01*
X143834580Y-62801698D01*
X143834576Y-62801701D01*
X143730701Y-62905576D01*
X143730698Y-62905580D01*
X143649083Y-63027724D01*
X143649078Y-63027733D01*
X143592861Y-63163455D01*
X143592858Y-63163465D01*
X143564200Y-63307540D01*
X135800000Y-63307540D01*
X135800000Y-62291540D01*
X138484200Y-62291540D01*
X138484200Y-62438459D01*
X138509979Y-62568059D01*
X138512860Y-62582542D01*
X138517204Y-62593029D01*
X138569078Y-62718266D01*
X138569083Y-62718275D01*
X138650698Y-62840419D01*
X138650701Y-62840423D01*
X138754576Y-62944298D01*
X138754580Y-62944301D01*
X138876724Y-63025916D01*
X138876730Y-63025919D01*
X138876731Y-63025920D01*
X139012458Y-63082140D01*
X139156540Y-63110799D01*
X139156544Y-63110800D01*
X139156545Y-63110800D01*
X139303456Y-63110800D01*
X139303457Y-63110799D01*
X139447542Y-63082140D01*
X139583269Y-63025920D01*
X139705420Y-62944301D01*
X139809301Y-62840420D01*
X139890920Y-62718269D01*
X139947140Y-62582542D01*
X139975800Y-62438455D01*
X139975800Y-62291545D01*
X139947140Y-62147458D01*
X139890920Y-62011731D01*
X139890919Y-62011730D01*
X139890916Y-62011724D01*
X139809301Y-61889580D01*
X139809298Y-61889576D01*
X139705423Y-61785701D01*
X139705419Y-61785698D01*
X139583275Y-61704083D01*
X139583266Y-61704078D01*
X139471901Y-61657950D01*
X139447542Y-61647860D01*
X139447538Y-61647859D01*
X139447534Y-61647858D01*
X139303459Y-61619200D01*
X139303455Y-61619200D01*
X139156545Y-61619200D01*
X139156540Y-61619200D01*
X139012465Y-61647858D01*
X139012455Y-61647861D01*
X138876733Y-61704078D01*
X138876724Y-61704083D01*
X138754580Y-61785698D01*
X138754576Y-61785701D01*
X138650701Y-61889576D01*
X138650698Y-61889580D01*
X138569083Y-62011724D01*
X138569078Y-62011733D01*
X138512861Y-62147455D01*
X138512858Y-62147465D01*
X138484200Y-62291540D01*
X135800000Y-62291540D01*
X135800000Y-60424500D01*
X135819685Y-60357461D01*
X135872489Y-60311706D01*
X135924000Y-60300500D01*
X139765973Y-60300500D01*
X139833012Y-60320185D01*
G37*
%TD.AperFunction*%
%TD*%
M02*
