M48
; DRILL file {KiCad 8.0.2} date 2024-05-26T21:52:28+0200
; FORMAT={-:-/ absolute / inch / decimal}
; #@! TF.CreationDate,2024-05-26T21:52:28+02:00
; #@! TF.GenerationSoftware,Kicad,Pcbnew,8.0.2
; #@! TF.FileFunction,Plated,1,4,PTH
FMAT,2
INCH
; #@! TA.AperFunction,Plated,PTH,ComponentDrill
T1C0.0079
; #@! TA.AperFunction,Plated,PTH,ViaDrill
T2C0.0118
; #@! TA.AperFunction,Plated,PTH,ComponentDrill
T3C0.0118
; #@! TA.AperFunction,Plated,PTH,ViaDrill
T4C0.0130
; #@! TA.AperFunction,Plated,PTH,ViaDrill
T5C0.0150
; #@! TA.AperFunction,Plated,PTH,ComponentDrill
T6C0.0236
; #@! TA.AperFunction,Plated,PTH,ComponentDrill
T7C0.0295
; #@! TA.AperFunction,Plated,PTH,ComponentDrill
T8C0.0394
%
G90
G05
T1
X6.4341Y-4.0079
X6.4567Y-3.9705
X6.4567Y-4.0453
X6.4793Y-4.0079
X6.7694Y-3.5433
X6.7913Y-3.5214
X6.7913Y-3.5652
X6.8133Y-3.5433
T2
X5.187Y-3.8484
X5.1969Y-4.4665
X5.2421Y-3.7657
X5.25Y-3.5768
X5.3031Y-3.9094
X5.3583Y-2.5295
X5.3583Y-2.626
X5.3583Y-3.4094
X5.3602Y-2.4173
X5.3602Y-3.0157
X5.3622Y-2.7402
X5.3622Y-2.9154
X5.3622Y-3.1201
X5.3622Y-3.2283
X5.3622Y-3.3248
X5.3642Y-2.8209
X5.3799Y-4.5728
X5.3878Y-3.6043
X5.3957Y-3.9272
X5.4272Y-4.2539
X5.4449Y-3.811
X5.4469Y-2.8228
X5.4488Y-2.7421
X5.4606Y-3.9626
X5.4646Y-4.4862
X5.4685Y-3.4626
X5.4764Y-3.2953
X5.5Y-2.561
X5.5157Y-2.7421
X5.5157Y-2.8228
X5.5315Y-2.3976
X5.563Y-2.5276
X5.5709Y-4.3445
X5.5827Y-2.3976
X5.5886Y-2.5591
X5.5945Y-2.7421
X5.5965Y-2.8209
X5.5965Y-3.7382
X5.6004Y-3.9311
X5.6043Y-3.8445
X5.6083Y-4.6654
X5.6142Y-3.128
X5.6378Y-4.0787
X5.6811Y-2.8209
X5.6831Y-2.7421
X5.6969Y-2.6969
X5.7126Y-3.5354
X5.7402Y-2.4567
X5.7559Y-2.7421
X5.7638Y-2.8189
X5.7638Y-4.189
X5.7756Y-3.9016
X5.7835Y-2.5295
X5.7854Y-3.0846
X5.7953Y-3.6339
X5.8189Y-3.1457
X5.8425Y-3.2087
X5.8465Y-2.7421
X5.8484Y-2.8189
X5.878Y-3.2953
X5.8898Y-3.4094
X5.9035Y-3.0453
X5.9035Y-3.185
X5.9055Y-3.2717
X5.9429Y-2.8917
X5.9449Y-3.124
X5.9469Y-3.0531
X5.9469Y-3.0866
X5.9488Y-2.7618
X5.9488Y-3.0217
X5.9488Y-3.5787
X5.9488Y-4.2638
X5.9816Y-2.8963
X5.9921Y-3.311
X6.0039Y-2.5906
X6.0138Y-2.8268
X6.0157Y-3.126
X6.0157Y-4.0965
X6.0177Y-3.1575
X6.0197Y-3.2795
X6.0197Y-4.2461
X6.0315Y-4.6319
X6.0433Y-3.6063
X6.0472Y-2.815
X6.0614Y-3.5654
X6.0689Y-3.0
X6.0709Y-2.8386
X6.0748Y-3.5945
X6.0886Y-4.4803
X6.1024Y-2.9665
X6.1024Y-4.378
X6.1358Y-4.4803
X6.1378Y-3.1732
X6.1378Y-4.189
X6.1713Y-4.622
X6.1831Y-3.8031
X6.185Y-3.4961
X6.1929Y-2.5276
X6.2146Y-2.7717
X6.2185Y-2.8189
X6.2224Y-3.1929
X6.2283Y-3.126
X6.2382Y-3.1575
X6.2638Y-3.9488
X6.2657Y-4.2854
X6.2717Y-2.7877
X6.2736Y-2.9213
X6.2913Y-2.8858
X6.2977Y-3.9429
X6.3051Y-4.0846
X6.3287Y-3.6594
X6.3701Y-3.5138
X6.3701Y-4.6063
X6.3819Y-3.2303
X6.3819Y-3.8858
X6.3878Y-4.1063
X6.4232Y-2.7736
X6.439Y-4.4547
X6.4429Y-3.063
X6.4429Y-3.815
X6.4587Y-2.8327
X6.4882Y-2.7323
X6.4882Y-2.7638
X6.4921Y-2.8327
X6.5Y-3.5846
X6.5118Y-2.4567
X6.5315Y-3.2697
X6.5374Y-2.9843
X6.561Y-2.874
X6.5709Y-2.7146
X6.5748Y-2.4528
X6.5945Y-2.5197
X6.6083Y-3.1142
X6.6142Y-3.4311
X6.6634Y-4.4783
X6.6654Y-3.4882
X6.6693Y-4.2146
X6.7008Y-2.8268
X6.7205Y-2.7047
X6.7244Y-4.0079
X6.7972Y-2.4291
X6.8189Y-4.6378
X6.8209Y-4.0571
X6.8248Y-3.063
X6.8248Y-4.2146
X6.8268Y-3.8445
X6.8484Y-4.4744
X6.8563Y-3.2047
X6.8661Y-2.8307
X6.8996Y-4.3445
X6.9508Y-2.6417
X7.0295Y-4.4528
T3
X5.3543Y-2.6969
X5.8331Y-3.8805
X5.8331Y-3.9187
X5.8835Y-3.8805
X5.8835Y-3.9187
T4
X5.3071Y-4.1181
X5.9528Y-4.3504
X6.1575Y-4.1457
X6.252Y-4.3504
X6.2677Y-3.0197
X6.4488Y-2.9606
X6.4567Y-4.1102
X6.4705Y-3.9094
X6.6496Y-3.6102
X6.7874Y-2.6024
X6.8189Y-2.622
X7.0433Y-2.8346
X7.0433Y-3.0709
X7.0433Y-3.3071
X7.0433Y-3.5433
X7.0433Y-3.7795
X7.0433Y-4.0157
X7.0433Y-4.2559
T5
X5.3071Y-4.0079
X5.3858Y-4.0512
X5.6811Y-4.4567
X5.7205Y-3.3976
X5.7362Y-4.4488
X5.8386Y-3.5787
X5.874Y-3.3504
X5.9685Y-3.9843
X6.189Y-3.6614
X6.5079Y-3.7756
X6.5236Y-4.248
X6.5787Y-4.2717
T7
X5.2402Y-4.3484
X5.3189Y-4.3484
T8
X5.6624Y-3.4646
X5.7624Y-3.4646
X5.8524Y-2.4409
X5.9524Y-2.4409
X6.0524Y-2.4409
X6.1524Y-2.4409
X6.2524Y-2.4409
X6.253Y-2.5945
X6.3524Y-2.4409
X6.353Y-2.5945
X6.5167Y-4.6378
X6.6167Y-4.6378
X6.752Y-3.214
X6.752Y-3.314
T6
G00X5.9323Y-4.4345
M15
G01X5.9323Y-4.47
M16
G05
G00X5.9323Y-4.6062
M15
G01X5.9323Y-4.6298
M16
G05
G00X6.2724Y-4.4345
M15
G01X6.2724Y-4.47
M16
G05
G00X6.2724Y-4.6062
M15
G01X6.2724Y-4.6298
M16
G05
M30
